/* XPM */
static char *ffd521dd4c9441109e3e8a1259ab980e9iInhuReRxa2BXQC[] = {
/* columns rows colors chars-per-pixel */
"48 48 170 2 ",
"   c None",
".  c #1E0C07",
"X  c #1E0E0B",
"o  c #1F110F",
"O  c #1E1214",
"+  c #1B161E",
"@  c #24130E",
"#  c #2C190F",
"$  c #251512",
"%  c #281710",
"&  c #251817",
"*  c #2E1B13",
"=  c #2B1E1B",
"-  c #21171B",
";  c #311D13",
":  c #362116",
">  c #3A2317",
",  c #34241E",
"<  c #3F291C",
"1  c #3E271A",
"2  c #1A1621",
"3  c #1B1825",
"4  c #16192C",
"5  c #191B2D",
"6  c #171C31",
"7  c #1D1F30",
"8  c #1C2134",
"9  c #1F243A",
"0  c #342520",
"q  c #3E2B22",
"w  c #33292B",
"e  c #382B26",
"r  c #20263C",
"t  c #23293C",
"y  c #262634",
"u  c #342E35",
"i  c #392F30",
"p  c #3C3435",
"a  c #36313A",
"s  c #3D353A",
"d  c #442B1C",
"f  c #4F331F",
"g  c #422D22",
"h  c #453127",
"j  c #4F3524",
"k  c #4B362A",
"l  c #46342C",
"z  c #503522",
"x  c #573925",
"c  c #593B25",
"v  c #523A2C",
"b  c #5A3F2D",
"n  c #423634",
"m  c #41393D",
"M  c #4C3F3E",
"N  c #533D31",
"B  c #5E412C",
"V  c #54423B",
"C  c #5C4231",
"Z  c #67462D",
"A  c #68472E",
"S  c #69482F",
"D  c #6A4B33",
"F  c #654935",
"G  c #724F33",
"H  c #6D503A",
"J  c #745136",
"K  c #75543A",
"L  c #2C3245",
"P  c #2C344C",
"I  c #32374C",
"U  c #343C54",
"Y  c #3A3D51",
"T  c #453E43",
"R  c #3B445D",
"E  c #3D4661",
"W  c #3F4A67",
"Q  c #49444F",
"!  c #494248",
"~  c #564745",
"^  c #574847",
"/  c #584947",
"(  c #574A49",
")  c #594B4B",
"_  c #444554",
"`  c #484856",
"'  c #484858",
"]  c #5B4F51",
"[  c #504F59",
"{  c #5C5154",
"}  c #60524F",
"|  c #7A5A40",
" . c #675751",
".. c #6A5A55",
"X. c #73645C",
"o. c #7C695E",
"O. c #79675C",
"+. c #434C66",
"@. c #4C4F62",
"#. c #474F6A",
"$. c #4D5065",
"%. c #4D536C",
"&. c #535364",
"*. c #565B6E",
"=. c #5E5D6E",
"-. c #595868",
";. c #465270",
":. c #4B5673",
">. c #4C5977",
",. c #4D5A7A",
"<. c #5B5E71",
"1. c #535E7D",
"2. c #565D77",
"3. c #605F6F",
"4. c #5E6073",
"5. c #57627F",
"6. c #5B647B",
"7. c #7D6B60",
"8. c #616274",
"9. c #63667B",
"0. c #76747F",
"q. c #877365",
"w. c #8B7667",
"e. c #8E7969",
"r. c #536080",
"t. c #596583",
"y. c #5A6789",
"u. c #5B698C",
"i. c #5F6884",
"p. c #646C83",
"a. c #626E8D",
"s. c #616781",
"d. c #66708D",
"f. c #6A7185",
"g. c #757482",
"h. c #787783",
"j. c #636F91",
"k. c #657293",
"l. c #6A7695",
"z. c #67779C",
"x. c #697799",
"c. c #69799F",
"v. c #6B7BA1",
"b. c #7A8299",
"n. c #7E88A0",
"m. c #8D898D",
"M. c #86848B",
"N. c #8F8C90",
"B. c #80889A",
"V. c #999697",
"C. c #9D9897",
"Z. c #9A9798",
"A. c #9F9A98",
"S. c #959294",
"D. c #A39D9A",
"F. c #818BA5",
"G. c #8C94A2",
"H. c #8391AF",
"J. c #8F98A9",
"K. c #939BAB",
"L. c #8594B3",
"P. c #9BA2B3",
"I. c #A8AEB7",
"U. c #A6ACB7",
"Y. c #ADB3BC",
"T. c #9FACC0",
"R. c #A1AEC3",
"E. c #B3B9C1",
"W. c #B5C0CD",
"Q. c #BBC5D1",
/* pixels */
"                                                                                                ",
"                                                                                                ",
"                                                                                                ",
"              X X X . . . X X X X @ X X X X X X @ X X X X X X o X X . . . . X X X               ",
"            @ @ $ $ $ & $ & $ $ $ @ @ @ @ @ $ @ @ $ @ $ $ $ @ @ $ $ $ & & & % $ @ @             ",
"          % * ; , w u a a u w 0 ; ; * ; ; * ; * ; * * * ; ; * * , w u a a u w , ; * %           ",
"        @ % : q n Q @.%.%.@._ n q 1 1 1 < d < < < < < < < d < g n Q @.%.%.@.Q n g ; * @         ",
"      X @ ; d k ) 3.d.x.z.d.<.( v j z j j k j j j j j j j z z k / 3.d.x.x.d.3./ k d ; @ X       ",
"      X @ ; d C ..h.F.L.L.F.h...F c c B B Z B B b B B B B c B Z ..h.n.L.L.F.g...C d ; @ X       ",
"      X @ > z H 7.N.P.R.R.P.N.7.H S S G S S S G D D D D D D Z H 7.N.P.R.R.P.m.q.D j > @ X       ",
"      X @ > z H w.D.Y.Q.E.E.C.q.K G G J G J J J J J J J J G G | q.Z.E.E.W.E.K.e.K v > $ X       ",
"      X $ > v | e.D.E.Q.Q.E.D.e.| G K K J K K K K K K K K G G | e.D.E.Q.Q.E.D.e.K x > $ X       ",
"      X $ > x | e.D.E.Q.Q.E.D.q.| J J K J K K K K K J K K J G | w.D.E.Q.Q.E.D.e.| x > $ X       ",
"      X $ > x K e.D.Y.Q.Q.E.D.w.| G J K K K K K K K K J K G G | q.D.E.Q.Q.E.D.e.K v > % X       ",
"      X @ > x | e.D.E.Q.Q.E.D.w.K G J J K J J K K K K K K J G | w.D.E.Q.Q.E.D.e.K x > @ X       ",
"      X % > x K e.D.E.Q.Q.E.C.w.q.G J K J K K J K J J K K J G | q.A.E.Q.W.E.D.w.| x > % X       ",
"      X $ > v K e.D.E.Q.Q.Y.A.q.G G J J K K J K J K K J K J J K q.D.Y.Q.Q.Y.D.e.K x 1 $ X       ",
"      X @ > x | e.D.E.Q.Q.W.D.e.K G J K J K K K K K K K K J J | e.D.E.Q.Q.E.D.e.| x > @ X       ",
"      o % > x K e.D.Y.Q.Q.W.D.e.| G J K K K K K K K K K K J J | e.D.E.Q.Q.E.D.e.K x > % X       ",
"      o @ > z K e.D.Y.W.W.Y.A.q.| G J J J J K J J J J J J J J K w.K.E.E.Q.Y.D.e.K x > @ X       ",
"      X @ : f F 7.N.P.U.R.P.N.X.G Z Z A A A S A Z Z Z Z S Z Z G o.m.K.U.R.P.m.o.F j ; $ X       ",
"      X @ : d B  .0.b.H.n.b.g...B c c x c x c x b c x x c c c B  .0.F.H.H.B.0. .b d ; @ X       ",
"      X @ * < C { 6.x.b.b.z.9.] b v c N B b C N C b v C C b x b ) 9.x.v.v.l.9.} N g ; @ X       ",
"      X O , n ( =.i.k.z.z.l.6.-.) } ..X.X.X.X.X.X.X.X.X.X...{ ) -.s.j.z.z.d.9.3.( n 0 $ X       ",
"      X $ w ` 3.9.k.b.z.z.k.a.6.9.g.b.S.Z.Z.V.V.V.V.Z.Z.S.M.0.6.s.a.l.z.z.z.k.p.<.` w $ X       ",
"      . $ u @.p.k.k.j.k.z.k.a.a.b.b.A.I.Y.I.I.I.U.U.Y.Y.I.K.b.d.a.a.k.k.k.k.k.k.s.[ u & .       ",
"      X $ w _ *.6.y.5.y.y.u.t.6.*.9.n.K.K.J.G.G.G.G.G.K.K.b.f.6.2.5.y.y.y.y.t.5.*._ w & X       ",
"      X $ = i T ` $.>.>.>.W +._ R [ 6.9.9.6.<.*.*.*.6.9.f.4.[ ! _ @.:.>.>.:.@.` T i = @ X       ",
"      X X % ; e n R @.;.;.+.R p e p ` $.W R t t t L R W #._ s e p _ +.;.;.+._ p 0 ; % $ X       ",
"      o @ @ % , p R %.>.>.%._ p q n R #.R L t 8 8 9 L E #._ s q n _ ;.,.,.;._ p , % @ @ o       ",
"    + O @ @ # : m @.r.y.a.6.&.V l V -.6.;.R t 8 8 t R W 5.&.V l M &.t.u.u.t.$.m : % @ @ $ +     ",
"  5 + O @ @ * 0 T >.u.z.b.k.*.V V ( 4.6.1.E L t t L R 1.i.=.~ V ~ =.a.x.c.a.*.T 0 * @ @ O + 5   ",
"  5 2 O @ @ # , ! *.k.c.c.k.4.) N ) 8.k.u.:.E R U E :.u.k.8.) N / 3.k.c.v.k.<.T 0 * @ @ O + 5   ",
"  5 2 O @ @ # , V <.k.c.c.k.3./ N ) 8.l.k.u.r.1.1.r.y.z.k.8./ N / 8.k.c.v.j.*.T , * @ o O + 5   ",
"  5 + O @ @ * , R *.d.c.c.k.3./ N ~ =.a.k.j.a.j.a.a.j.k.a.3.~ N / 3.k.c.z.j.*.T , # @ @ O 2 5   ",
"  5 + O @ % * 0 n *.d.c.c.k.4./ v V { =.6.8.8.8.8.8.8.6.<.{ V N / 3.l.c.v.j.<.T 0 * # @ O + 5   ",
"  5 + O @ @ * , ! *.j.v.c.k.4.) b v V ^ ] ) ) ) ) ) ) ) ( V v v ) <.k.c.c.d.*.T , * @ @ O + 5   ",
"  5 2 O @ @ * , Y *.j.v.c.d.4.) v z k v v v v v v v v v v k z v ) 8.k.v.v.d.*.T , # @ $ O 2 5   ",
"  5 3 + $ $ % = s *.k.v.c.k.8.) v f f f j j z z z z z z z z z v ) 3.k.v.v.k.*.T , % $ O + 3 5   ",
"6 6 4 3 2 O @ = s &.j.v.b.k.8.) v z f j f j z z z z z z z z f v ) 8.k.v.v.j.%.s = @ O + 3 5 6 6 ",
"        4 + O & a $.u.c.c.d.4.( v j j j j j j j j j j j j j j v ( 4.j.z.z.j.$.a & o + 4         ",
"        4 2 O - a ' r.u.y.5.$.! k g g h h h h h h h h h h h h l ! &.r.u.u.r.' u + O 2 6         ",
"          4 2 3 y I E W W E Y a w w w w w w w w w w w w w w w w a Y E W W E I y 3 2 4           ",
"            6 5 8 8 9 9 9 9 9 8 8 5 5 y 7 7 7 7 5 8 5 y 5 5 5 7 8 9 9 9 9 9 9 6 5 5             ",
"                                                                                                ",
"                      4                                                 4                       ",
"                      6 6 6 6 6 6 6 6 6 6 6 6 6 6 6 6 6 6 6 6 6 6 6 6 6 6                       ",
"                      6 6 6 6 6 6 6 6 6 6 6 6 6 6 6 6 6 6 6 6 6 6 6 6 6 6                       "
};
