/* XPM */
static char * CO_xpm[] = {
"48 48 141 2",
"  	c #499B49",
". 	c #1B0A06",
"+ 	c #1E0E0B",
"@ 	c #261917",
"# 	c #2B1C19",
"$ 	c #251511",
"% 	c #28160F",
"& 	c #3C3131",
"* 	c #4B4244",
"= 	c #554A4A",
"- 	c #4D413E",
"; 	c #45342C",
"> 	c #3E281D",
", 	c #3C261A",
"' 	c #6D6A6D",
") 	c #86858A",
"! 	c #8C8D94",
"~ 	c #7B716E",
"{ 	c #6A574B",
"] 	c #5D4332",
"^ 	c #593C26",
"/ 	c #5B3E2A",
"( 	c #5D402C",
"_ 	c #7C7A7E",
": 	c #A2A5AC",
"< 	c #ABB2BB",
"[ 	c #938C8A",
"} 	c #7E6A5E",
"| 	c #6E513B",
"1 	c #6A492F",
"2 	c #6C4C33",
"3 	c #9FA3AB",
"4 	c #564745",
"5 	c #210F0A",
"6 	c #2B1A12",
"7 	c #331E14",
"8 	c #3F2C23",
"9 	c #54433C",
"0 	c #706969",
"a 	c #8F9198",
"b 	c #8B898C",
"c 	c #7C7371",
"d 	c #6D594D",
"e 	c #644731",
"f 	c #432E23",
"g 	c #362115",
"h 	c #4E3424",
"i 	c #5C4739",
"j 	c #554E50",
"k 	c #472E1E",
"l 	c #4F4A52",
"m 	c #24130E",
"n 	c #1F100C",
"o 	c #523A2C",
"p 	c #634A3A",
"q 	c #5B4B45",
"r 	c #4C3F3C",
"s 	c #453127",
"t 	c #70584A",
"u 	c #725E55",
"v 	c #A5ABB3",
"w 	c #AEB7C3",
"x 	c #816D60",
"y 	c #72533C",
"z 	c #6D4E38",
"A 	c #908D91",
"B 	c #493428",
"C 	c #655854",
"D 	c #9DA6B7",
"E 	c #A6B2C7",
"F 	c #6C5B53",
"G 	c #655045",
"H 	c #5F493D",
"I 	c #281710",
"J 	c #574845",
"K 	c #626E8D",
"L 	c #818CA5",
"M 	c #8796B3",
"N 	c #777681",
"O 	c #634D42",
"P 	c #6A6672",
"Q 	c #5E5D6D",
"R 	c #413A3F",
"S 	c #3D363B",
"T 	c #453E42",
"U 	c #616274",
"V 	c #6D6F7E",
"W 	c #35261F",
"X 	c #5E5F70",
"Y 	c #697594",
"Z 	c #6C7BA1",
"` 	c #594B4A",
" .	c #533D32",
"..	c #535E7D",
"+.	c #3B445C",
"@.	c #2C3144",
"#.	c #242A3C",
"$.	c #262634",
"%.	c #5F6072",
"&.	c #362720",
"*.	c #53576C",
"=.	c #636F90",
"-.	c #67779D",
";.	c #505F80",
">.	c #37425D",
",.	c #1D2236",
"'.	c #242B40",
").	c #69799F",
"!.	c #1E1214",
"~.	c #1B161E",
"{.	c #657192",
"].	c #536080",
"^.	c #575B6F",
"/.	c #191B2D",
"(.	c #3D4660",
"_.	c #1A1621",
":.	c #5A688B",
"<.	c #495674",
"[.	c #45495E",
"}.	c #3A3D51",
"|.	c #59678A",
"1.	c #695E60",
"2.	c #5A5157",
"3.	c #57617F",
"4.	c #503522",
"5.	c #1B1825",
"6.	c #21171B",
"7.	c #479648",
"8.	c #171C31",
"9.	c #16192C",
"0.	c #32374C",
"a.	c #489948",
"b.	c #37323B",
"c.	c #4F5368",
"d.	c #525366",
"e.	c #302C37",
"f.	c #3F4A67",
"g.	c #33292B",
"h.	c #1F243A",
"i.	c #20263D",
"j.	c #1D1F30",
"                                                                                                ",
"                                                                                                ",
"                                                                                                ",
"                                                                                                ",
"                                                                                                ",
"                                                                                                ",
"                                                                                                ",
"                                                                                                ",
"                                                                                                ",
"                    . . . . . + + + + + + + + + + + + + + + + + + . . . . .                     ",
"                  @ # # # @ @ $ $ % % $ $ $ $ $ $ $ $ $ $ % % $ $ @ # # # @ #                   ",
"                & * = = = = - ; > , , > , , > , , , > , , , , > ; - = = = = * &                 ",
"              @ * ' ) ! ! ) ~ { ] ^ ^ / / ( / ( ( / ( / / ^ ^ ] { ~ ) ! ! ) ' * @               ",
"            + # * _ : < < : [ } | 1 2 2 2 2 2 2 2 2 2 2 2 2 1 | } [ 3 < < 3 _ 4 # 5             ",
"          6 7 8 9 0 ) a a b c d e / ^ ( ( ( ( ^ ( ( ( / ( / ^ ] d c b a a ) 0 9 f 7 6           ",
"        % g h ^ i 4 = j = = * ; > , > > > > > > > > , , k , , 8 ; - l j j = 9 9 ^ h g %         ",
"      + $ , ^ 2 / k # @ # # @ % $ $ % % $ $ % $ % m $ $ % $ $ $ $ 6 # @ @ # k ( e ( , % +       ",
"      + $ > ( 2 ( , + . . . . + + + + + + + + n n + + + + + + + n . . . . m g ( 2 ( , $ +       ",
"      + $ > ( 2 ( , m . . + + + + n + n + + n + n + n n + + n n n + . . . n , ( 2 ( > $ +       ",
"      + $ , ^ 2 ( > % + + m n m m n m n m n m m n m n m m m n m n m m m n % > ( 2 ^ , $ +       ",
"      + $ > ( 2 ^ , m . + + + n + + + m + + n n n n n + + n n n n + . . . 5 , ( 2 ( , $ +       ",
"      + m > ( 2 ( , . . . . . + n + + + n + n + n + + + + + n + n . + . . 5 , ( 2 ( > $ +       ",
"      + % , ^ 2 ( f # # @ @ # $ $ m m % $ % % $ m $ % % m % $ $ $ @ @ # $ # f ( 2 ^ , % +       ",
"      + % g o e p q = = = 4 r s 8 , , , , , , , , > , , , , , > s - = j = = q p e o g $ +       ",
"      + $ 7 k ( d ~ ) ! ! ) ~ t ] ^ ^ ^ ^ ( ( ( ( / ( ^ ^ ^ ^ ] d ~ ) ! ! ) ~ d ^ k 7 m +       ",
"      + m 6 k o u b v w < v [ x y 2 2 2 | 2 2 z 2 2 2 | y 2 2 y x A v w < v ) } o k 6 m +       ",
"      + m % 7 B C ) D E E v ! ~ | z d } F G p i i H G d } t | y } A D E E D ) C B g I m m       ",
"      m m % 7 8 J K L M M L N F p O F P Q l R S S T l Q U C O p F N L M M L V = 8 7 m m m       ",
"      n m % 6 W T X Y Z Z Y U `  .` U K ..+.@.#.$.@.+...K %.q  .` U Y Z Z Y X * &.6 % m 5       ",
"      n + % 6 W T *.=.Z -.K Q 4  .= U K ;.>.#.,.,.'.>.;.K %.`  .4 X K -.).K *.T &.6 m m !.      ",
"    ~.n m % 6 W T *.=.-.-.{.X 4  .J U K ].>.'.,.,.#.>...K U `  .4 X {.-.-.=.^.T W I m m !.~.    ",
"  /.~.!.m % 6 W T X =.Z -.Y X 4  .q U K ].(.@.#.'.@.(.;.K U J  .J X {.-.Z {.^.T W 6 m m $ ~./.  ",
"  /._.!.n m 6 W - ^.K ).).{.U q  .` %.=.:.<.[.}.(.(.<.|.=.U `  .J %.=.Z ).{.^.T , I m m $ _./.  ",
"  /._.!.m m 6 W * ^.{.).).{.Q 4  .` U {.{.:.;.;.;.;.|.{.-.X =  .J %.=.Z ).{.^.T , 6 m $ !._./.  ",
"  /._.!.m % 6 &.- ^.K ).).{.Q J  .J 1.K {.{.=.=.=.=.{.{.K 1.4  .J %.{.Z ).{.^.T &.6 m 5 !._./.  ",
"  /.~.!.m m 6 > }.*.{.).).{.U =  .T 2.X U U U U U U U 3.%.2. . .J %.=.Z ).{.^.T &.6 m m !._./.  ",
"  /.~.!.m % 6 W * ^.{.).).{.U q o o 9 J j ` ` ` ` ` ` ` ` r o o ` %.=.Z Z =.^.T W I m m !.~./.  ",
"  /._.!.m m 6 &.T ^.{.).).{.U = o 4.4.o o o o o o  .o o o o 4.o ` %.=.Z Z =.Q R W I % m !._./.  ",
"  /.5.~.!.m % # S ^.{.).).Y %.` o 4.4.4.4.4.4.4.4.4.4.4.4.4.4.o ` U =.Z Z =.^.R W % $ 6.~.5./.  ",
"7.8.9.5._.6.m # S *.{.Z ).Y U ` o 4.4.4.4.4.4.4.4.4.4.4.4.4.4.4.` U Y Z Z =.*.0.# m !.~._./.8.a.",
"        9.~.!.@ b.c.=.).Y {.%.= o h 4.4.h h 4.h h h h h h h 4.o = X =.Z -.K d.b.@ !.~.9.        ",
"        9._.!.6.e.[.].:.|.].d.* ; f f s s ; s s s s s s s s s ; * d.].:.:...[.e.~.!._.8.        ",
"          9.5.5.$.0.(.f.f.(.}.b.g.g.g.g.g.g.g.g.g.g.g.g.g.g.g.g.@.}.(.[.f.+.0.$.5._.9.          ",
"            9./.8.,.h.h.i.,.h.,./.$./.j.j.j.j.,.,.,.j./.$././.j.j.i.,.i.i.i.h.8.9./.            ",
"                                                                                                ",
"                                                                                                ",
"                                                                                                ",
"                                                                                                "};
