/* XPM */
static char *_a4cb27af81e49eaf029f2fa95cbb8c5uxLdZOhjeEYV39oG[] = {
/* columns rows colors chars-per-pixel */
"48 48 47 1 ",
"  c #499B49",
". c #469A49",
"X c #449948",
"o c #489B49",
"O c #499C49",
"+ c #489A49",
"@ c #59A24B",
"# c #62A64D",
"$ c #4D9D4A",
"% c #479A49",
"& c #499A49",
"* c #479849",
"= c #489949",
"- c #99BD54",
"; c #C7D05A",
": c #62A64C",
"> c #439948",
", c #418E48",
"< c #449349",
"1 c #9ABF54",
"2 c #DECA50",
"3 c #F7CB4C",
"4 c #BBC754",
"5 c #77B050",
"6 c #469649",
"7 c #61A44C",
"8 c #C2C759",
"9 c #F3C54B",
"0 c #FBBC41",
"q c #E2CC56",
"w c #91B654",
"e c #449449",
"r c #489449",
"t c #4A7947",
"y c #ACAB51",
"u c #6B864A",
"i c #448448",
"p c #439148",
"a c #4A9C49",
"s c #449448",
"d c #337C45",
"f c #6D9E4E",
"g c #388646",
"h c #469749",
"j c #439248",
"k c #408C48",
"l c white",
/* pixels */
"                                                ",
"                            .Xo           O     ",
"                           +@#$%         &*=    ",
"                          +%-;:>        O*,<    ",
"                  O  O   .@12345oo       =<6    ",
"                 &*= *=  X7890qwoo              ",
"                O*,e=,<  Ortyqui                ",
"                 =<ppp6  asdfwig                ",
"                   <,*O     oo                  ",
"                   =*       oo                  ",
"                    O                           ",
"                                                ",
"                                                ",
"                                                ",
"                                                ",
"                                                ",
"                 O  O                           ",
"                =* =*&                          ",
"                <,=e,*O                         ",
"                6ppp<=                          ",
"                O*,<                            ",
"                  *=                            ",
"                  O             =<h+<6          ",
"                               O*,j6,<          ",
"                                 *p,6+          ",
"                                 O6<+O          ",
"                                                ",
"                                                ",
"                                                ",
"                                                ",
"                                                ",
"                                                ",
"                                                ",
"                                                ",
"                                                ",
"                                                ",
"                                                ",
"   O                         oX.                ",
"  &*=                       %$#@+               ",
" O*,<                       >:;-%+              ",
"  =<6                     oo54321@.             ",
"                          oowq0987X             ",
"                            iuqytrO             ",
"                            giwfdsa             ",
"                              oo                ",
"                              oo                ",
"        =<6=<6                                  ",
"       O*kj*kp                                  "
};
