/* XPM */
static char * 1,1_xpm[] = {
"48 48 78 1",
" 	c #499B49",
".	c #1C192B",
"+	c #201D31",
"@	c #181424",
"#	c #222136",
"$	c #2A283F",
"%	c #302F47",
"&	c #3D3B4E",
"*	c #383955",
"=	c #333249",
"-	c #323047",
";	c #2B2B43",
">	c #3A3C5A",
",	c #464866",
"'	c #525471",
")	c #5D5F79",
"!	c #67677F",
"~	c #696A81",
"{	c #474969",
"]	c #4A4F74",
"^	c #60658B",
"/	c #757A9C",
"(	c #8388A6",
"_	c #8F93AD",
":	c #9598B1",
"<	c #9396B0",
"[	c #1A1628",
"}	c #23223A",
"|	c #444665",
"1	c #5B628B",
"2	c #757CA2",
"3	c #898EB1",
"4	c #989DBB",
"5	c #A3A7C2",
"6	c #A5A9C3",
"7	c #A8ACC7",
"8	c #9FA3C0",
"9	c #9DA2BE",
"0	c #606487",
"a	c #969BBA",
"b	c #A8ADC8",
"c	c #5D6182",
"d	c #333553",
"e	c #898EAF",
"f	c #4D5072",
"g	c #878CAF",
"h	c #5C5F80",
"i	c #7A81A8",
"j	c #8C91B3",
"k	c #5D6691",
"l	c #656C96",
"m	c #3C4164",
"n	c #535A83",
"o	c #6A719B",
"p	c #4C547D",
"q	c #7980A4",
"r	c #35395B",
"s	c #3B436A",
"t	c #4D5680",
"u	c #686F99",
"v	c #323759",
"w	c #2F3352",
"x	c #464E79",
"y	c #4F5882",
"z	c #676E98",
"A	c #697097",
"B	c #3F4872",
"C	c #686F97",
"D	c #414A74",
"E	c #3E4771",
"F	c #787EA4",
"G	c #393F64",
"H	c #262741",
"I	c #1F1D32",
"J	c #363D61",
"K	c #2E314F",
"L	c #2B2D4A",
"M	c #272842",
"                                                ",
"             .............++...@...             ",
"            #$%%&&&&&&&*&&&&&&&=-;$#            ",
"           .;>,')!!!~~!~!!!~!!!!'{>;.           ",
"          @#&]^/(_::::<<<<<<::_(/^]=+[          ",
"         +}-|1234567667667667789320|-}+         ",
"        +;*{)/3a567777777777b76543/c{*;+        ",
"       @+d]^/3a5555666666666655554e/^f*+@       ",
"      +#%{023456655556556555555665ag2^|%#+      ",
"     +;d,)/344666555555555555556668a3/),d;+     ",
"    @}*f0/e45556555555555555555555554g/^'d}@    ",
"   .#-{^2e456555555555556555555555565a32^{-#.   ",
"  #%&|c/345565555556555555555555556668a3/h{d;}  ",
" .$>f0/34855655555555555555656555556558a_/0'>$. ",
" .;|12e456555555555565555555555555555555ag/1|;. ",
" .;{^ij8666555555555555555555555555556768ai^,;. ",
" .;,kij8666555555565555556555555555556668jil{;. ",
" .;,12j4565555555555555555565565555555554321|;. ",
" .$mnoija955665655555555555555555565659ajionm;[ ",
" [}>p1oqga9566556555655555555555556669:gqo1fr}[ ",
" .}dst1u2ea56655556555555555565555655ae2u1tsv#[ ",
" @#wsxy1zq_a995665555555555555566559ajqz1yxsw}[ ",
" [#wsxxt1A2ga9666555555555655556659ae2A1ypBsw}[ ",
" [#wsBxxp1u2ga56555555565655555565ae2C1pxDBEw#[ ",
" [}wsBBDxp1zFja895665555555556558a32C1pxBDDGwH[ ",
" [}wsBBBDxt1A2ea9666666666566659a3qo1txDBBDsw+[ ",
" [#wEBxBDDxp1A2ga566665665556659g2unpxDDDxDsw+[ ",
" [}wsBxBDBBxp1CF_a999999999999:_FzkyxDEDBBBEwH[ ",
" [}wsBBBBEBDxt1Cqgjjjjj3jjjjjjequktxxBBBBBBGw}[ ",
" [}wsBBxDEBDDxp1C2FqFFFF2FFFqq2AntxDBBBBBtBEw}[ ",
" [}wEBBBEDDBBDxt1zooooooooooooC1yxBBBBBBBBBEw}[ ",
" [}wExBxDDBDEEDt1lzozlzzzzzzuzl1txBBBBBxBBBEw}[ ",
" [IvsDDDBDDBBBDt1lzzzzzzzzzuzzz1tDEBBBBBBxBGJ}[ ",
" [}wsEDBDBBDBBxt1lzozozouuuuoozntxBBBxBxBBEGwI[ ",
" [IKvGsBDBBDBBDt1louzozzuuuuozl1tDBBBBBBBGGJw+[ ",
"  I}HKJsDxDBBBDt1luoozozuuuuozl1txBBBBxxEJKHHI  ",
"   [I}wGDDBDBBxt1lzouuuuuuuuuul1tDBBDDxBGw}I[   ",
"    [ILrGsBBBBDt1lozuuuuuuuuuoz1tDBBBBGGvLI@    ",
"     .}MwrsDDBxt1zuouuuuuuuuouz1tDBDxGJwM}I     ",
"      .I}wsBBBDt1zoouuuuuuuuuoz1txDBEGw}I.      ",
"       [IMvGsEDtkzuoooooooooooz1yxEsmvMI@       ",
"        [}LwJsDykuooooooooooooukyDGJwL}.        ",
"         II}LGDn^uooouuoooooooC^yDJL}II         ",
"          @IMvsxn^^^lk^^k^k^^l1pxsvHI@          ",
"           [#Lvrm,,,,,,,{{{{{{,|rdL#[           ",
"            I+#$;;%;%%;%;;;%;;;;H}+I            ",
"             [[[[...[..........[[[[             ",
"                                                "};
