/* XPM */
static char *_1d4ae1edfa546e1b4adf3c44c4973aeGhens9Y6QYf3q5gs[] = {
/* columns rows colors chars-per-pixel */
"48 48 5 1 ",
"  c #181425",
". c #404973",
"X c #499B49",
"o c #686F99",
"O c #A3A7C2",
/* pixels */
"XXXXXXXXXXXXX                      XXXXXXXXXXXXX",
"XXXXXXXXXXXXX                      XXXXXXXXXXXXX",
"XXXXXXXXXXXXX                      XXXXXXXXXXXXX",
"XXXXXXXXXX   oooOOOOOOOOOOOOOOOOooo   XXXXXXXXXX",
"XXXXXXXXXX   oooOOOOOOOOOOOOOOOOooo   XXXXXXXXXX",
"XXXXXXXXXX   oooOOOOOOOOOOOOOOOOooo   XXXXXXXXXX",
"XXXXXX    oooOOOOOOOOOOOOOOOOOOOOOOooo    XXXXXX",
"XXXXXX    oooOOOOOOOOOOOOOOOOOOOOOOooo    XXXXXX",
"XXXXXX    oooOOOOOOOOOOOOOOOOOOOOOOooo    XXXXXX",
"XXXXXX    oooOOOOOOOOOOOOOOOOOOOOOOooo    XXXXXX",
"XXX   ooooOOOOOOOOOOOOOOOOOOOOOOOOOOOOoooo   XXX",
"XXX   ooooOOOOOOOOOOOOOOOOOOOOOOOOOOOOoooo   XXX",
"XXX   ooooOOOOOOOOOOOOOOOOOOOOOOOOOOOOoooo   XXX",
"   oooOOOOOOOOOOOOOOOOOOOOOOOOOOOOOOOOOOOOooo   ",
"   oooOOOOOOOOOOOOOOOOOOOOOOOOOOOOOOOOOOOOooo   ",
"   oooOOOOOOOOOOOOOOOOOOOOOOOOOOOOOOOOOOOOooo   ",
"   oooOOOOOOOOOOOOOOOOOOOOOOOOOOOOOOOOOOOOooo   ",
"   oooOOOOOOOOOOOOOOOOOOOOOOOOOOOOOOOOOOOOooo   ",
"   oooOOOOOOOOOOOOOOOOOOOOOOOOOOOOOOOOOOOOooo   ",
"   ...ooooOOOOOOOOOOOOOOOOOOOOOOOOOOOOoooo...   ",
"   ...ooooOOOOOOOOOOOOOOOOOOOOOOOOOOOOoooo...   ",
"   ...ooooOOOOOOOOOOOOOOOOOOOOOOOOOOOOoooo...   ",
"   .......oooOOOOOOOOOOOOOOOOOOOOOOooo.......   ",
"   .......oooOOOOOOOOOOOOOOOOOOOOOOooo.......   ",
"   .......oooOOOOOOOOOOOOOOOOOOOOOOooo.......   ",
"   .......oooOOOOOOOOOOOOOOOOOOOOOOooo.......   ",
"   ..........oooOOOOOOOOOOOOOOOOooo..........   ",
"   ..........oooOOOOOOOOOOOOOOOOooo..........   ",
"   ..........oooOOOOOOOOOOOOOOOOooo..........   ",
"   .............oooooooooooooooo.............   ",
"   .............oooooooooooooooo.............   ",
"   .............oooooooooooooooo.............   ",
"   .............oooooooooooooooo.............   ",
"   .............oooooooooooooooo.............   ",
"   .............oooooooooooooooo.............   ",
"XXX   ..........oooooooooooooooo..........   XXX",
"XXX   ..........oooooooooooooooo..........   XXX",
"XXX   ..........oooooooooooooooo..........   XXX",
"XXXXXX    ......oooooooooooooooo......    XXXXXX",
"XXXXXX    ......oooooooooooooooo......    XXXXXX",
"XXXXXX    ......oooooooooooooooo......    XXXXXX",
"XXXXXX    ......oooooooooooooooo......    XXXXXX",
"XXXXXXXXXX   ...oooooooooooooooo...   XXXXXXXXXX",
"XXXXXXXXXX   ...oooooooooooooooo...   XXXXXXXXXX",
"XXXXXXXXXX   ...oooooooooooooooo...   XXXXXXXXXX",
"XXXXXXXXXXXXX                      XXXXXXXXXXXXX",
"XXXXXXXXXXXXX                      XXXXXXXXXXXXX",
"XXXXXXXXXXXXX                      XXXXXXXXXXXXX"
};
