/* XPM */
static char * 1_1_xpm[] = {
"48 48 81 1",
" 	c #499B49",
".	c #14101F",
"+	c #130E1E",
"@	c #1C192B",
"#	c #201D31",
"$	c #181424",
"%	c #222136",
"&	c #2A283F",
"*	c #302F47",
"=	c #3D3B4E",
"-	c #383955",
";	c #333249",
">	c #323047",
",	c #2B2B43",
"'	c #3A3C5A",
")	c #464866",
"!	c #525471",
"~	c #5D5F79",
"{	c #67677F",
"]	c #696A81",
"^	c #474969",
"/	c #4A4F74",
"(	c #60658B",
"_	c #757A9C",
":	c #8388A6",
"<	c #8F93AD",
"[	c #9598B1",
"}	c #9396B0",
"|	c #1A1628",
"1	c #23223A",
"2	c #444665",
"3	c #5B628B",
"4	c #757CA2",
"5	c #898EB1",
"6	c #989DBB",
"7	c #A3A7C2",
"8	c #A5A9C3",
"9	c #A8ACC7",
"0	c #9FA3C0",
"a	c #9DA2BE",
"b	c #606487",
"c	c #969BBA",
"d	c #A8ADC8",
"e	c #5D6182",
"f	c #333553",
"g	c #898EAF",
"h	c #4D5072",
"i	c #878CAF",
"j	c #5C5F80",
"k	c #7A81A8",
"l	c #8C91B3",
"m	c #5D6691",
"n	c #656C96",
"o	c #3C4164",
"p	c #535A83",
"q	c #6A719B",
"r	c #161121",
"s	c #4C547D",
"t	c #7980A4",
"u	c #35395B",
"v	c #3B436A",
"w	c #4D5680",
"x	c #686F99",
"y	c #323759",
"z	c #2F3352",
"A	c #464E79",
"B	c #4F5882",
"C	c #676E98",
"D	c #697097",
"E	c #3F4872",
"F	c #686F97",
"G	c #414A74",
"H	c #3E4771",
"I	c #787EA4",
"J	c #393F64",
"K	c #262741",
"L	c #1F1D32",
"M	c #363D61",
"N	c #2E314F",
"O	c #2B2D4A",
"P	c #272842",
"             .+++++++++++++++++++++             ",
"             @@@@@@@@@@@@@##@@@$@@@             ",
"            %&**=======-=======;>,&%            ",
"           @,')!~{{{]]{]{{{]{{{{!^',@           ",
"          $%=/(_:<[[[[}}}}}}[[<:_(/;#|          ",
"         #1>2345678988988988990a54b2>1#         ",
"        #,-^~_5c789999999999d98765_e^-,#        ",
"       $#f/(_5c7777888888888877776g_(h-#$       ",
"      #%*^b45678877778778777777887ci4(2*%#      ",
"     #,f)~_566888777777777777778880c5_~)f,#     ",
"    $1-hb_g67778777777777777777777776i_(!f1$    ",
"   @%>^(4g678777777777778777777777787c54(^>%@   ",
"  %*=2e_567787777778777777777777778880c5_j^f,1  ",
"+@&'hb_56077877777777777777878777778770c<_b!'&@.",
"+@,234g678777777777787777777777777777777ci_32,@+",
"+@,^(kl0888777777777777777777777777778980ck(),@+",
".@,)mkl0888777777787777778777777777778880lkn^,@.",
".@,)34l67877777777777777777877877777777765432,@+",
".@&opqklca7788787777777777777777778787aclkqpo,|r",
".|1's3qtica78877877787777777777777888a[itq3hu1|r",
".@1fvw3x4gc78877778777777777787777877cg4x3wvy%|r",
"r$%zvAB3Ct<caa788777777777777778877acltC3BAvz1|r",
"$|%zvAAw3D4ica88877777777787777887acg4D3BsEvz1|r",
"r|%zvEAAs3x4ic78777777787877777787cg4F3sAGEHz%|r",
"r|1zvEEGAs3CIlc0a7887777777778770c54F3sAEGGJzK|r",
"r|1zvEEEGAw3D4gca88888888878887ac5tq3wAGEEGvz#|r",
"r|%zHEAEGGAs3D4ic78888788777887ai4xpsAGGGAGvz#|r",
"r|1zvEAEGEEAs3FI<caaaaaaaaaaaa[<ICmBAGHGEEEHzK|r",
"r|1zvEEEEHEGAw3Ftilllll5llllllgtxmwAAEEEEEEJz1|r",
"r|1zvEEAGHEGGAs3F4ItIIII4IIItt4DpwAGEEEEEwEHz1|r",
"r|1zHEEEHGGEEGAw3CqqqqqqqqqqqqF3BAEEEEEEEEEHz1|r",
"r|1zHAEAGGEGHHGw3nCqCnCCCCCCxCn3wAEEEEEAEEEHz1|.",
"r|LyvGGGEGGEEEGw3nCCCCCCCCCxCCC3wGHEEEEEEAEJM1|r",
"r|1zvHGEGEEGEEAw3nCqCqCqxxxxqqCpwAEEEAEAEEHJzL|r",
"$|LNyJvEGEEGEEGw3nqxCqCCxxxxqCn3wGEEEEEEEJJMz#|r",
"  L1KNMvGAGEEEGw3nxqqCqCxxxxqCn3wAEEEEAAHMNKKL  ",
"   |L1zJGGEGEEAw3nCqxxxxxxxxxxn3wGEEGGAEJz1L|   ",
"    |LOuJvEEEEGw3nqCxxxxxxxxxqC3wGEEEEJJyOL$    ",
"     @1PzuvGGEAw3CxqxxxxxxxxqxC3wGEGAJMzP1L     ",
"      @L1zvEEEGw3CqqxxxxxxxxxqC3wAGEHJz1L@      ",
"       |LPyJvHGwmCxqqqqqqqqqqqC3BAHvoyPL$       ",
"        |1OzMvGBmxqqqqqqqqqqqqxmBGJMzO1@        ",
"         LL1OJGp(xqqqxxqqqqqqqF(BGMO1LL         ",
"          $LPyvAp(((nm((m(m((n3sAvyKL$          ",
"           |%Oyuo)))))))^^^^^^)2ufO%|           ",
"            L#%&,,*,**,*,,,*,,,,K1#L            ",
"             ||||@@@|@@@@@@@@@@||||             ",
"             rr$+r+++++++....++r$.$             "};
