/* XPM */
static char * COS0_xpm[] = {
"48 48 26 1",
" 	c #499B49",
".	c #FED602",
"+	c #FDD604",
"@	c #F4D213",
"#	c #F8D40E",
"$	c #FAD40C",
"%	c #FED604",
"&	c #FED702",
"*	c #FFD700",
"=	c #21110D",
"-	c #B6BEC8",
";	c #755338",
">	c #FDD500",
",	c #FED600",
"'	c #F8D101",
")	c #503625",
"!	c #342319",
"~	c #677598",
"{	c #242A3D",
"]	c #FCD402",
"^	c #FCD519",
"/	c #FED601",
"(	c #FED611",
"_	c #FDD602",
":	c #FBD509",
"<	c #F3D213",
"                                                ",
"                                                ",
"                                                ",
"                          ..             ++     ",
"   @#                     $%             %&     ",
"   **                                           ",
"                                                ",
"                                                ",
"                                                ",
"         ==============================         ",
"         ==============================         ",
"         ==============================         ",
"      ===------;;;;;;;;;;;;;;;;;;------===      ",
"      ===------;;;;;;;;;;;;;;;;;;------===      ",
"      ===------;;;;;;;;;;;;;;;;;;------===      ",
"   ===;;;==============================;;;===   ",
"   ===;;;===========****===============;;;===   ",
"   ===;;;==========******>=============;;;===   ",
"   ===;;;========,************=========;;;===   ",
"   ===;;;======*****************'======;;;===   ",
"   ===;;;====**********************,===;;;===   ",
"   ===;;;==***************************=;;;===   ",
"   ===;;;******************************;;;===   ",
"   ===;;;******************************;;;===   ",
"   ===)))------;;;;;;;;;;;;;;;;;;------)))===   ",
"   ===)))------;;;;;;;;;;;;;;;;;;------)))===   ",
"   ===)))------;;;;;;;;;;;;;;;;;;------)))===   ",
"   ===!!!~~~~~~)))~~~{{{{{{~~~)))~~~~~~!!!===   ",
"   ===!!!~~~~~~)))~~~{{{{{{~~~)))~~~~~~!!!===   ",
"   ===!!!~~~~~~)))~~~{{{{{{~~~)))~~~~~~!!!===   ",
"   ===!!]^~~~~~)))~~~{{{{{{~~~)))~~~~~~!!!===   ",
"   ===!!/.~~~~~)))~~~{{{{{{~~~)))~~~~~(_!!===   ",
"   ===!!!~~~~~~)))~~~{{{{{{~~~)))~~~~~(_!!===   ",
"   ===!!!~~~~~~)))~~~~~~~~~~~~)))~~~~~~!!!===   ",
"   ===!!!~~~~~~)))~~~~~~~~~~~~)))~~~~~~!!!===   ",
"   ===!!!~~~~~~)))~~~~~~~~~~~~)))~~~~~~!!!===   ",
"   ===!!!~~~~~~))))))))))))))))))~~~~~~!!!===   ",
"   ===!!!~~~~~~))))))))))))))))))~~~~~~!!!===   ",
"   ===!!!~~~~~~))))))))))))))))))~~~~~~!!!===   ",
"      ===~~~~~~))))))))))))))))))~~~~~~===      ",
"      ===~~~~~~))))))))))))))))))~~~~~~===      ",
"      ===~~~~~~))))))))))))))))))~~~~~~===      ",
"                                                ",
"                                           ::   ",
"    <<                                     ..   ",
"    ++                                          ",
"                                                ",
"                                                "};
