/* XPM */
static char * COS1_xpm[] = {
"48 48 14 1",
" 	c #499B49",
".	c #FFD700",
"+	c #21110D",
"@	c #B6BEC8",
"#	c #755338",
"$	c #FDD500",
"%	c #FED600",
"&	c #F8D101",
"*	c #503625",
"=	c #342319",
"-	c #677598",
";	c #242A3D",
">	c #21130D",
",	c #22120E",
"                                                ",
"                         ..               ..    ",
"   ..                   ....             ....   ",
"  ....                 ......           ......  ",
" ......                ......           ......  ",
" ......                 ....             ....   ",
"  ....                   ..               ..    ",
"   ..                                           ",
"                                                ",
"         ++++++++++++++++++++++++++++++         ",
"         ++++++++++++++++++++++++++++++         ",
"         ++++++++++++++++++++++++++++++         ",
"      +++@@@@@@##################@@@@@@+++      ",
"      +++@@@@@@##################@@@@@@+++      ",
"      +++@@@@@@##################@@@@@@+++      ",
"   +++###++++++++++++++++++++++++++++++###+++   ",
"   +++###+++++++++++....+++++++++++++++###+++   ",
"   +++###++++++++++......$+++++++++++++###+++   ",
"   +++###++++++++%............+++++++++###+++   ",
"   +++###++++++.................&++++++###+++   ",
"   +++###++++......................%+++###+++   ",
"   +++###++...........................+###+++   ",
"   +++###..............................###+++   ",
"   +++###..............................###+++   ",
"   +++***@@@@@@##################@@@@@@***+++   ",
"   +++***@@@@@@##################@@@@@@***+++   ",
"   +++***@@@@@@##################@@@@@@***+++   ",
"   +++===------***---;;;;;;---***------===+++   ",
"   +++==..-----***---;;;;;;---***------===+++   ",
"   +++=....----***---;;;;;;---***-----..==+++   ",
"   +++......---***---;;;;;;---***----....=+++   ",
"   +++......---***---;;;;;;---***---......+++   ",
"   +++=....----***---;;;;;;---***---......+++   ",
"   +++==..-----***------------***----....=+++   ",
"   +++===------***------------***-----..==+++   ",
"   +++===------***------------***------===+++   ",
"   +++===------******************------===+++   ",
"   +++===------******************------===+++   ",
"   +++===------******************------===+++   ",
"      +++------******************------+++      ",
"      +++------******************------++> ..   ",
"    ..+,+------******************------+++....  ",
"   ....                                  ...... ",
"  ......                                 ...... ",
"  ......                                  ....  ",
"   ....                                    ..   ",
"    ..                                          ",
"                                                "};
