/* XPM */
static char * COS3_xpm[] = {
"48 48 29 1",
" 	c #499B49",
".	c #FFD700",
"+	c #4A9C48",
"@	c #4A9C49",
"#	c #4C9C48",
"$	c #4C9C49",
"%	c #4A9B49",
"&	c #4B9C49",
"*	c #4B9D48",
"=	c #4B9B49",
"-	c #539D48",
";	c #21110D",
">	c #B6BEC8",
",	c #755338",
"'	c #FDD500",
")	c #FED600",
"!	c #F8D101",
"~	c #503625",
"{	c #342319",
"]	c #677598",
"^	c #242A3D",
"/	c #35241A",
"(	c #677698",
"_	c #687697",
":	c #21130D",
"<	c #22120E",
"[	c #4E9C48",
"}	c #4D9C48",
"|	c #509C48",
"                      .      .         .      . ",
".      .                 ..               ..    ",
"   ..               .   .++.   .     .   .@@.   ",
"  .#$.   .             .@  %.           .@   .  ",
" .% %+.             &  .*  %.           .@   .  ",
" .=*%%.             .   . =.   .     .   . %.   ",
"  .-&.   .               ..               ..    ",
"   ..                 .      .         .      . ",
".      .                                        ",
"         ;;;;;;;;;;;;;;;.;;.;;;;;;;;;;;  .  .   ",
"  .  .   ;;;;;;;;;;;;;;;;;;;;;;;;;;;;;;         ",
"         ;;;;;;;;;;;;;;;;;;;;;;;;;;;;;;         ",
"      ;;;>>>>>>,,,,,,,,,,,,,,,,,,>>>>>>;;;      ",
"      ;;;>>>>>>,,,,,,,,,,,,,,,,,,>>>>>>;;;      ",
"      ;;;>>>>>>,,,,,,,,,,,,,,,,,,>>>>>>;;;      ",
"   ;;;,,,;;;;;;;;;;;;;;;;;;;;;;;;;;;;;;,,,;;;   ",
"   ;;;,,,;;;;;;;;;;;....;;;;;;;;;;;;;;;,,,;;;   ",
"   ;;;,,,;;;;;;;;;;......';;;;;;;;;;;;;,,,;;;   ",
"   ;;;,,,;;;;;;;;)............;;;;;;;;;,,,;;;   ",
"   ;;;,,,;;;;;;.................!;;;;;;,,,;;;   ",
"   ;;;,,,;;;;......................);;;,,,;;;   ",
"   ;;;,,,;;...........................;,,,;;;   ",
"   ;;;,,,..............................,,,;;;   ",
"   ;;;,,,..............................,,,;;;   ",
"   ;;;~~~>>>>>>,,,,,,,,,,,,,,,,,,>>>>>>~~~;;;   ",
"   ;;;~.~>.>>>>,,,,,,,,,,,,,,,,,,>>>>>>~~~;;;   ",
"   ;;;~~~>>>>>>,,,,,,,,,,,,,,,,,,>>>>.>~.~;;;   ",
"   ;;.{{{]]].]]~~~]]]^^^^^^]]]~~~]]]]]]{{{;;;   ",
"   ;;;{{..]]]]]~~~]]]^^^^^^]]]~~~]].]]]{{{.;;   ",
"   .;;{./(.]]].~~~]]]^^^^^^]]]~~~]]]]]..{{;;;   ",
"   ;;;.{{(_.]]]~~~]]]^^^^^^]]]~~~.]]].({.{;;.   ",
"   ;;;.{{]].]]]~~~]]]^^^^^^]]]~~~]]].]]{{.;;;   ",
"   .;;{./].]]].~~~]]]^^^^^^]]]~~~]]].]]{{.;;;   ",
"   ;;;{{..]]]]]~~~]]]]]]]]]]]]~~~.]]].]{.{;;.   ",
"   ;;.{{{]]].]]~~~]]]]]]]]]]]]~~~]]]]]..{{;;;   ",
"   ;;;{{{]]]]]]~~~]]]]]]]]]]]]~~~]].]]]{{{.;;   ",
"   ;;;{.{].]]]]~~~~~~~~~~~~~~~~~~]]]]]]{{{;;;   ",
"   ;;;{{{]]]]]]~~~~~~~~~~~~~~~~~~]]]].]{.{.;;.  ",
"   .;;.{{]]]]]]~~~~~~~~~~~~~~~~~~]]]]]]{{{;;;   ",
"      ;;;]]]]]]~~~~~~~~~~~~~~~~~~]]]]]];.;     .",
" .    ;;.]]]]]]~~~~~~~~~~~~~~~~~~]]]]]];;: ..   ",
"    ..;<;]]]]]]~~~~~~~~~~~~~~~~~~]]]]].;;;.&&.  ",
"   .[}.   .                              .   [. ",
"  .    .                                 .   =. ",
"  .    .                              .   .  .  ",
"   .| .   .                                ..   ",
"    ..                                  .      .",
" .      .                                       "};
