/* XPM */
static char * EC_xpm[] = {
"48 48 69 1",
" 	c #499B49",
".	c #868686",
"+	c #878787",
"@	c #818181",
"#	c #7E7E7E",
"$	c #7A7A7A",
"%	c #777777",
"&	c #848484",
"*	c #858585",
"=	c #7C7C7C",
"-	c #707070",
";	c #6F6F6F",
">	c #6E6E6E",
",	c #747474",
"'	c #808080",
")	c #696969",
"!	c #656565",
"~	c #676767",
"{	c #6B6B6B",
"]	c #5C5C5C",
"^	c #606060",
"/	c #666666",
"(	c #595959",
"_	c #727272",
":	c #6A6A6A",
"<	c #5E5E5E",
"[	c #585858",
"}	c #636363",
"|	c #5B5B5B",
"1	c #565656",
"2	c #555555",
"3	c #757575",
"4	c #545454",
"5	c #535353",
"6	c #525252",
"7	c #505050",
"8	c #797979",
"9	c #4C4C4C",
"0	c #474747",
"a	c #4D4D4D",
"b	c #464646",
"c	c #3A3A3A",
"d	c #4A4A4A",
"e	c #4B4B4B",
"f	c #484848",
"g	c #414141",
"h	c #515151",
"i	c #494949",
"j	c #3B3B3B",
"k	c #373737",
"l	c #393939",
"m	c #787878",
"n	c #454545",
"o	c #383838",
"p	c #404040",
"q	c #434343",
"r	c #444444",
"s	c #686868",
"t	c #5F5F5F",
"u	c #3E3E3E",
"v	c #3D3D3D",
"w	c #646464",
"x	c #575757",
"y	c #888888",
"z	c #7B7B7B",
"A	c #7D7D7D",
"B	c #767676",
"C	c #7F7F7F",
"D	c #5A5A5A",
"               ..   .....                       ",
"                   +.@#@.+                      ",
"                  ..@$%$@&&..     +*            ",
"         ...     ++#$%%%$$=&+..   **+           ",
"        @@@     +*#=%-;>-,$##@.+   *#@          ",
"       +&=     .*'=%-)!~~{%%%$@.*   %#.         ",
"       .+     +.'=%-!]^)~~{,%%$#*+   $=@        ",
"       @#    +.#=%-/]((^/!);;-%='*+   =.+       ",
"      &#%   ..@$%_:<[[((}!!~~)-%$@&+   &&   *   ",
"      $$   +.@$%-)~<[[[[((|~~~);%$@&+  =$       ",
"      %%  +.#=%-)!^|[[12[[[]^^!{-3='.   #       ",
"      %  ..@$%-)~}([[[241[[[[(^~)%%$@+   +      ",
"         .'$%-)~^([[[455444[[[(^),%$&+*         ",
"         .#$%-~~]([[25555652[[[<);_$&++         ",
"   ..    .#%%-~!][[2556676551[[<!!>8'*+         ",
"   ..    .'%%;!][[4555900a562[(<~~-%='*         ",
"         '$%-{!([[576abcbde62[[<~~-%%#*         ",
"         %%3:/}([[47afccgbfh2((<!~>,%@+   *+    ",
"     +  &$%3:/!|2449ibjklce62[[(]!){%'+   +*    ",
"    '#  &$m3:}](2559fjjkkji621[[[!~/_'+*  *+    ",
"   +'%  '$%-)]([256dnokklpf974[([~~),#&&  +     ",
"   +&   =%-:~^[[27dbnlklqrbb94[[|!~)%$#&        ",
"   ##  #%%;/~<[[27fnqckljqbnd41[[!~),%$&+       ",
"   $  +'%%-/~<[[26dbqlklkpnb95[[[!~)%%$@+       ",
"  *   *'%%-~~<[[246dnckkkpbbd4[[(!~s3%$&+       ",
"       #$%;~~t[(265aqoklku0d65[|^!~)%%$&+       ",
"        $%;~~^((2659qjllkvb7641<~~~s_%$&+       ",
"        @$;!~!^(245inn0jcpd755[<!~~)%%8&+       ",
"       +&$;~~~~|[45adf0npg0a55[<~~ws3='*+       ",
"   &&   @$-)~~}([[456dnnbfd642[<!~):3'*++   *   ",
"   ='*  &$%_~~}|[12656drrd652[x<~/:%%#y**       ",
"    #  +&$%%-{!([[46556ad6652(]});,%$#*+        ",
"        &=%%z-!|([26655555551(!):m%%$A+         ",
"         &#%%-~!]([25555555[[(}>3%%$@.+   *     ",
"         +&#%_{:}][[1255221[x(};z%$@..   *+     ",
"         *+&$%3:~!([[[14[[[((|!-%B@y.   *+      ",
"     *    +&$%%)~![[[[[[[[(}!!/;$@..    ++      ",
"     +*    +'#_)~!^^][[(]<^!{;-_$*+     '#      ",
"      *+  +&&C%{~~~~~|(D~~!~-m%%$*     *#B      ",
"      +*  +&+C%%;w~~~!}~~~~/;%%B8&     $=       ",
"      +&   ..#%%_-;{~~~~~{{-3%#''*+   'B%       ",
"      &&    .@$%%%%;~~~!~;$z%$*y+*   +*=        ",
"      $$     &@$%$%-/~~~/;%%%8&*     +*         ",
"      %#     +&$%%%,{));-_%$$#*+                ",
"      %#&     &#$$%zm:-z$$$B#y+                 ",
"       $=&     &&'$%%,3$@**                     ",
"         &       &'##'#'&                       ",
"                  +++&..      .+                "};
