/* XPM */
static char * EC_xpm[] = {
"48 48 75 1",
" 	c #499B49",
".	c #868686",
"+	c #878787",
"@	c #818181",
"#	c #7E7E7E",
"$	c #7A7A7A",
"%	c #777777",
"&	c #848484",
"*	c #529952",
"=	c #7C7C7C",
"-	c #4A9B4A",
";	c #4E994E",
">	c #858585",
",	c #707070",
"'	c #6F6F6F",
")	c #6E6E6E",
"!	c #747474",
"~	c #4B9A4B",
"{	c #808080",
"]	c #696969",
"^	c #656565",
"/	c #676767",
"(	c #6B6B6B",
"_	c #5C5C5C",
":	c #606060",
"<	c #666666",
"[	c #595959",
"}	c #727272",
"|	c #6A6A6A",
"1	c #5E5E5E",
"2	c #585858",
"3	c #636363",
"4	c #5B5B5B",
"5	c #565656",
"6	c #555555",
"7	c #757575",
"8	c #4D994D",
"9	c #545454",
"0	c #535353",
"a	c #525252",
"b	c #505050",
"c	c #797979",
"d	c #4C4C4C",
"e	c #474747",
"f	c #4D4D4D",
"g	c #464646",
"h	c #3A3A3A",
"i	c #4A4A4A",
"j	c #4B4B4B",
"k	c #484848",
"l	c #414141",
"m	c #515151",
"n	c #494949",
"o	c #3B3B3B",
"p	c #373737",
"q	c #393939",
"r	c #787878",
"s	c #454545",
"t	c #383838",
"u	c #404040",
"v	c #434343",
"w	c #444444",
"x	c #686868",
"y	c #5F5F5F",
"z	c #3E3E3E",
"A	c #3D3D3D",
"B	c #646464",
"C	c #575757",
"D	c #888888",
"E	c #7B7B7B",
"F	c #7D7D7D",
"G	c #767676",
"H	c #519951",
"I	c #7F7F7F",
"J	c #5A5A5A",
"                    .....                       ",
"                   +.@#@.+                      ",
"                  ..@$%$@&&..                   ",
"           *     ++#$%%%$$=&+..                 ",
"        - ;     +>#=%,'),!$##@.+                ",
"         ~     .>{=%,]^//(%%%$@.>               ",
"       -      +.{=%,^_:]//(!%%$#>+              ",
"             +.#=%,<_[[:<^]'',%={>+             ",
"      -     ..@$%}|122[[3^^//],%$@&+            ",
"           +.@$%,]/12222[[4///]'%$@&+           ",
"          +.#=%,]^:42256222_::^(,7={.           ",
"      8  ..@$%,]/3[2226952222[:/]%%$@+          ",
"         .{$%,]/:[222900999222[:]!%$&+>         ",
"         .#$%,//_[2260000a062221]'}$&++         ",
"         .#%%,/^_22600aaba005221^^)c{>+         ",
"         .{%%'^_229000deef0a62[1//,%={>         ",
"         {$%,(^[220bafghgija6221//,%%#>         ",
"         %%7|<3[229bfkhhlgkm6[[1^/)!%@+         ",
"        &$%7|<^4699dngopqhja622[_^](%{+         ",
"        &$r7|3_[600dkooppona65222^/<}{+>        ",
"        {$%,]_[260aistppqukdb92[2//]!#&&        ",
"        =%,|/:226bigsqpqvwggd9224^/]%$#&        ",
"       #%%'</1226bksvhpqovgsi9522^/]!%$&+       ",
"       {%%,</1226aigvqpqpusgd0222^/]%%$@+       ",
"       {%%,//12269aishpppuggi922[^/x7%$&+       ",
"       #$%'//y2[6a0fvtpqpzeia024:^/]%%$&+       ",
"        $%'//:[[6a0dvoqqpAgba951///x}%$&+       ",
"        @$'^/^:[690nsseohuib0021^//]%%c&+       ",
"       +&$'////4290fikesulef0021//Bx7={>+       ",
"        @$,]//3[2290aissgkia9621^/]|7{>++       ",
"        &$%}//34256a0aiwwia062C1/<|%%#D>>       ",
"       +&$%%,(^[229a00afiaa06[_3]'!%$#>+        ",
"        &=%%E,^4[26aa00000005[^]|r%%$F+         ",
"         &#%%,/^_[26000000022[3)7%%$@.+         ",
"         +&#%}(|3_2256006652C[3'E%$@..          ",
"         >+&$%7|/^[22259222[[4^,%G@D.           ",
"     H    +&$%%]/^22222222[3^^<'$@..            ",
"           +{#}]/^::_22[_1:^(',}$>+             ",
"          +&&I%(/////4[J//^/,r%%$>              ",
"          +&+I%%'B///^3////<'%%Gc&              ",
"           ..#%%},'(/////((,7%#{{>+             ",
"            .@$%%%%'///^/'$E%$>D+>              ",
"             &@$%$%,<///<'%%%c&>                ",
"             +&$%%%!(]]',}%$$#>+                ",
"              &#$$%Er|,E$$$G#D+                 ",
"               &&{$%%!7$@>>                     ",
"                 &{##{#{&                       ",
"                  +++&..                        "};
