/* XPM */
static char * P,1_xpm[] = {
"48 48 78 1",
" 	c #499B49",
".	c #00E490",
"+	c #00E689",
"@	c #00D8B3",
"#	c #00D1BF",
"$	c #00CAD0",
"%	c #00C2DE",
"&	c #00E09D",
"*	c #00E296",
"=	c #00CDC8",
"-	c #00B8DD",
";	c #00B7D7",
">	c #00B3D9",
",	c #00BEDA",
"'	c #00D7B8",
")	c #00ABDB",
"!	c #00A4D3",
"~	c #00A6DF",
"{	c #00AED9",
"]	c #0096C6",
"^	c #009CD0",
"/	c #00BED9",
"(	c #00CDCD",
"_	c #00A5D9",
":	c #0092C1",
"<	c #00BADB",
"[	c #00ADDC",
"}	c #0099CD",
"|	c #008FBE",
"1	c #0091BF",
"2	c #00A0D5",
"3	c #0095C4",
"4	c #008FAB",
"5	c #008FA0",
"6	c #008FB9",
"7	c #009CCC",
"8	c #00BFDB",
"9	c #00909B",
"0	c #009084",
"a	c #008E94",
"b	c #008F7C",
"c	c #008D7B",
"d	c #00A8D8",
"e	c #008A7E",
"f	c #00C7D8",
"g	c #00837E",
"h	c #007984",
"i	c #00857F",
"j	c #007883",
"k	c #006565",
"l	c #007E7E",
"m	c #008080",
"n	c #007B81",
"o	c #006558",
"p	c #006F74",
"q	c #008B7F",
"r	c #007C82",
"s	c #006054",
"t	c #00615B",
"u	c #00C3D9",
"v	c #00C4DF",
"w	c #009178",
"x	c #005E52",
"y	c #007485",
"z	c #006E6E",
"A	c #00D1C5",
"B	c #007782",
"C	c #007277",
"D	c #007575",
"E	c #009BCA",
"F	c #0090BF",
"G	c #006A64",
"H	c #00635D",
"I	c #006868",
"J	c #008DBC",
"K	c #00A3D8",
"L	c #00D5BC",
"M	c #00B4DF",
"               ..   .....                       ",
"                   +.@#@.+                      ",
"                  ..@$%$@&&..     +*            ",
"         ...     ++#$%%%$$=&+..   **+           ",
"        @@@     +*#=%-;>-,$##@.+   *#@          ",
"       +&=     .*'=%-)!~~{%%%$@.*   %#.         ",
"       .+     +.'=%-!]^)~~{/%%$#*+   $=@        ",
"       @#    +.#(%-_]::^_!);;-%('*+   =.+       ",
"      &#%   ..@$%<[}||112!!~~)-%$@&+   &&   *   ",
"      $$   +.@$%-)~}||||::3~~~);%$@&+  =$       ",
"      %%  +.#=%-)!^3||4566|]7^!{-8='.   #       ",
"      %  ..@$%-)~21||690466||:^~)%%$@+   +      ",
"         .'$%-)~7:||6abb00a6|617)/%$&+*         ",
"         .#$%-~~]:665bbbbcb966|});<$&++         ",
"   ..    .#%%-d!]669bbccecbb4||}!_>f'*+         ",
"   ..    .'%%;!]|6abbbghhibc9|1}~~-%='*         ",
"         '$%-{!:|6becijkjlmc5||}~~-%%#*         ",
"         %%8[_2:|60einkopjnq511}!~>/%@+   *+    ",
"     +  &$%8[_!3500grjkstkmc96|1]!){u'+   +*    ",
"    '#  &$v8[2]:9wwgnkksxkrc94||1!dd<'+*  *+    ",
"   +'%  '$%-)]:|5bclytxxtznge0611~~),A&&  +     ",
"   +&   =%-[d7||5elBytxtCDjjg0663!~)%$#&        ",
"   ##  #%%;_~}||5enyCoxtkCjyla461!~),%$&+       ",
"   $  +'%%-_~}||5cljCtxtxzyjgb661!~)u%$@+       ",
"  *   *'%%-~~}6|50clyoxxxzjjla66:!d)8%$&+       ",
"       #$%;ddE6F5cwiCtxtxGhlcb63^!~)u%$&+       ",
"        $%;d~^::5cwgCkHtxIBeca4}~~~)<%$&+       ",
"        @$;!~!^:90wryyjkozlebb6}!~~)u%$&+       ",
"       +&$;~~~~36abilnhyzphibb6}~~!)8('*+       ",
"   &&   @$-)~~21660bclyyjnlc096}!~){8'*++   *   ",
"   ='*  &$%<dd23649cbclyylcb5|6}~~{u%A+**       ",
"    #  +&$%%-{!1660cbbcilccw51]2);,%$#*+        ",
"        &=%%$-!3:69ccbbbbbbb4:!){%%%$#+         ",
"         &#%%-~!]169bbbbbbb6|:2>8%%$@.+   *     ",
"         +&#%<{[2]|649bb9546J:2;$%$@..   *+     ",
"         *+&$%8[~!16664a6||1:]K-%%@+.   *+      ",
"     *    +&$%%)~!1||6666|:2!!d;$@..    ++      ",
"     +*    +'A<)~!^7]|6:]}^!{;-<$&+     '#      ",
"      *+  +&&Lu{d~~~~3:3~~!~-%%%$&     &#%      ",
"      +*  +&+L%u;!~~~!2~~~d~;%%%$&     $=       ",
"      +&   ..#%%<-;{ddddd{{-8%#''*+   '%%       ",
"      &&    .@$%%%%;~~d!~Mf$%$&++*   +*=        ",
"      $$     &@$%$%-~d~~~;%%%$&*     +*         ",
"      %#     +&$%%%,{));-<%$$#*+                ",
"      %#&     &#$$%$%{-$$$$%#++                 ",
"       $=&     &&'$%%,8$@&&                     ",
"         &       &'#A'#'&                       ",
"                  +++&..      .+                "};
