/* XPM */
static char * EO0_xpm[] = {
"48 48 119 2",
"  	c #499B49",
". 	c #3FB25E",
"+ 	c #3FB064",
"@ 	c #26C99D",
"# 	c #42A176",
"$ 	c #479D5B",
"% 	c #00E689",
"& 	c #26CF8B",
"* 	c #00B8DD",
"= 	c #00ABDB",
"- 	c #00A4D3",
"; 	c #00A6DF",
"> 	c #479C5D",
", 	c #00C2DE",
"' 	c #00D1BF",
") 	c #00E490",
"! 	c #33C473",
"~ 	c #2CCE76",
"{ 	c #0096C6",
"] 	c #009CD0",
"^ 	c #00AED9",
"/ 	c #00CAD0",
"( 	c #00CDC8",
"_ 	c #00D8B3",
": 	c #479F57",
"< 	c #499C4E",
"[ 	c #00A5D9",
"} 	c #0092C1",
"| 	c #26AFBC",
"1 	c #479E5C",
"2 	c #479D5C",
"3 	c #00ADDC",
"4 	c #0099CD",
"5 	c #008FBE",
"6 	c #0091BF",
"7 	c #00A0D5",
"8 	c #26A3C2",
"9 	c #2CCA85",
"0 	c #3FB067",
"a 	c #2CCB80",
"b 	c #439E72",
"c 	c #0095C4",
"d 	c #3FA97A",
"e 	c #008FAB",
"f 	c #008FA0",
"g 	c #008FB9",
"h 	c #009CCC",
"i 	c #479C5A",
"j 	c #429E76",
"k 	c #00909B",
"l 	c #009084",
"m 	c #3F9E85",
"n 	c #008E94",
"o 	c #008F7C",
"p 	c #479C5C",
"q 	c #479C57",
"r 	c #008D7B",
"s 	c #3FA381",
"t 	c #26A4BC",
"u 	c #008A7E",
"v 	c #3FA182",
"w 	c #00837E",
"x 	c #007984",
"y 	c #00857F",
"z 	c #499C4D",
"A 	c #007883",
"B 	c #006565",
"C 	c #007E7E",
"D 	c #008080",
"E 	c #42A377",
"F 	c #007B81",
"G 	c #006558",
"H 	c #006F74",
"I 	c #008B7F",
"J 	c #00B3D9",
"K 	c #3FA582",
"L 	c #007C82",
"M 	c #006054",
"N 	c #00615B",
"O 	c #00D7B8",
"P 	c #499B4D",
"Q 	c #009178",
"R 	c #005E52",
"S 	c #00A8D8",
"T 	c #00BADB",
"U 	c #007485",
"V 	c #006E6E",
"W 	c #00BEDA",
"X 	c #00E09D",
"Y 	c #007782",
"Z 	c #007277",
"` 	c #007575",
" .	c #3FAB76",
"..	c #2CBFA0",
"+.	c #00C3D9",
"@.	c #00BFDB",
"#.	c #009BCA",
"$.	c #0090BF",
"%.	c #006A64",
"&.	c #00635D",
"*.	c #006868",
"=.	c #3FA583",
"-.	c #3FAD72",
";.	c #00E296",
">.	c #00B7D7",
",.	c #489B4E",
"'.	c #008DBC",
").	c #479F4E",
"!.	c #00A3D8",
"~.	c #26D47B",
"{.	c #23B9C5",
"].	c #19D98E",
"^.	c #42A074",
"/.	c #26A9BD",
"(.	c #429F75",
"_.	c #3FA684",
":.	c #429D74",
"<.	c #429D77",
"[.	c #479D59",
"                                                                                                ",
"                                                                                                ",
"                                                                    .                           ",
"                                                                    +                           ",
"                @                         # $                                                   ",
"              % &                       * = - ; >                       , ' )                   ",
"              ! ~                     * - { ] = ; ; ^                     / ( _                 ",
"                :                 < * [ { } } ] [ - = |                     ( ) %               ",
"                1                 2 3 4 5 5 6 6 7 - - ; 8                     9 0       a       ",
"                                  b ; 4 5 5 5 5 } } c ; ; 8                   d                 ",
"                                = - ] c 5 5 e f g g 5 { h ] i                                   ",
"                              j ; 7 6 5 5 g k l e g g 5 5 } ] m                                 ",
"                              8 h } 5 5 g n o o l l n g 5 g 6 h p                               ",
"                            q ; { } g g f o o o o r o k g g 5 4 = s                             ",
"      ) )                   t - { g g k o o r r u r o o e 5 5 4 - [ v                           ",
"      ) )                   - { 5 g n o o o w x x y o r k 5 6 4 ; ; * z                         ",
"                          ^ - } 5 g o u r y A B A C D r f 5 5 4 ; ; * E                         ",
"                          [ 7 } 5 g l u y F B G H A F I f 6 6 4 - ; J K                         ",
"          %               [ - c f l l w L A B M N B D r k g 5 6 { - = ^ 1             +         ",
"        O '             P 7 { } k Q Q w F B B M R B L r k e 5 5 6 - S S T             %         ",
"      % O ,             q { } 5 f o r C U N R R N V F w u l g 6 6 ; ; = W                       ",
"      % X               t h 5 5 f u C Y U N R N Z ` A A w l g g c - ; = ,                       ",
"       ...              ; 4 5 5 f u F U Z G R N B Z A U C n e g 6 - ; = W                       ",
"                        ; 4 5 5 f r C A Z N R N R V U A w o g g 6 - ; = +.                      ",
"                        ; 4 g 5 f l r C U G R R R V A A C n g g } - S = @.                      ",
"                        S #.g $.f r Q y Z N R N R %.x C r o g c ] - ; = +.                      ",
"                        ; ] } } f r Q w Z B &.N R *.Y u r n e 4 ; ; ; = T                       ",
"                        8 - ] } k l Q L U U A B G V C u o o g 4 - ; ; = +.                      ",
"                          ; ; c g n o y C F x U V H x y o o g 4 ; ; - = =.                      ",
"        0                 m 7 6 g g l o r C U U A F C r l k g 4 - ; = ^ P               +       ",
"        -.;.                7 c g e k r o r C U U C r o f 5 g 4 ; ; ^ +.                        ",
"         .                  i 6 g g l r o o r y C r r Q f 6 { 7 = >.W                           ",
"                              c } g k r r o o o o o o o e } - = ^ ,                             ",
"                              i { 6 g k o o o o o o o g 5 } 7 J @.                              ",
"                              ,.7 { 5 g e k o o k f e g '.} 7 >.                                ",
"                  ).            ; - 6 g g g e n g 5 5 6 } { !.*                 ;.              ",
"                                ; - 6 5 5 g g g g 5 } 7 - - S s                 %               ",
"                                ; - ] h { 5 g } { 4 ] - ^ >.*                   O               ",
"              ~.                S ; ; ; ; c } c ; ; - ; * ,                   X ' {.            ",
"            . ].                ^.- ; ; ; - 7 ; ; ; S ; >.                    / (               ",
"            % X                     ^./.S S S S S /.(.                      -._._.              ",
"            X X                         m ; S - 8                                               ",
"            / /                           :.<.                                                  ",
"            [.                                                                                  ",
"                                                                                                ",
"                                                                                                ",
"                                                                                                ",
"                                                            ) %                                 "};
