/* XPM */
static char * M1_xpm[] = {
"48 48 6 1",
" 	c #499B49",
".	c #1B141E",
"+	c #E3C4B0",
"@	c #FDF5F1",
"#	c #E25322",
"$	c #A82424",
"                                                ",
"                                                ",
"                                                ",
"                                                ",
"                                                ",
"                                                ",
"                                                ",
"                                                ",
"                                                ",
"            ......            ......            ",
"            ......            ......            ",
"            ......            ......            ",
"         ...+++..................@@@...         ",
"         ...+++..................@@@...         ",
"         ...+++..................@@@...         ",
"      ...++++++...############...@@@@@@...      ",
"      ...++++++...############...@@@@@@...      ",
"      ...++++++...############...@@@@@@...      ",
"      ...+++##################@@@@@@@@@...      ",
"      ...+++##################@@@@@@@@@...      ",
"      ...+++##################@@@@@@@@@...      ",
"      ...#####################@@@@@@@@@...      ",
"      ...#####################@@@@@@@@@...      ",
"      ...#####################@@@@@@@@@...      ",
"      ...###@@@#########@@@######@@@+++...      ",
"      ...###@@@#########@@@######@@@+++...      ",
"      ...###@@@#########@@@######@@@+++...      ",
"   ...$$$###@@@#########@@@###############...   ",
"   ...$$$###@@@#########@@@###############...   ",
"   ...$$$###@@@#########@@@###############...   ",
"   ...########################$$$#########...   ",
"   ...########################$$$#########...   ",
"   ...########################$$$#########...   ",
"   ...$$$#####################...######$$$...   ",
"   ...$$$#####################...######$$$...   ",
"   ...$$$#####################...######$$$...   ",
"   ...$$$########################.........      ",
"   ...$$$########################.........      ",
"   ...$$$########################.........      ",
"      ......$$$$$$$$$$$$$$$$$$$$$$$$...         ",
"      ......$$$$$$$$$$$$$$$$$$$$$$$$...         ",
"      ......$$$$$$$$$$$$$$$$$$$$$$$$...         ",
"            ...###$$$...######$$$...            ",
"            ...###$$$...######$$$...            ",
"            ...###$$$...######$$$...            ",
"            .........   ............            ",
"            .........   ............            ",
"            .........   ............            "};
