/* XPM */
static char * N0_xpm[] = {
"48 48 283 2",
"  	c #499B49",
". 	c #1C192B",
"+ 	c #201D31",
"@ 	c #181424",
"# 	c #222136",
"$ 	c #2A283F",
"% 	c #302F47",
"& 	c #3D3B4E",
"* 	c #383955",
"= 	c #333249",
"- 	c #323047",
"; 	c #2B2B43",
"> 	c #3A3C5A",
", 	c #464866",
"' 	c #525471",
") 	c #5D5F79",
"! 	c #67677F",
"~ 	c #79647B",
"{ 	c #B05468",
"] 	c #D34554",
"^ 	c #E63441",
"/ 	c #F42029",
"( 	c #FB1219",
"_ 	c #FE0405",
": 	c #FB1218",
"< 	c #D24353",
"[ 	c #AF5569",
"} 	c #78647B",
"| 	c #474969",
"1 	c #4A4F74",
"2 	c #60658B",
"3 	c #757A9C",
"4 	c #A07D99",
"5 	c #E05A6B",
"6 	c #FD191F",
"7 	c #FF0000",
"8 	c #FC1A20",
"9 	c #DC5568",
"0 	c #957191",
"a 	c #1A1628",
"b 	c #23223A",
"c 	c #444665",
"d 	c #5B628B",
"e 	c #7D7AA0",
"f 	c #D6617A",
"g 	c #FE0D12",
"h 	c #FE0E14",
"i 	c #CE5672",
"j 	c #686386",
"k 	c #8B7495",
"l 	c #EE4051",
"m 	c #EB394A",
"n 	c #765D7D",
"o 	c #333553",
"p 	c #F43543",
"q 	c #F1303F",
"r 	c #796186",
"s 	c #4D5072",
"t 	c #606487",
"u 	c #7E7A9F",
"v 	c #EE4052",
"w 	c #EA3B4F",
"x 	c #686489",
"y 	c #D75F78",
"z 	c #CE556D",
"A 	c #AA809E",
"B 	c #FF0406",
"C 	c #F63F4B",
"D 	c #CE849A",
"E 	c #B39DB6",
"F 	c #A7A5BF",
"G 	c #FE070B",
"H 	c #9A6F8F",
"I 	c #757CA2",
"J 	c #898EAF",
"K 	c #EA5364",
"L 	c #F0505E",
"M 	c #ACA2BC",
"N 	c #A3A7C2",
"O 	c #A5A9C3",
"P 	c #ACA1BB",
"Q 	c #F04F5C",
"R 	c #E54F64",
"S 	c #5D6182",
"T 	c #898EB1",
"U 	c #B38EAA",
"V 	c #FD1D23",
"W 	c #B49CB5",
"X 	c #FD181E",
"Y 	c #A483A3",
"Z 	c #5C5F80",
"` 	c #989DBB",
" .	c #E0697D",
"..	c #DD7285",
"+.	c #DF7183",
"@.	c #DA697E",
"#.	c #8F93AD",
"$.	c #A5A6C1",
"%.	c #FA3039",
"&.	c #BB96AF",
"*.	c #BE94AC",
"=.	c #F83842",
"-.	c #979BBA",
";.	c #878CAF",
">.	c #7A81A8",
",.	c #8C91B3",
"'.	c #9FA3C0",
").	c #C095AC",
"!.	c #FB2A32",
"~.	c #A4A6C1",
"{.	c #FC2128",
"].	c #B993AD",
"^.	c #969BBA",
"/.	c #5D6691",
"(.	c #D77D91",
"_.	c #ED5967",
":.	c #EE5361",
"<.	c #D17C93",
"[.	c #656C96",
"}.	c #E95F70",
"|.	c #DF6F81",
"1.	c #E36C7D",
"2.	c #E35E71",
"3.	c #3C4164",
"4.	c #535A83",
"5.	c #6A719B",
"6.	c #F43B48",
"7.	c #D57C91",
"8.	c #D8798D",
"9.	c #F13E4E",
"0.	c #4C547D",
"a.	c #7E7FA2",
"b.	c #CD869C",
"c.	c #CF8399",
"d.	c #FC121A",
"e.	c #6B719B",
"f.	c #35395B",
"g.	c #3B436A",
"h.	c #4D5680",
"i.	c #856991",
"j.	c #C78FA5",
"k.	c #C98AA0",
"l.	c #745E86",
"m.	c #323759",
"n.	c #2F3352",
"o.	c #464E79",
"p.	c #4F5882",
"q.	c #92587D",
"r.	c #C191A9",
"s.	c #C48EA5",
"t.	c #845178",
"u.	c #984A6F",
"v.	c #BD95AD",
"w.	c #904A6F",
"x.	c #3F4872",
"y.	c #9B4267",
"z.	c #BC96AE",
"A.	c #BF93AB",
"B.	c #934065",
"C.	c #3E4771",
"D.	c #9E3E62",
"E.	c #BC98B0",
"F.	c #983F64",
"G.	c #414A74",
"H.	c #393F64",
"I.	c #262741",
"J.	c #9A3D61",
"K.	c #BD98AF",
"L.	c #923E63",
"M.	c #953E63",
"N.	c #BF96AE",
"O.	c #8E456B",
"P.	c #874066",
"Q.	c #BE8DA5",
"R.	c #9DA2BE",
"S.	c #BE8196",
"T.	c #7E4269",
"U.	c #70446B",
"V.	c #BB7A97",
"W.	c #BE7490",
"X.	c #64456D",
"Y.	c #524D78",
"Z.	c #FE0205",
"`.	c #BC6483",
" +	c #7980A4",
".+	c #787EA4",
"++	c #C0607E",
"@+	c #FC050D",
"#+	c #515680",
"$+	c #F11628",
"%+	c #C55272",
"&+	c #CA4E6B",
"*+	c #EC1B2F",
"=+	c #DD2740",
"-+	c #D44662",
";+	c #676E98",
">+	c #686F99",
",+	c #D8425D",
"'+	c #D82843",
")+	c #1F1D32",
"!+	c #BD3353",
"~+	c #E6364D",
"{+	c #EB3147",
"]+	c #B73556",
"^+	c #363D61",
"/+	c #924066",
"(+	c #FA1520",
"_+	c #6D709A",
":+	c #717099",
"<+	c #FC0E17",
"[+	c #894066",
"}+	c #2E314F",
"|+	c #4A4973",
"1+	c #F70E1C",
"2+	c #9B6389",
"3+	c #A25F85",
"4+	c #F41323",
"5+	c #414872",
"6+	c #D1304D",
"7+	c #D14A68",
"8+	c #D54561",
"9+	c #CC3250",
"0+	c #874268",
"a+	c #FC0E18",
"b+	c #8B678F",
"c+	c #90668D",
"d+	c #FD0810",
"e+	c #2B2D4A",
"f+	c #E2223A",
"g+	c #EB3247",
"h+	c #7C6B94",
"i+	c #7F6A93",
"j+	c #ED2F44",
"k+	c #DD2036",
"l+	c #272842",
"m+	c #873C5F",
"n+	c #FF0102",
"o+	c #F22739",
"p+	c #B95779",
"q+	c #886890",
"r+	c #716D97",
"s+	c #896890",
"t+	c #BA5678",
"u+	c #F32536",
"v+	c #FE0103",
"w+	c #7D3758",
"x+	c #CA2E4C",
"y+	c #C52A45",
"z+	c #4D3E62",
"A+	c #E91B2E",
"B+	c #E61C2E",
"C+	c #423658",
"D+	c #653A5C",
"E+	c #F11425",
"F+	c #EF1424",
"G+	c #5D314F",
"H+	c #673C5F",
"I+	c #EA1E33",
"J+	c #E8192B",
"K+	c #5D2B47",
"L+	c #4D4268",
"M+	c #CA3351",
"N+	c #FE0306",
"O+	c #FE0307",
"P+	c #C62C48",
"Q+	c #443658",
"R+	c #7C3B5C",
"S+	c #D52A3D",
"T+	c #FC060C",
"U+	c #FC070D",
"V+	c #D4293D",
"W+	c #773454",
"X+	c #572D45",
"Y+	c #A32236",
"Z+	c #CD1C2C",
"`+	c #E41320",
" @	c #F40811",
".@	c #FB0408",
"+@	c #FE0101",
"@@	c #FB0307",
"#@	c #CC192A",
"$@	c #A22236",
"%@	c #512A41",
"                                                                                                ",
"                          . . . . . . . . . . . . . + + . . . @ . . .                           ",
"                        # $ % % & & & & & & & * & & & & & & & = - ; $ #                         ",
"                      . ; > , ' ) ! ~ { ] ^ / ( _ : / ^ < [ } ! ' | > ; .                       ",
"                    @ # & 1 2 3 4 5 6 7 7 7 7 7 7 7 7 7 7 7 8 9 0 2 1 = + a                     ",
"                  + b - c d e f g 7 7 7 7 7 7 7 7 7 7 7 7 7 7 7 h i j c - b +                   ",
"                + ; * | ) k l 7 7 7 7 7 7 7 7 7 7 7 7 7 7 7 7 7 7 7 m n | * ; +                 ",
"              @ + o 1 2 k p 7 7 7 7 7 7 7 7 7 7 7 7 7 7 7 7 7 7 7 7 7 q r s * + @               ",
"            + # % | t u v 7 7 7 7 7 7 7 7 7 7 7 7 7 7 7 7 7 7 7 7 7 7 7 w x c % # +             ",
"          + ; o , ) 3 y 7 7 7 7 7 7 7 7 7 7 7 7 7 7 7 7 7 7 7 7 7 7 7 7 7 z ) , o ; +           ",
"        @ b * s t 3 A B 7 7 7 7 7 7 7 7 7 C D E F E D C 7 7 7 7 7 7 7 7 7 G H 2 ' o b @         ",
"      . # - | 2 I J K 7 7 7 7 7 7 7 7 7 L M N N O N N P Q 7 7 7 7 7 7 7 7 7 R I 2 | - # .       ",
"    # % & c S 3 T U 7 7 7 7 7 7 7 7 7 V E N N N N N N N W X 7 7 7 7 7 7 7 7 7 Y 3 Z | o ; b     ",
"  . $ > s t 3 T `  .7 7 7 7 7 7 7 7 7 ..N N N N N N N O N +.7 7 7 7 7 7 7 7 7 @.#.3 t ' > $ .   ",
"  . ; c d I J ` $.%.7 7 7 7 7 7 7 7 7 &.O N N N N N N N N *.7 7 7 7 7 7 7 7 7 =.-.;.3 d c ; .   ",
"  . ; | 2 >.,.'.).7 7 7 7 7 7 7 7 7 !.N N N N N N N N N N ~.{.7 7 7 7 7 7 7 7 7 ].^.>.2 , ; .   ",
"  . ; , /.>.,.'.(.7 7 7 7 7 7 7 7 7 _.N N N N N N O N N N N :.7 7 7 7 7 7 7 7 7 <.,.>.[.| ; .   ",
"  . ; , d I ,.` }.7 7 7 7 7 7 7 7 7 |.N N N N N N N N O N N 1.7 7 7 7 7 7 7 7 7 2.T I d c ; .   ",
"  . $ 3.4.5.>.,.6.7 7 7 7 7 7 7 7 7 7.N N N N N N N N N N N 8.7 7 7 7 7 7 7 7 7 9.>.5.4.3.; a   ",
"  a b > 0.d 5.a.G 7 7 7 7 7 7 7 7 7 b.N O N N N N N N N N N c.7 7 7 7 7 7 7 7 7 d.e.d s f.b a   ",
"  . b o g.h.d i.7 7 7 7 7 7 7 7 7 7 j.N N N N N N N N N N O k.7 7 7 7 7 7 7 7 7 7 l.h.g.m.# a   ",
"  @ # n.g.o.p.q.7 7 7 7 7 7 7 7 7 7 r.N N N N N N N N N N N s.7 7 7 7 7 7 7 7 7 7 t.o.g.n.b a   ",
"  a # n.g.o.o.u.7 7 7 7 7 7 7 7 7 7 v.N N N N N N N O N N N r.7 7 7 7 7 7 7 7 7 7 w.x.g.n.b a   ",
"  a # n.g.x.o.y.7 7 7 7 7 7 7 7 7 7 z.N N N N O N O N N N N A.7 7 7 7 7 7 7 7 7 7 B.x.C.n.# a   ",
"  a b n.g.x.x.D.7 7 7 7 7 7 7 7 7 7 E.O N N N N N N N N N O *.7 7 7 7 7 7 7 7 7 7 F.G.H.n.I.a   ",
"  a b n.g.x.x.J.7 7 7 7 7 7 7 7 7 7 K.O O O O O O O N O O O A.7 7 7 7 7 7 7 7 7 7 L.G.g.n.+ a   ",
"  a # n.C.x.o.M.7 7 7 7 7 7 7 7 7 7 N.O O O N O O N N N O O r.7 7 7 7 7 7 7 7 7 7 O.G.g.n.+ a   ",
"  a b n.g.x.o.P.7 7 7 7 7 7 7 7 7 7 Q.R.R.R.R.R.R.R.R.R.R.R.S.7 7 7 7 7 7 7 7 7 7 T.x.C.n.I.a   ",
"  a b n.g.x.x.U.7 7 7 7 7 7 7 7 7 7 V.,.,.,.,.T ,.,.,.,.,.,.W.7 7 7 7 7 7 7 7 7 7 X.x.H.n.b a   ",
"  a b n.g.x.x.Y.Z.7 7 7 7 7 7 7 7 7 `. +.+.+.+.+I .+.+.+ + +++7 7 7 7 7 7 7 7 7 @+#+x.C.n.b a   ",
"  a b n.C.x.x.x.$+7 7 7 7 7 7 7 7 7 %+5.5.5.5.5.5.5.5.5.5.5.&+7 7 7 7 7 7 7 7 7 *+x.x.C.n.b a   ",
"  a b n.C.o.x.o.=+7 7 7 7 7 7 7 7 7 -+5.;+[.;+;+;+;+;+;+>+;+,+7 7 7 7 7 7 7 7 7 '+x.x.C.n.b a   ",
"  a )+m.g.G.G.G.!+7 7 7 7 7 7 7 7 7 ~+;+;+;+;+;+;+;+;+>+;+;+{+7 7 7 7 7 7 7 7 7 ]+o.x.H.^+b a   ",
"  a b n.g.C.G.x./+7 7 7 7 7 7 7 7 7 (+_+;+5.;+5.>+>+>+>+5.:+<+7 7 7 7 7 7 7 7 7 [+x.C.H.n.)+a   ",
"  a )+}+m.H.g.x.|+1+7 7 7 7 7 7 7 7 7 2+;+5.;+;+>+>+>+>+5.3+7 7 7 7 7 7 7 7 7 4+5+H.H.^+n.+ a   ",
"    )+b I.}+^+g.G.6+7 7 7 7 7 7 7 7 7 7+5.;+5.;+>+>+>+>+5.8+7 7 7 7 7 7 7 7 7 9+C.^+}+I.I.)+    ",
"      a )+b n.H.G.0+7 7 7 7 7 7 7 7 7 a+b+>+>+>+>+>+>+>+c+d+7 7 7 7 7 7 7 7 7 T.H.n.b )+a       ",
"        a )+e+f.H.g.f+7 7 7 7 7 7 7 7 7 g+h+>+>+>+>+>+i+j+7 7 7 7 7 7 7 7 7 k+H.m.e+)+@         ",
"          . b l+n.f.m+n+7 7 7 7 7 7 7 7 7 o+p+q+r+s+t+u+7 7 7 7 7 7 7 7 7 v+w+n.l+b )+          ",
"            . )+b n.g.x+7 7 7 7 7 7 7 7 7 7 7 7 7 7 7 7 7 7 7 7 7 7 7 7 7 y+n.b )+.             ",
"              a )+l+m.z+A+7 7 7 7 7 7 7 7 7 7 7 7 7 7 7 7 7 7 7 7 7 7 7 B+C+l+)+@               ",
"                a b e+n.D+E+7 7 7 7 7 7 7 7 7 7 7 7 7 7 7 7 7 7 7 7 7 F+G+e+b .                 ",
"                  )+)+b e+H+I+7 7 7 7 7 7 7 7 7 7 7 7 7 7 7 7 7 7 7 J+K+b )+)+                  ",
"                    @ )+l+m.L+M+N+7 7 7 7 7 7 7 7 7 7 7 7 7 7 7 O+P+Q+I.)+@                     ",
"                      a # e+m.f.R+S+T+7 7 7 7 7 7 7 7 7 7 7 U+V+W+o e+# a                       ",
"                        )++ # $ ; ; X+Y+Z+`+ @.@+@@@ @`+#@$@%@; I.b + )+                        ",
"                          a a a a . . . a . . . . . . . . . . a a a a                           ",
"                                                                                                "};
