/* XPM */
static char * N1_xpm[] = {
"48 48 124 2",
"  	c #499B49",
". 	c #1C192B",
"+ 	c #201D31",
"@ 	c #181424",
"# 	c #222136",
"$ 	c #2A283F",
"% 	c #302F47",
"& 	c #3D3B4E",
"* 	c #383955",
"= 	c #333249",
"- 	c #323047",
"; 	c #2B2B43",
"> 	c #3A3C5A",
", 	c #464866",
"' 	c #525471",
") 	c #5D5F79",
"! 	c #67677F",
"~ 	c #696A81",
"{ 	c #474969",
"] 	c #4A4F74",
"^ 	c #60658B",
"/ 	c #757A9C",
"( 	c #8986A4",
"_ 	c #B28299",
": 	c #CE7284",
"< 	c #E55764",
"[ 	c #F62F33",
"} 	c #F92525",
"| 	c #A690A7",
"1 	c #8F93AD",
"2 	c #8388A6",
"3 	c #1A1628",
"4 	c #23223A",
"5 	c #574563",
"6 	c #9A577A",
"7 	c #C75C78",
"8 	c #E35062",
"9 	c #F72E32",
"0 	c #B4A2BC",
"a 	c #9FA3C0",
"b 	c #9DA2BE",
"c 	c #898EB1",
"d 	c #757CA2",
"e 	c #606487",
"f 	c #444665",
"g 	c #CC4455",
"h 	c #A5A9C3",
"i 	c #A3A7C2",
"j 	c #989DBB",
"k 	c #5D6182",
"l 	c #333553",
"m 	c #D0556C",
"n 	c #B19EB7",
"o 	c #898EAF",
"p 	c #4D5072",
"q 	c #D4637A",
"r 	c #969BBA",
"s 	c #878CAF",
"t 	c #D86D81",
"u 	c #DB7386",
"v 	c #F72F33",
"w 	c #E75C6A",
"x 	c #D57B8E",
"y 	c #BF92A9",
"z 	c #CF8196",
"A 	c #D77A8C",
"B 	c #E85E6D",
"C 	c #D37D91",
"D 	c #BE94AC",
"E 	c #A7A5BF",
"F 	c #CC859B",
"G 	c #5C5F80",
"H 	c #B2A0B8",
"I 	c #5B628B",
"J 	c #CD879C",
"K 	c #7A81A8",
"L 	c #8C91B3",
"M 	c #A8ACC7",
"N 	c #5D6691",
"O 	c #656C96",
"P 	c #3C4164",
"Q 	c #535A83",
"R 	c #6A719B",
"S 	c #4C547D",
"T 	c #7980A4",
"U 	c #9598B1",
"V 	c #35395B",
"W 	c #3B436A",
"X 	c #4D5680",
"Y 	c #686F99",
"Z 	c #323759",
"` 	c #2F3352",
" .	c #464E79",
"..	c #4F5882",
"+.	c #676E98",
"@.	c #697097",
"#.	c #3F4872",
"$.	c #686F97",
"%.	c #414A74",
"&.	c #3E4771",
"*.	c #787EA4",
"=.	c #393F64",
"-.	c #262741",
";.	c #CA8298",
">.	c #AC99B3",
",.	c #C3748F",
"'.	c #9F89A9",
").	c #BC6583",
"!.	c #91799B",
"~.	c #B75B7C",
"{.	c #876B92",
"].	c #B6597A",
"^.	c #856890",
"/.	c #1F1D32",
"(.	c #363D61",
"_.	c #A83D5E",
":.	c #694B74",
"<.	c #2E314F",
"[.	c #65456D",
"}.	c #66476F",
"|.	c #2B2D4A",
"1.	c #272842",
"2.	c #A83F60",
"3.	c #623D60",
"                                                                                                ",
"                          . . . . . . . . . . . . . + + . . . @ . . .                           ",
"                        # $ % % & & & & & & & * & & & & & & & = - ; $ #                         ",
"                      . ; > , ' ) ! ! ! ~ ~ ! ~ ! ! ! ~ ! ! ! ! ' { > ; .                       ",
"                    @ # & ] ^ / ( _ : < [ } } } } } } } } | 1 2 / ^ ] = + 3                     ",
"                  + 4 - 5 6 7 8 9 } } } } } } } } } } } } 0 a b c d e f - 4 +                   ",
"                + ; * { g } } } } } } } } } } } } } } } } 0 h i j c / k { * ; +                 ",
"              @ + l ] ^ m } } } } } } } } } } } } } } } } n i i i j o / ^ p * + @               ",
"            + # % { e d q } } } } } } } } } } } } } } } } n i h h i r s d ^ f % # +             ",
"          + ; l , ) / c t } } } } } } } } } } } } } } } } n i h h h a r c / ) , l ; +           ",
"        @ 4 * p e / o j u } } } v w x y z } } } } } } } } n i i i i i i j s / ^ ' l 4 @         ",
"      . # - { ^ d o j i A B C D E i i i F } } } } } } } } n i i i i i h i r c d ^ { - # .       ",
"    # % & f k / c j i i h i i i i i i h F } } } } } } } } n i i i i h h h a r c / G { l ; 4     ",
"  . $ > p e / c j a i i h i i i i i i i F } } } } } } } } H i i i i i h i i a r 1 / e ' > $ .   ",
"  . ; f I d o j i h i i i i i i i i i i J } } } } } } } } n i i i i i i i i i i r s / I f ; .   ",
"  . ; { ^ K L a h h h i i i i i i i i i F } } } } } } } } n i i i i i i i h M h a r K ^ , ; .   ",
"  . ; , N K L a h h h i i i i i i i h i F } } } } } } } } n i i i i i i i h h h a L K O { ; .   ",
"  . ; , I d L j i h i i i i i i i i i i F } } } } } } } } n h i i i i i i i i i j c d I f ; .   ",
"  . $ P Q R K L r b i i h h i h i i i i F } } } } } } } } n i i i i h i h i b r L K R Q P ; 3   ",
"  3 4 > S I R T s r b i h h i i h i i i J } } } } } } } } n i i i i h h h b U s T R I p V 4 3   ",
"  . 4 l W X I Y d o r i h h i i i i h i F } } } } } } } } H i i i i h i i r o d Y I X W Z # 3   ",
"  @ # ` W  ...I +.T 1 r b b i h h i i i F } } } } } } } } n i h h i i b r L T +.I .. .W ` 4 3   ",
"  3 # ` W  . .X I @.d s r b h h h i i i F } } } } } } } } n i h h i b r o d @.I ..S #.W ` 4 3   ",
"  3 # ` W #. . .S I Y d s r i h i i i i F } } } } } } } } n i i h i r o d $.I S  .%.#.&.` # 3   ",
"  3 4 ` W #.#.%. .S I +.*.L r a b i h h F } } } } } } } } H i i a r c d $.I S  .#.%.%.=.` -.3   ",
"  3 4 ` W #.#.#.%. .X I @.d o r b h h h J } } } } } } } } H i b r c T R I X  .%.#.#.%.W ` + 3   ",
"  3 # ` &.#. .#.%.%. .S I @.d s r i h h J } } } } } } } } H i b s d Y Q S  .%.%.%. .%.W ` + 3   ",
"  3 4 ` W #. .#.%.#.#. .S I $.*.1 r b b ;.} } } } } } } } >.U 1 *.+.N .. .%.&.%.#.#.#.&.` -.3   ",
"  3 4 ` W #.#.#.#.&.#.%. .X I $.T s L L ,.} } } } } } } } '.o T Y N X  . .#.#.#.#.#.#.=.` 4 3   ",
"  3 4 ` W #.#. .%.&.#.%.%. .S I $.d *.T ).} } } } } } } } !.d @.Q X  .%.#.#.#.#.#.X #.&.` 4 3   ",
"  3 4 ` &.#.#.#.&.%.%.#.#.%. .X I +.R R ~.} } } } } } } } {.$.I .. .#.#.#.#.#.#.#.#.#.&.` 4 3   ",
"  3 4 ` &. .#. .%.%.#.%.&.&.%.X I O +.R ].} } } } } } } } ^.O I X  .#.#.#.#.#. .#.#.#.&.` 4 3   ",
"  3 /.Z W %.%.%.#.%.%.#.#.#.%.X I O +.+.].} } } } } } } } ^.+.I X %.&.#.#.#.#.#.#. .#.=.(.4 3   ",
"  3 4 ` W &.%.#.%.#.#.%._.} } } } } } } } } } } } } } } } } } } } } } } } :.#. .#.#.&.=.` /.3   ",
"  3 /.<.Z =.W #.%.#.#.%._.} } } } } } } } } } } } } } } } } } } } } } } } [.#.#.#.=.=.(.` + 3   ",
"    /.4 -.<.(.W %. .%.#._.} } } } } } } } } } } } } } } } } } } } } } } } [. . .&.(.<.-.-./.    ",
"      3 /.4 ` =.%.%.#.%._.} } } } } } } } } } } } } } } } } } } } } } } } }. .#.=.` 4 /.3       ",
"        3 /.|.V =.W #.#._.} } } } } } } } } } } } } } } } } } } } } } } } [.=.=.Z |./.@         ",
"          . 4 1.` V W %.2.} } } } } } } } } } } } } } } } } } } } } } } } 3.(.` 1.4 /.          ",
"            . /.4 ` W #.#.#.%.X I +.R R Y Y Y Y Y Y Y Y Y R +.I X  .%.#.&.=.` 4 /..             ",
"              3 /.1.Z =.W &.%.X N +.Y R R R R R R R R R R R +.I .. .&.W P Z 1./.@               ",
"                3 4 |.` (.W %...N Y R R R R R R R R R R R R Y N ..%.=.(.` |.4 .                 ",
"                  /./.4 |.=.%.Q ^ Y R R R Y Y R R R R R R R $.^ ..%.(.|.4 /./.                  ",
"                    @ /.1.Z W  .Q ^ ^ ^ O N ^ ^ N ^ N ^ ^ O I S  .W Z -./.@                     ",
"                      3 # |.Z V P , , , , , , , { { { { { { , f V l |.# 3                       ",
"                        /.+ # $ ; ; % ; % % ; % ; ; ; % ; ; ; ; -.4 + /.                        ",
"                          3 3 3 3 . . . 3 . . . . . . . . . . 3 3 3 3                           ",
"                                                                                                "};
