/* XPM */
static char * N2_xpm[] = {
"48 48 198 2",
"  	c #499B49",
". 	c #1C192B",
"+ 	c #201D31",
"@ 	c #181424",
"# 	c #222136",
"$ 	c #2A283F",
"% 	c #302F47",
"& 	c #3D3B4E",
"* 	c #383955",
"= 	c #333249",
"- 	c #323047",
"; 	c #2B2B43",
"> 	c #3A3C5A",
", 	c #464866",
"' 	c #525471",
") 	c #5D5F79",
"! 	c #67677F",
"~ 	c #696A81",
"{ 	c #474969",
"] 	c #4A4F74",
"^ 	c #60658B",
"/ 	c #79799B",
"( 	c #A47C97",
"_ 	c #C6748A",
": 	c #D9687A",
"< 	c #E55767",
"[ 	c #F1434F",
"} 	c #F7313B",
"| 	c #FB232B",
"1 	c #FE0C10",
"2 	c #FC1E25",
"3 	c #F1404C",
"4 	c #E25A6A",
"5 	c #CF7285",
"6 	c #B5879E",
"7 	c #8F93AD",
"8 	c #8388A6",
"9 	c #757A9C",
"0 	c #1A1628",
"a 	c #23223A",
"b 	c #80405C",
"c 	c #BE4969",
"d 	c #E54156",
"e 	c #FC171F",
"f 	c #FF0000",
"g 	c #F4424F",
"h 	c #D17B91",
"i 	c #8D8CAF",
"j 	c #757CA2",
"k 	c #606487",
"l 	c #444665",
"m 	c #714563",
"n 	c #F24351",
"o 	c #AC7F9E",
"p 	c #5D6182",
"q 	c #333553",
"r 	c #7F6084",
"s 	c #FC1C24",
"t 	c #B37B98",
"u 	c #4D5072",
"v 	c #8D759A",
"w 	c #A480A1",
"x 	c #9C87A8",
"y 	c #EB4F60",
"z 	c #898EB1",
"A 	c #898EAF",
"B 	c #A895B1",
"C 	c #F9333D",
"D 	c #DE7083",
"E 	c #C58DA5",
"F 	c #B19EB7",
"G 	c #A6A5C0",
"H 	c #A9A3BE",
"I 	c #B899B1",
"J 	c #D57D92",
"K 	c #F8343E",
"L 	c #B98AA4",
"M 	c #878CAF",
"N 	c #989DBB",
"O 	c #B09EB8",
"P 	c #F44551",
"Q 	c #CC879D",
"R 	c #A5A6C1",
"S 	c #A3A7C2",
"T 	c #A5A9C3",
"U 	c #ADA1BB",
"V 	c #ED5564",
"W 	c #DD7185",
"X 	c #969BBA",
"Y 	c #F9323B",
"Z 	c #A4A6C1",
"` 	c #ABA2BC",
" .	c #F83741",
"..	c #F14E5B",
"+.	c #9FA3C0",
"@.	c #5C5F80",
"#.	c #B09FB9",
"$.	c #E26C7E",
"%.	c #ACA2BC",
"&.	c #D58094",
"*.	c #F83640",
"=.	c #5B628B",
"-.	c #B998B0",
";.	c #FE151A",
">.	c #7A81A8",
",.	c #8C91B3",
"'.	c #AF9FB9",
").	c #FA2D35",
"!.	c #A8ACC7",
"~.	c #5D6691",
"{.	c #F0505E",
"].	c #656C96",
"^.	c #D0869A",
"/.	c #DC7487",
"(.	c #3C4164",
"_.	c #535A83",
":.	c #6A719B",
"<.	c #9DA2BE",
"[.	c #F14D5B",
"}.	c #BB99B1",
"|.	c #4C547D",
"1.	c #7980A4",
"2.	c #CF849A",
"3.	c #E96070",
"4.	c #9598B1",
"5.	c #35395B",
"6.	c #3B436A",
"7.	c #4D5680",
"8.	c #686F99",
"9.	c #FC252C",
"0.	c #FB272E",
"a.	c #B39DB6",
"b.	c #323759",
"c.	c #2F3352",
"d.	c #464E79",
"e.	c #4F5882",
"f.	c #676E98",
"g.	c #B59BB4",
"h.	c #FF0507",
"i.	c #C88BA2",
"j.	c #697097",
"k.	c #BC95AE",
"l.	c #D47E93",
"m.	c #3F4872",
"n.	c #C78CA3",
"o.	c #FD1F26",
"p.	c #D97A8E",
"q.	c #686F97",
"r.	c #414A74",
"s.	c #3E4771",
"t.	c #787EA4",
"u.	c #D28095",
"v.	c #FE0A0E",
"w.	c #D8798E",
"x.	c #393F64",
"y.	c #262741",
"z.	c #A6A8C2",
"A.	c #DF7284",
"B.	c #D18197",
"C.	c #AAA6C0",
"D.	c #E86272",
"E.	c #FD181E",
"F.	c #CB8BA1",
"G.	c #A394B2",
"H.	c #EF4D5B",
"I.	c #FA2B34",
"J.	c #BC8EA7",
"K.	c #9A7697",
"L.	c #F43342",
"M.	c #F43745",
"N.	c #A586A6",
"O.	c #9B567A",
"P.	c #F81A27",
"Q.	c #EA3C50",
"R.	c #8A799E",
"S.	c #A93F62",
"T.	c #FD0710",
"U.	c #DD415B",
"V.	c #746F98",
"W.	c #BD3353",
"X.	c #FF0102",
"Y.	c #CE4A68",
"Z.	c #696E97",
"`.	c #1F1D32",
" +	c #484771",
".+	c #D02C48",
"++	c #FE060C",
"@+	c #BB5577",
"#+	c #363D61",
"$+	c #884268",
"%+	c #91446B",
"&+	c #2E314F",
"*+	c #8F3F64",
"=+	c #874066",
"-+	c #8F4166",
";+	c #2B2D4A",
">+	c #272842",
",+	c #8D3758",
"                                                                                                ",
"                          . . . . . . . . . . . . . + + . . . @ . . .                           ",
"                        # $ % % & & & & & & & * & & & & & & & = - ; $ #                         ",
"                      . ; > , ' ) ! ! ! ~ ~ ! ~ ! ! ! ~ ! ! ! ! ' { > ; .                       ",
"                    @ # & ] ^ / ( _ : < [ } | 1 2 } 3 4 5 6 7 8 9 ^ ] = + 0                     ",
"                  + a - b c d e f f f f f f f f f f f f f f g h i j k l - a +                   ",
"                + ; * m f f f f f f f f f f f f f f f f f f f f n o 9 p { * ; +                 ",
"              @ + q ] r f f f f f f f f f f f f f f f f f f f f f s t 9 ^ u * + @               ",
"            + # % { k v f f f f f f f f f f f f f f f f f f f f f f s w j ^ l % # +             ",
"          + ; q , ) 9 x f f f f f f f f f f f f f f f f f f f f f f f y z 9 ) , q ; +           ",
"        @ a * u k 9 A B f f f f f C D E F G H I J K f f f f f f f f f f L M 9 ^ ' q a @         ",
"      . # - { ^ j A N O f f f P Q R S S S S S S T U V f f f f f f f f f W X z j ^ { - # .       ",
"    # % & l p 9 z N S O f Y Q Z S S S T S S S S S S `  .f f f f f f f f ..+.X z 9 @.{ q ; a     ",
"  . $ > u k 9 z N +.S #.$.%.S S S S S S S S S S S S S &.f f f f f f f f *.S +.X 7 9 k ' > $ .   ",
"  . ; l =.j A N S T S S S S S S S S S S T S S S S S S -.f f f f f f f f ;.S S S X M 9 =.l ; .   ",
"  . ; { ^ >.,.+.T T T S S S S S S S S S S S S S S S S '.f f f f f f f f ).T !.T +.X >.^ , ; .   ",
"  . ; , ~.>.,.+.T T T S S S S S S S T S S S S S S T S -.f f f f f f f f {.T T T +.,.>.].{ ; .   ",
"  . ; , =.j ,.N S T S S S S S S S S S S S S S S S S S ^.f f f f f f f f /.S S S N z j =.l ; .   ",
"  . $ (._.:.>.,.X <.S S T T S T S S S S S S S S S S S [.f f f f f f f f }.S <.X ,.>.:._.(.; 0   ",
"  0 a > |.=.:.1.M X <.S T T S S T S S S T S S S S S 2.f f f f f f f f 3.T <.4.M 1.:.=.u 5.a 0   ",
"  . a q 6.7.=.8.j A X S T T S S S S T S S S S S S -.9.f f f f f f f 0.a.S X A j 8.=.7.6.b.# 0   ",
"  @ # c.6.d.e.=.f.1.7 X <.<.S T T S S S S S S S g.Y f f f f f f f h.i.<.X ,.1.f.=.e.d.6.c.a 0   ",
"  0 # c.6.d.d.7.=.j.j M X <.T T T S S S S S S k.Y f f f f f f f f l.<.X A j j.=.e.|.m.6.c.a 0   ",
"  0 # c.6.m.d.d.|.=.8.j M X S T S S S S S S n.o.f f f f f f f f p.S X A j q.=.|.d.r.m.s.c.# 0   ",
"  0 a c.6.m.m.r.d.|.=.f.t.,.X +.<.S T T S u.v.f f f f f f f f w.+.X z j q.=.|.d.m.r.r.x.c.y.0   ",
"  0 a c.6.m.m.m.r.d.7.=.j.j A X <.T T z.A.f f f f f f f f h.B.<.X z 1.:.=.7.d.r.m.m.r.6.c.+ 0   ",
"  0 # c.s.m.d.m.r.r.d.|.=.j.j M X S C.D.f f f f f f f f E.F.S <.M j 8._.|.d.r.r.r.d.r.6.c.+ 0   ",
"  0 a c.6.m.d.m.r.m.m.d.|.=.q.t.7 G.H.f f f f f f f f I.J.<.4.7 t.f.~.e.d.r.s.r.m.m.m.s.c.y.0   ",
"  0 a c.6.m.m.m.m.s.m.r.d.7.=.q.K.L.f f f f f f f f M.N.,.,.A 1.8.~.7.d.d.m.m.m.m.m.m.x.c.a 0   ",
"  0 a c.6.m.m.d.r.s.m.r.r.d.|.O.P.f f f f f f f f Q.R.t.1.1.j j._.7.d.r.m.m.m.m.m.7.m.s.c.a 0   ",
"  0 a c.s.m.m.m.s.r.r.m.m.r.S.T.f f f f f f f f U.V.:.:.:.:.q.=.e.d.m.m.m.m.m.m.m.m.m.s.c.a 0   ",
"  0 a c.s.d.m.d.r.r.m.r.s.W.X.f f f f f f f f Y.Z.f.f.f.8.f.].=.7.d.m.m.m.m.m.d.m.m.m.s.c.a 0   ",
"  0 `.b.6.r.r.r.m.r.r. +.+f f f f f f f f ++@+f.f.f.f.8.f.f.f.=.7.r.s.m.m.m.m.m.m.d.m.x.#+a 0   ",
"  0 a c.6.s.r.m.r.m.m.$+f f f f f f f f f f f f f f f f f f f f f f f f f %+m.d.m.m.s.x.c.`.0   ",
"  0 `.&+b.x.6.m.r.m.m.$+f f f f f f f f f f f f f f f f f f f f f f f f f *+m.m.m.x.x.#+c.+ 0   ",
"    `.a y.&+#+6.r.d.r.=+f f f f f f f f f f f f f f f f f f f f f f f f f *+d.d.s.#+&+y.y.`.    ",
"      0 `.a c.x.r.r.m.$+f f f f f f f f f f f f f f f f f f f f f f f f f -+d.m.x.c.a `.0       ",
"        0 `.;+5.x.6.m.=+f f f f f f f f f f f f f f f f f f f f f f f f f *+x.x.b.;+`.@         ",
"          . a >+c.5.6.$+f f f f f f f f f f f f f f f f f f f f f f f f f ,+#+c.>+a `.          ",
"            . `.a c.6.=+f f f f f f f f f f f f f f f f f f f f f f f f f ,+c.a `..             ",
"              0 `.>+b.x.6.s.r.7.~.f.8.:.:.:.:.:.:.:.:.:.:.:.f.=.e.d.s.6.(.b.>+`.@               ",
"                0 a ;+c.#+6.r.e.~.8.:.:.:.:.:.:.:.:.:.:.:.:.8.~.e.r.x.#+c.;+a .                 ",
"                  `.`.a ;+x.r._.^ 8.:.:.:.8.8.:.:.:.:.:.:.:.q.^ e.r.#+;+a `.`.                  ",
"                    @ `.>+b.6.d._.^ ^ ^ ].~.^ ^ ~.^ ~.^ ^ ].=.|.d.6.b.y.`.@                     ",
"                      0 # ;+b.5.(., , , , , , , { { { { { { , l 5.q ;+# 0                       ",
"                        `.+ # $ ; ; % ; % % ; % ; ; ; % ; ; ; ; y.a + `.                        ",
"                          0 0 0 0 . . . 0 . . . . . . . . . . 0 0 0 0                           ",
"                                                                                                "};
