/* XPM */
static char * N3_xpm[] = {
"48 48 239 2",
"  	c #499B49",
". 	c #1C192B",
"+ 	c #49182A",
"@ 	c #871525",
"# 	c #AF111F",
"$ 	c #C70E1A",
"% 	c #D70A16",
"& 	c #E60710",
"* 	c #F1040A",
"= 	c #F60306",
"- 	c #FB0103",
"; 	c #FE0001",
"> 	c #FD0102",
", 	c #FA0103",
"' 	c #F4040A",
") 	c #EC0710",
"! 	c #DE0913",
"~ 	c #CD0C19",
"{ 	c #B2111F",
"] 	c #89101F",
"^ 	c #37192A",
"/ 	c #719345",
"( 	c #AA7E3A",
"_ 	c #CF1220",
": 	c #EF0A14",
"< 	c #FF0000",
"[ 	c #FC0307",
"} 	c #DB1523",
"| 	c #A11F33",
"1 	c #322136",
"2 	c #F72B0F",
"3 	c #F20913",
"4 	c #A31221",
"5 	c #F70204",
"6 	c #D70814",
"7 	c #5A9848",
"8 	c #201D31",
"9 	c #F7040A",
"0 	c #E20A15",
"a 	c #549948",
"b 	c #2B2B43",
"c 	c #F70A14",
"d 	c #C7101F",
"e 	c #181424",
"f 	c #333553",
"g 	c #F7121E",
"h 	c #6E1221",
"i 	c #222136",
"j 	c #302F47",
"k 	c #474969",
"l 	c #F71924",
"m 	c #C51423",
"n 	c #464866",
"o 	c #5D5F79",
"p 	c #F8202C",
"q 	c #F5414C",
"r 	c #E36B7C",
"s 	c #D18197",
"t 	c #BE94AC",
"u 	c #B39CB6",
"v 	c #ABA2BC",
"w 	c #A4A6C1",
"x 	c #A9A3BE",
"y 	c #B19EB7",
"z 	c #C191A9",
"A 	c #D9788C",
"B 	c #F4434F",
"C 	c #ED111F",
"D 	c #23223A",
"E 	c #383955",
"F 	c #4D5072",
"G 	c #606487",
"H 	c #757A9C",
"I 	c #F92732",
"J 	c #F63D48",
"K 	c #D9788B",
"L 	c #B998B1",
"M 	c #A5A9C3",
"N 	c #A3A7C2",
"O 	c #CF849A",
"P 	c #FD1D23",
"Q 	c #FE0306",
"R 	c #323047",
"S 	c #60658B",
"T 	c #757CA2",
"U 	c #898EAF",
"V 	c #E95567",
"W 	c #CA899F",
"X 	c #A7A8C2",
"Y 	c #C68DA4",
"Z 	c #3D3B4E",
"` 	c #444665",
" .	c #5D6182",
"..	c #898EB1",
"+.	c #989DBB",
"@.	c #EF5260",
"#.	c #5C5F80",
"$.	c #2A283F",
"%.	c #3A3C5A",
"&.	c #9FA3C0",
"*.	c #DE7385",
"=.	c #525471",
"-.	c #5B628B",
";.	c #DF7082",
">.	c #F63643",
",.	c #878CAF",
"'.	c #7A81A8",
").	c #8C91B3",
"!.	c #F04F5D",
"~.	c #E26679",
"{.	c #969BBA",
"].	c #5D6691",
"^.	c #BC90AA",
"/.	c #656C96",
"(.	c #CF869B",
"_.	c #FC2128",
":.	c #E86172",
"<.	c #3C4164",
"[.	c #535A83",
"}.	c #6A719B",
"|.	c #9DA2BE",
"1.	c #A6A5C0",
"2.	c #B69AB3",
"3.	c #C58EA5",
"4.	c #DB7588",
"5.	c #F5404C",
"6.	c #F4414D",
"7.	c #A295B3",
"8.	c #1A1628",
"9.	c #4C547D",
"0.	c #7980A4",
"a.	c #B09EB8",
"b.	c #EF4E5D",
"c.	c #A391A9",
"d.	c #35395B",
"e.	c #3B436A",
"f.	c #4D5680",
"g.	c #686F99",
"h.	c #F8343E",
"i.	c #D37F94",
"j.	c #989AB9",
"k.	c #323759",
"l.	c #2F3352",
"m.	c #464E79",
"n.	c #4F5882",
"o.	c #676E98",
"p.	c #8F93AD",
"q.	c #B2A0B9",
"r.	c #FF0507",
"s.	c #E66374",
"t.	c #CA89A0",
"u.	c #A1A0BC",
"v.	c #697097",
"w.	c #FA2E37",
"x.	c #E0697C",
"y.	c #B18CA9",
"z.	c #3F4872",
"A.	c #E0475F",
"B.	c #85698F",
"C.	c #414A74",
"D.	c #3E4771",
"E.	c #787EA4",
"F.	c #AD9BB6",
"G.	c #F81725",
"H.	c #9E476A",
"I.	c #393F64",
"J.	c #262741",
"K.	c #A693B1",
"L.	c #FD060E",
"M.	c #9A3E63",
"N.	c #9B85A6",
"O.	c #FA0A15",
"P.	c #74456D",
"Q.	c #686F97",
"R.	c #9EA2BE",
"S.	c #A39FBA",
"T.	c #A99CB6",
"U.	c #B692AC",
"V.	c #C7859C",
"W.	c #DF6A7D",
"X.	c #F8353F",
"Y.	c #DE253E",
"Z.	c #8F90B2",
"`.	c #C4738F",
" +	c #F92833",
".+	c #957899",
"++	c #F42C3B",
"@+	c #A16388",
"#+	c #EB3045",
"$+	c #1F1D32",
"%+	c #CF4A67",
"&+	c #363D61",
"*+	c #C45070",
"=+	c #2E314F",
"-+	c #CE4967",
";+	c #E93248",
">+	c #9D6288",
",+	c #2B2D4A",
"'+	c #DD2036",
")+	c #B8314F",
"!+	c #63456E",
"~+	c #886890",
"{+	c #F2283A",
"]+	c #272842",
"^+	c #EF0E1C",
"/+	c #FC040B",
"(+	c #D82944",
"_+	c #AA3B5D",
":+	c #64456D",
"<+	c #6A6F98",
"[+	c #B35A7D",
"}+	c #F7202F",
"|+	c #EF0711",
"1+	c #FE0204",
"2+	c #E81F35",
"3+	c #CF3753",
"4+	c #B84B6C",
"5+	c #A06085",
"6+	c #8D6990",
"7+	c #816C95",
"8+	c #6F6E97",
"9+	c #7B6B94",
"0+	c #8F668E",
"a+	c #AD5C80",
"b+	c #CE4B69",
"c+	c #F22738",
"d+	c #EF060E",
"e+	c #C90A15",
"f+	c #EF040A",
"g+	c #F10409",
"h+	c #659647",
"i+	c #F03C18",
"j+	c #F90206",
"k+	c #8A8C41",
"l+	c #F50205",
"m+	c #8D8B41",
"n+	c #DD0712",
"o+	c #E80812",
"p+	c #991729",
"                                                                                                ",
"                          . + @ # $ % & * = - ; > , ' ) ! ~ { ] ^ . .                           ",
"                    / ( _ : < < < < < < < < < < < < < < < < < < [ } | 1                         ",
"                    2 < < < < < < < < < < < < < < < < < < < < < < < < 3 4                       ",
"                    5 < < < < < < < < < < < < < < < < < < < < < < < < < < 6 7                   ",
"                  8 9 < < < < < < < < < < < < < < < < < < < < < < < < < < < 0 a                 ",
"                8 b c < < < < < < < < < < < < < < < < < < < < < < < < < < < < d                 ",
"              e 8 f g < < < < < < < < < < < < < < < < < < < < < < < < < < < < ; h               ",
"            8 i j k l < < < < < < < < < < < < < < < < < < < < < < < < < < < < < m 8             ",
"          8 b f n o p < < < < q r s t u v w x y z A B < < < < < < < < < < < < < C b 8           ",
"        e D E F G H I < J K L M N N N N N N N N N N w O P < < < < < < < < < < < Q f D e         ",
"      . i R k S T U V W X N N N N N N N N N N N M N N N Y < < < < < < < < < < < < k R i .       ",
"    i j Z `  .H ..+.N N M N N N N N N M N N N N N N N N N @.< < < < < < < < < < < #.k f b D     ",
"  . $.%.F G H ..+.&.N N M N N N N N N N N N N N N N N M N *.< < < < < < < < < < < H G =.%.$..   ",
"  . b ` -.T U +.N M N N N N N N N N N N M N N N N N N N N ;.< < < < < < < < < < >.,.H -.` b .   ",
"  . b k S '.).&.M M M N N N N N N N N N N N N N N N N N N !.< < < < < < < < < < ~.{.'.S n b .   ",
"  . b n ].'.).&.M M M N N N N N N N M N N N N N N M N N Y < < < < < < < < < < < ^.).'./.k b .   ",
"  . b n -.T ).+.N M N N N N N N N N N N N N N N N N w (._.< < < < < < < < < < :.+...T -.` b .   ",
"  . $.<.[.}.'.).{.|.N N M M N M N N N N N 1.v 2.3.4.5.< < < < < < < < < < < 6.7.).'.}.[.<.b 8.  ",
"  8.D %.9.-.}.0.,.{.|.N M M N a.< < < < < < < < < < < < < < < < < < < < < b.c.,.0.}.-.F d.D 8.  ",
"  . D f e.f.-.g.T U {.N M M N a.< < < < < < < < < < < < < < < < < < < h.i.j.U T g.-.f.e.k.i 8.  ",
"  e i l.e.m.n.-.o.0.p.{.|.|.N q.< < < < < < < < < < < < < < < < r.s.t.u.{.).0.o.-.n.m.e.l.D 8.  ",
"  8.i l.e.m.m.f.-.v.T ,.{.|.M q.< < < < < < < < < < < < < < < < < w.x.y.U T v.-.n.9.z.e.l.D 8.  ",
"  8.i l.e.z.m.m.9.-.g.T ,.{.N q.< < < < < < < < < < < < < < < < < < < < A.B.-.9.m.C.z.D.l.i 8.  ",
"  8.D l.e.z.z.C.m.9.-.o.E.).{.F.< < < < < < < < < < < < < < < < < < < < < G.H.m.z.C.C.I.l.J.8.  ",
"  8.D l.e.z.z.z.C.m.f.-.v.T U K.< < < < < < < < < < < < < < < < < < < < < < L.M.z.z.C.e.l.8 8.  ",
"  8.i l.D.z.m.z.C.C.m.9.-.v.T N.< < < < < < < < < < < < < < < < < < < < < < < O.P.m.C.e.l.8 8.  ",
"  8.D l.e.z.m.z.C.z.z.m.9.-.Q.E.p.{.|.|.R.S.T.U.V.W.X.< < < < < < < < < < < < < Y.z.z.D.l.J.8.  ",
"  8.D l.e.z.z.z.z.D.z.C.m.f.-.Q.0.,.).).).).)...).).Z.`. +< < < < < < < < < < < < z.z.I.l.D 8.  ",
"  8.D l.e.z.z.m.C.D.z.C.C.m.9.-.Q.T E.0.E.E.E.E.T E.E.E..+++< < < < < < < < < < < f.z.D.l.D 8.  ",
"  8.D l.D.z.z.z.D.C.C.z.z.C.m.f.-.o.}.}.}.}.}.}.}.}.}.}.}.@+< < < < < < < < < < < z.z.D.l.D 8.  ",
"  8.D l.D.m.z.m.C.C.z.C.D.D.C.f.-./.o.}.o./.o.o.o.o.o.o.g.o.#+< < < < < < < < < < z.z.D.l.D 8.  ",
"  8.$+k.e.C.C.C.z.C.C.z.z.z.C.f.-./.o.o.o.o.o.o.o.o.o.g.o.o.%+< < < < < < < < < < m.z.I.&+D 8.  ",
"  8.D l.e.D.C.z.C.z.z.C.z.z.m.f.-./.o.}.o.}.o.}.g.g.g.g.}.}.*+< < < < < < < < < < z.D.I.l.$+8.  ",
"  8.$+=+k.I.e.z.C.z.z.C.z.z.C.f.-./.}.g.o.}.o.o.g.g.g.g.}.o.-+< < < < < < < < < < I.I.&+l.8 8.  ",
"    $+D J.=+&+e.C.m.C.z.z.z.C.f.-./.g.}.}.o.}.o.g.g.g.g.}.o.;+< < < < < < < < < < &+=+J.J.$+    ",
"      8.$+D l.I.C.C.z.C.z.z.m.f.-./.o.}.g.g.g.g.g.g.g.g.g.>+< < < < < < < < < < < l.D $+8.      ",
"        8.$+,+d.'+)+!+z.z.z.C.f.-./.}.o.g.g.g.g.g.g.g.g.~+{+< < < < < < < < < < < ,+$+e         ",
"          . D ]+^+< /+(+_+:+m.f.-.o.g.}.g.g.g.g.g.g.<+[+}+< < < < < < < < < < < < D $+          ",
"            . $+|+< < < < 1+2+3+4+5+6+7+8+8+9+0+a+b+c+< < < < < < < < < < < < < > .             ",
"              8.d+< < < < < < < < < < < < < < < < < < < < < < < < < < < < < < < e+              ",
"                f+< < < < < < < < < < < < < < < < < < < < < < < < < < < < < < g+h+              ",
"                i+< < < < < < < < < < < < < < < < < < < < < < < < < < < < < j+k+                ",
"                i+< < < < < < < < < < < < < < < < < < < < < < < < < < < < l+m+                  ",
"                i+< < < < < < < < < < < < < < < < < < < < < < < < < < < n+/                     ",
"                i+< < < < < < < < < < < < < < < < < < < < < < < < < o+p+                        ",
"                          8.8.8.8.. . . 8.. . . . . . . . . . 8.8.8.8.                          ",
"                                                                                                "};
