/* XPM */
static char * N4_xpm[] = {
"48 48 165 2",
"  	c #499B49",
". 	c #1C192B",
"+ 	c #201D31",
"@ 	c #181424",
"# 	c #222136",
"$ 	c #2A283F",
"% 	c #302F47",
"& 	c #3D3B4E",
"* 	c #383955",
"= 	c #333249",
"- 	c #323047",
"; 	c #2B2B43",
"> 	c #3A3C5A",
", 	c #464866",
"' 	c #525471",
") 	c #5D5F79",
"! 	c #67677F",
"~ 	c #696A81",
"{ 	c #C14F61",
"] 	c #FF0000",
"^ 	c #CC2F45",
"/ 	c #4A4F74",
"( 	c #60658B",
"_ 	c #757A9C",
": 	c #8388A6",
"< 	c #8F93AD",
"[ 	c #9598B1",
"} 	c #AB8DA5",
"| 	c #FC1B21",
"1 	c #D0425D",
"2 	c #1A1628",
"3 	c #23223A",
"4 	c #444665",
"5 	c #5B628B",
"6 	c #757CA2",
"7 	c #898EB1",
"8 	c #989DBB",
"9 	c #A3A7C2",
"0 	c #A5A9C3",
"a 	c #A9ABC6",
"b 	c #EE5664",
"c 	c #D4526D",
"d 	c #606487",
"e 	c #474969",
"f 	c #969BBA",
"g 	c #A8ACC7",
"h 	c #D4859A",
"i 	c #D85F77",
"j 	c #5D6182",
"k 	c #333553",
"l 	c #B39DB6",
"m 	c #FC2128",
"n 	c #DC697E",
"o 	c #898EAF",
"p 	c #4D5072",
"q 	c #EC5868",
"r 	c #DE7083",
"s 	c #878CAF",
"t 	c #CF8399",
"u 	c #DF7184",
"v 	c #9FA3C0",
"w 	c #B29DB7",
"x 	c #FB262E",
"y 	c #EB5B6B",
"z 	c #FE151A",
"A 	c #CE859B",
"B 	c #FD1D23",
"C 	c #DA7689",
"D 	c #5C5F80",
"E 	c #B09FB9",
"F 	c #FB2A32",
"G 	c #D37F94",
"H 	c #CC879D",
"I 	c #E95F6F",
"J 	c #EE5361",
"K 	c #A4A6C1",
"L 	c #7A81A8",
"M 	c #8C91B3",
"N 	c #CB879E",
"O 	c #FC1F26",
"P 	c #B59BB4",
"Q 	c #5D6691",
"R 	c #AEA0BA",
"S 	c #FA2D35",
"T 	c #D28095",
"U 	c #656C96",
"V 	c #E76272",
"W 	c #EE5463",
"X 	c #3C4164",
"Y 	c #535A83",
"Z 	c #6A719B",
"` 	c #9DA2BE",
" .	c #C98AA0",
"..	c #B49CB5",
"+.	c #4C547D",
"@.	c #7980A4",
"#.	c #A89CB7",
"$.	c #F9313A",
"%.	c #D28196",
"&.	c #35395B",
"*.	c #3B436A",
"=.	c #4D5680",
"-.	c #686F99",
";.	c #E35D71",
">.	c #ED5665",
",.	c #A6A8C2",
"'.	c #323759",
").	c #2F3352",
"!.	c #464E79",
"~.	c #4F5882",
"{.	c #676E98",
"].	c #B36B89",
"^.	c #B39CB6",
"/.	c #725F86",
"(.	c #F6202F",
"_.	c #D28398",
":.	c #697097",
"<.	c #3F4872",
"[.	c #D6324C",
"}.	c #ED5867",
"|.	c #CD889E",
"1.	c #686F97",
"2.	c #414A74",
"3.	c #3E4771",
"4.	c #9D3E62",
"5.	c #FC2028",
"6.	c #B099B4",
"7.	c #DB687D",
"8.	c #393F64",
"9.	c #262741",
"0.	c #5D466F",
"a.	c #F41323",
"b.	c #C66E89",
"c.	c #D22F4C",
"d.	c #E5394F",
"e.	c #767CA2",
"f.	c #963E62",
"g.	c #FA0D19",
"h.	c #815C82",
"i.	c #787EA4",
"j.	c #C9839A",
"k.	c #D14866",
"l.	c #BD3353",
"m.	c #B23C5E",
"n.	c #C1728F",
"o.	c #CF4361",
"p.	c #AE385A",
"q.	c #BE3858",
"r.	c #AF3D60",
"s.	c #1F1D32",
"t.	c #BE3554",
"u.	c #363D61",
"v.	c #BD3252",
"w.	c #2E314F",
"x.	c #BD2C48",
"y.	c #BC2238",
"z.	c #BB1629",
"A.	c #2B2D4A",
"B.	c #B5597B",
"C.	c #CC2F4D",
"D.	c #272842",
"E.	c #CC3250",
"F.	c #B65A7D",
"G.	c #B35070",
"H.	c #CB2A46",
"                                                                                                ",
"                          . . . . . . . . . . . . . + + . . . @ . . .                           ",
"                        # $ % % & & & & & & & * & & & & & & & = - ; $ #                         ",
"                      . ; > , ' ) ! ! ! ~ { ] ] ] ] ] ] ] ] ] ] ] ^ > ; .                       ",
"                    @ # & / ( _ : < [ [ } | ] ] ] ] ] ] ] ] ] ] ] 1 / = + 2                     ",
"                  + 3 - 4 5 6 7 8 9 0 a b ] ] ] ] ] ] ] ] ] ] ] ] c d 4 - 3 +                   ",
"                + ; * e ) _ 7 f 9 0 g h ] ] ] ] ] ] ] ] ] ] ] ] ] i _ j e * ; +                 ",
"              @ + k / ( _ 7 f 9 9 9 l m ] ] ] ] ] ] ] ] ] ] ] ] ] n o _ ( p * + @               ",
"            + # % e d 6 7 8 9 0 0 9 q ] ] ] ] ] ] ] ] ] ] ] ] ] ] r f s 6 ( 4 % # +             ",
"          + ; k , ) _ 7 8 8 0 0 0 t ] ] ] ] ] ] ] ] ] ] ] ] ] ] ] u v f 7 _ ) , k ; +           ",
"        @ 3 * p d _ o 8 9 9 9 0 w x ] ] ] ] ] ] ] ] ] ] ] ] ] ] ] r 9 9 8 s _ ( ' k 3 @         ",
"      . # - e ( 6 o 8 9 0 9 9 9 y ] ] ] ] ] ] z ] ] ] ] ] ] ] ] ] r 9 0 9 f 7 6 ( e - # .       ",
"    # % & 4 j _ 7 8 9 9 0 9 9 A ] ] ] ] ] ] B C ] ] ] ] ] ] ] ] ] r 0 0 0 v f 7 _ D e k ; 3     ",
"  . $ > p d _ 7 8 v 9 9 0 9 E F ] ] ] ] ] ] G H ] ] ] ] ] ] ] ] ] r 9 0 9 9 v f < _ d ' > $ .   ",
"  . ; 4 5 6 o 8 9 0 9 9 9 9 I ] ] ] ] ] ] J K H ] ] ] ] ] ] ] ] ] r 9 9 9 9 9 9 f s _ 5 4 ; .   ",
"  . ; e ( L M v 0 0 0 9 9 N ] ] ] ] ] ] O P 9 H ] ] ] ] ] ] ] ] ] r 9 9 9 0 g 0 v f L ( , ; .   ",
"  . ; , Q L M v 0 0 0 9 R S ] ] ] ] ] ] T 9 9 H ] ] ] ] ] ] ] ] ] r 9 9 9 0 0 0 v M L U e ; .   ",
"  . ; , 5 6 M 8 9 0 9 9 V ] ] ] ] ] ] W K 9 9 H ] ] ] ] ] ] ] ] ] r 9 9 9 9 9 9 8 7 6 5 4 ; .   ",
"  . $ X Y Z L M f ` 9  .] ] ] ] ] ] m ..9 9 9 H ] ] ] ] ] ] ] ] ] r 0 9 0 9 ` f M L Z Y X ; 2   ",
"  2 3 > +.5 Z @.s f #.$.] ] ] ] ] ] %.9 0 9 9 H ] ] ] ] ] ] ] ] ] r 0 0 0 ` [ s @.Z 5 p &.3 2   ",
"  . 3 k *.=.5 -.6 o ;.] ] ] ] ] ] >.,.9 9 9 9 H ] ] ] ] ] ] ] ] ] r 0 9 9 f o 6 -.5 =.*.'.# 2   ",
"  @ # ).*.!.~.5 {.].] ] ] ] ] ] m ^.9 9 9 9 9 H ] ] ] ] ] ] ] ] ] r 9 ` f M @.{.5 ~.!.*.).3 2   ",
"  2 # ).*.!.!.=./.(.] ] ] ] ] ] _.9 9 9 9 9 9 H ] ] ] ] ] ] ] ] ] r ` f o 6 :.5 ~.+.<.*.).3 2   ",
"  2 # ).*.<.!.!.[.] ] ] ] ] ] }.9 9 9 9 9 9 9 |.] ] ] ] ] ] ] ] ] r f o 6 1.5 +.!.2.<.3.).# 2   ",
"  2 3 ).*.<.<.4.] ] ] ] ] ] 5.6.` 9 0 0 9 9 9 H ] ] ] ] ] ] ] ] ] 7.7 6 1.5 +.!.<.2.2.8.).9.2   ",
"  2 3 ).*.<.0.a.] ] ] ] ] ] b.f ` 0 0 0 0 0 0 |.] ] ] ] ] ] ] ] ] i @.Z 5 =.!.2.<.<.2.*.).+ 2   ",
"  2 # ).3.<.c.] ] ] ] ] ] d.e.s f 9 0 0 0 0 9 |.] ] ] ] ] ] ] ] ] c -.Y +.!.2.2.2.!.2.*.).+ 2   ",
"  2 3 ).*.f.] ] ] ] ] ] g.h.1.i.< f ` ` ` ` ` j.] ] ] ] ] ] ] ] ] k.Q ~.!.2.3.2.<.<.<.3.).9.2   ",
"  2 3 ).*.l.] ] ] ] ] ] m.=.5 1.@.s M M M M M n.] ] ] ] ] ] ] ] ] o.=.!.!.<.<.<.<.<.<.8.).3 2   ",
"  2 3 ).*.l.] ] ] ] ] ] ] ] ] ] ] ] ] ] ] ] ] ] ] ] ] ] ] ] ] ] ] ] ] ] ] ] ] p.<.=.<.3.).3 2   ",
"  2 3 ).3.l.] ] ] ] ] ] ] ] ] ] ] ] ] ] ] ] ] ] ] ] ] ] ] ] ] ] ] ] ] ] ] ] ] p.<.<.<.3.).3 2   ",
"  2 3 ).3.q.] ] ] ] ] ] ] ] ] ] ] ] ] ] ] ] ] ] ] ] ] ] ] ] ] ] ] ] ] ] ] ] ] r.<.<.<.3.).3 2   ",
"  2 s.'.*.t.] ] ] ] ] ] ] ] ] ] ] ] ] ] ] ] ] ] ] ] ] ] ] ] ] ] ] ] ] ] ] ] ] p.<.!.<.8.u.3 2   ",
"  2 3 ).*.v.] ] ] ] ] ] ] ] ] ] ] ] ] ] ] ] ] ] ] ] ] ] ] ] ] ] ] ] ] ] ] ] ] r.<.<.3.8.).s.2   ",
"  2 s.w.'.x.] ] ] ] ] ] ] ] ] ] ] ] ] ] ] ] ] ] ] ] ] ] ] ] ] ] ] ] ] ] ] ] ] p.<.8.8.u.).+ 2   ",
"    s.3 9.y.] ] ] ] ] ] ] ] ] ] ] ] ] ] ] ] ] ] ] ] ] ] ] ] ] ] ] ] ] ] ] ] ] r.3.u.w.9.9.s.    ",
"      2 s.z.] ] ] ] ] ] ] ] ] ] ] ] ] ] ] ] ] ] ] ] ] ] ] ] ] ] ] ] ] ] ] ] ] p.8.).3 s.2       ",
"        2 s.A.&.8.*.<.<.<.<.2.=.5 U Z {.-.-.-.B.] ] ] ] ] ] ] ] ] C.<.<.<.<.8.8.'.A.s.@         ",
"          . 3 D.).&.*.2.2.<.!.=.5 {.-.Z -.-.-.B.] ] ] ] ] ] ] ] ] C.<.2.!.8.u.).D.3 s.          ",
"            . s.3 ).*.<.<.<.2.=.5 {.Z Z -.-.-.B.] ] ] ] ] ] ] ] ] E.2.<.3.8.).3 s..             ",
"              2 s.D.'.8.*.3.2.=.Q {.-.Z Z Z Z F.] ] ] ] ] ] ] ] ] E.3.*.X '.D.s.@               ",
"                2 3 A.).u.*.2.~.Q -.Z Z Z Z Z F.] ] ] ] ] ] ] ] ] C.8.u.).A.3 .                 ",
"                  s.s.3 A.8.2.Y ( -.Z Z Z -.-.F.] ] ] ] ] ] ] ] ] C.u.A.3 s.s.                  ",
"                    @ s.D.'.*.!.Y ( ( ( U Q ( G.] ] ] ] ] ] ] ] ] H.'.9.s.@                     ",
"                      2 # A.'.&.X , , , , , , , e e e e e e , 4 &.k A.# 2                       ",
"                        s.+ # $ ; ; % ; % % ; % ; ; ; % ; ; ; ; 9.3 + s.                        ",
"                          2 2 2 2 . . . 2 . . . . . . . . . . 2 2 2 2                           ",
"                                                                                                "};
