/* XPM */
static char * N5_xpm[] = {
"48 48 203 2",
"  	c #499B49",
". 	c #1C192B",
"+ 	c #201D31",
"@ 	c #181424",
"# 	c #222136",
"$ 	c #2A283F",
"% 	c #302F47",
"& 	c #3D3B4E",
"* 	c #383955",
"= 	c #333249",
"- 	c #323047",
"; 	c #2B2B43",
"> 	c #3A3C5A",
", 	c #464866",
"' 	c #525471",
") 	c #5D5F79",
"! 	c #67677F",
"~ 	c #696A81",
"{ 	c #474969",
"] 	c #4A4F74",
"^ 	c #60658B",
"/ 	c #757A9C",
"( 	c #8388A6",
"_ 	c #8F93AD",
": 	c #9598B1",
"< 	c #9396B0",
"[ 	c #1A1628",
"} 	c #23223A",
"| 	c #444665",
"1 	c #F61B2A",
"2 	c #FF0000",
"3 	c #C33047",
"4 	c #F72430",
"5 	c #C7445C",
"6 	c #333553",
"7 	c #F72B38",
"8 	c #CC566F",
"9 	c #4D5072",
"0 	c #606487",
"a 	c #757CA2",
"b 	c #898EB1",
"c 	c #F8313C",
"d 	c #D1647D",
"e 	c #989DBB",
"f 	c #D56F86",
"g 	c #898EAF",
"h 	c #A3A7C2",
"i 	c #F8343E",
"j 	c #D9788B",
"k 	c #878CAF",
"l 	c #A5A9C3",
"m 	c #DA798C",
"n 	c #969BBA",
"o 	c #5D6182",
"p 	c #C390A7",
"q 	c #9FA3C0",
"r 	c #5C5F80",
"s 	c #5B628B",
"t 	c #C491A8",
"u 	c #7A81A8",
"v 	c #8C91B3",
"w 	c #A8ACC7",
"x 	c #5D6691",
"y 	c #656C96",
"z 	c #E3697B",
"A 	c #E66475",
"B 	c #F44551",
"C 	c #FA2F38",
"D 	c #FE1217",
"E 	c #FA2B34",
"F 	c #F63F4B",
"G 	c #F0525F",
"H 	c #DF6F82",
"I 	c #CB889E",
"J 	c #B1A1BA",
"K 	c #3C4164",
"L 	c #535A83",
"M 	c #6A719B",
"N 	c #9DA2BE",
"O 	c #F9353F",
"P 	c #FE151A",
"Q 	c #E56678",
"R 	c #BA97B0",
"S 	c #4C547D",
"T 	c #7980A4",
"U 	c #FE0A0E",
"V 	c #D9778B",
"W 	c #A7A7C1",
"X 	c #35395B",
"Y 	c #3B436A",
"Z 	c #4D5680",
"` 	c #686F99",
" .	c #EC5A69",
"..	c #A6A5C0",
"+.	c #323759",
"@.	c #2F3352",
"#.	c #464E79",
"$.	c #4F5882",
"%.	c #676E98",
"&.	c #F8333D",
"*.	c #E46274",
"=.	c #979BBA",
"-.	c #697097",
";.	c #BE748F",
">.	c #3F4872",
",.	c #F8303B",
"'.	c #F5414D",
").	c #DF6F81",
"!.	c #CD869C",
"~.	c #BB96AF",
"{.	c #AEA0BA",
"].	c #A7A4BF",
"^.	c #B2A0B9",
"/.	c #C68DA4",
"(.	c #E56879",
"_.	c #F32C3C",
":.	c #6F6E95",
"<.	c #414A74",
"[.	c #3E4771",
"}.	c #787EA4",
"|.	c #EA4A5C",
"1.	c #D37188",
"2.	c #B198B3",
"3.	c #B998B0",
"4.	c #A55275",
"5.	c #393F64",
"6.	c #262741",
"7.	c #B49FB7",
"8.	c #FB2930",
"9.	c #CE3754",
"0.	c #D77D91",
"a.	c #EC1E33",
"b.	c #686F97",
"c.	c #B196B0",
"d.	c #F6101F",
"e.	c #8F90B1",
"f.	c #FF0406",
"g.	c #FE0204",
"h.	c #464871",
"i.	c #7E7FA3",
"j.	c #FF0305",
"k.	c #90688F",
"l.	c #F61120",
"m.	c #C55171",
"n.	c #E91D32",
"o.	c #1F1D32",
"p.	c #973D62",
"q.	c #D22B47",
"r.	c #7B4269",
"s.	c #896890",
"t.	c #FA1724",
"u.	c #C7304E",
"v.	c #363D61",
"w.	c #9D3E62",
"x.	c #FF0102",
"y.	c #DC2A44",
"z.	c #A5476B",
"A.	c #656189",
"B.	c #96648B",
"C.	c #F22739",
"D.	c #92446A",
"E.	c #2E314F",
"F.	c #F91421",
"G.	c #DB3F5A",
"H.	c #BF5677",
"I.	c #9C6288",
"J.	c #856890",
"K.	c #746F98",
"L.	c #706C96",
"M.	c #AB5D81",
"N.	c #DA435E",
"O.	c #FD0A12",
"P.	c #E71F35",
"Q.	c #414872",
"R.	c #9C3C60",
"S.	c #8A4066",
"T.	c #B93555",
"U.	c #2B2D4A",
"V.	c #BD3353",
"W.	c #272842",
"X.	c #F21C2E",
"Y.	c #963F64",
"Z.	c #913E64",
"`.	c #C82F4E",
" +	c #EE1A2D",
".+	c #EE2D41",
"++	c #BB4A6B",
"@+	c #5F547D",
"#+	c #6C527B",
"$+	c #A5567B",
"%+	c #C74E6E",
"&+	c #D9435F",
"*+	c #E7374E",
"=+	c #F32739",
"-+	c #F81D2B",
";+	c #FC101A",
">+	c #FE060D",
",+	c #F91A27",
"'+	c #F32738",
")+	c #EC3247",
"!+	c #D84661",
"~+	c #BD5778",
"{+	c #98668C",
"                                                                                                ",
"                          . . . . . . . . . . . . . + + . . . @ . . .                           ",
"                        # $ % % & & & & & & & * & & & & & & & = - ; $ #                         ",
"                      . ; > , ' ) ! ! ! ~ ~ ! ~ ! ! ! ~ ! ! ! ! ' { > ; .                       ",
"                    @ # & ] ^ / ( _ : : : : < < < < < < : : _ ( / ^ ] = + [                     ",
"                  + } - | 1 2 2 2 2 2 2 2 2 2 2 2 2 2 2 2 2 2 2 2 2 2 3 - } +                   ",
"                + ; * { ) 4 2 2 2 2 2 2 2 2 2 2 2 2 2 2 2 2 2 2 2 2 2 5 { * ; +                 ",
"              @ + 6 ] ^ / 7 2 2 2 2 2 2 2 2 2 2 2 2 2 2 2 2 2 2 2 2 2 8 ^ 9 * + @               ",
"            + # % { 0 a b c 2 2 2 2 2 2 2 2 2 2 2 2 2 2 2 2 2 2 2 2 2 d a ^ | % # +             ",
"          + ; 6 , ) / b e c 2 2 2 2 2 2 2 2 2 2 2 2 2 2 2 2 2 2 2 2 2 f b / ) , 6 ; +           ",
"        @ } * 9 0 / g e h i 2 2 2 2 2 2 2 2 2 2 2 2 2 2 2 2 2 2 2 2 2 j e k / ^ ' 6 } @         ",
"      . # - { ^ a g e h l i 2 2 2 2 2 2 2 2 2 2 2 2 2 2 2 2 2 2 2 2 2 m h n b a ^ { - # .       ",
"    # % & | o / b e h h l i 2 2 2 2 2 2 p h h h h h h h h h h h h h l l l q n b / r { 6 ; }     ",
"  . $ > 9 0 / b e q h h l i 2 2 2 2 2 2 p h h h h h h l h l h h h h h l h h q n _ / 0 ' > $ .   ",
"  . ; | s a g e h l h h h i 2 2 2 2 2 2 t h h h h h h h h h h h h h h h h h h h n k / s | ; .   ",
"  . ; { ^ u v q l l l h h i 2 2 2 2 2 2 p h h h h h h h h h h h h h h h h l w l q n u ^ , ; .   ",
"  . ; , x u v q l l l h h i 2 2 2 2 2 2 p h h h h l h h h h h h h h h h h l l l q v u y { ; .   ",
"  . ; , s a v e h l h h h i 2 2 2 2 2 2 z A B C D E F G H I J h h h h h h h h h e b a s | ; .   ",
"  . $ K L M u v n N h h l O 2 2 2 2 2 2 2 2 2 2 2 2 2 2 2 2 P Q R h l h l h N n v u M L K ; [   ",
"  [ } > S s M T k n N h l O 2 2 2 2 2 2 2 2 2 2 2 2 2 2 2 2 2 2 U V W l l N : k T M s 9 X } [   ",
"  . } 6 Y Z s ` a g n h l O 2 2 2 2 2 2 2 2 2 2 2 2 2 2 2 2 2 2 2 2  ...h n g a ` s Z Y +.# [   ",
"  @ # @.Y #.$.s %.T _ n N &.2 2 2 2 2 2 2 2 2 2 2 2 2 2 2 2 2 2 2 2 2 *.=.v T %.s $.#.Y @.} [   ",
"  [ # @.Y #.#.Z s -.a k n &.2 2 2 2 2 2 2 2 2 2 2 2 2 2 2 2 2 2 2 2 2 2 ;.a -.s $.S >.Y @.} [   ",
"  [ # @.Y >.#.#.S s ` a k ,.2 2 '.).!.~.{...].^./.(.P 2 2 2 2 2 2 2 2 2 _.:.s S #.<.>.[.@.# [   ",
"  [ } @.Y >.>.<.#.S s %.}.|.1.2.N h l l h h h h h h 3.F 2 2 2 2 2 2 2 2 2 4.S #.>.<.<.5.@.6.[   ",
"  [ } @.Y >.>.>.<.#.Z s -.a g n N l l l l l l l l l h 7.8.2 2 2 2 2 2 2 2 9.#.<.>.>.<.Y @.+ [   ",
"  [ # @.[.>.#.>.<.<.#.S s -.a k n h l l l l h l l h h h 0.2 2 2 2 2 2 2 2 a.<.<.<.#.<.Y @.+ [   ",
"  [ } @.Y >.#.>.<.>.>.#.S s b.}._ n N N N N N N N N N N c.2 2 2 2 2 2 2 2 d.[.<.>.>.>.[.@.6.[   ",
"  [ } @.Y >.>.>.>.[.>.<.#.Z s b.T k v v v v v b v v v v e.f.2 2 2 2 2 2 2 g.h.>.>.>.>.5.@.} [   ",
"  [ } @.Y >.>.#.<.[.>.<.<.#.S s b.a }.T }.}.}.}.a }.}.}.i.j.2 2 2 2 2 2 2 g.h.>.>.Z >.[.@.} [   ",
"  [ } @.[.>.>.>.[.<.<.>.>.<.#.Z s %.M M M M M M M M M M k.2 2 2 2 2 2 2 2 l.>.>.>.>.>.[.@.} [   ",
"  [ } @.[.#.>.#.<.<.>.<.[.[.<.Z s y %.M %.y %.%.%.%.%.%.m.2 2 2 2 2 2 2 2 n.>.#.>.>.>.[.@.} [   ",
"  [ o.+.Y <.<.<.>.<.<.p.q.r.<.Z s y %.%.%.%.%.%.%.%.%.s.t.2 2 2 2 2 2 2 2 u.>.>.>.#.>.5.v.} [   ",
"  [ } @.Y [.<.>.<.>.>.w.2 x.y.z.A.y %.M %.M %.M ` ` B.C.2 2 2 2 2 2 2 2 2 D.>.#.>.>.[.5.@.o.[   ",
"  [ o.E.+.5.Y >.<.>.>.w.2 2 2 2 F.G.H.I.J.K.L.J.M.N.O.2 2 2 2 2 2 2 2 2 P.Q.>.>.>.5.5.v.@.+ [   ",
"    o.} 6.E.v.Y <.#.<.R.2 2 2 2 2 2 2 2 2 2 2 2 2 2 2 2 2 2 2 2 2 2 2 x.S.>.#.#.[.v.E.6.6.o.    ",
"      [ o.} @.5.<.<.>.w.2 2 2 2 2 2 2 2 2 2 2 2 2 2 2 2 2 2 2 2 2 2 2 T.<.<.#.>.5.@.} o.[       ",
"        [ o.U.X 5.Y >.R.2 2 2 2 2 2 2 2 2 2 2 2 2 2 2 2 2 2 2 2 2 2 V.>.>.>.5.5.+.U.o.@         ",
"          . } W.@.X Y w.2 2 2 2 2 2 2 2 2 2 2 2 2 2 2 2 2 2 2 2 X.Y.>.<.#.5.v.@.W.} o.          ",
"            . o.} @.Y h.Z.`. +2 2 2 2 2 2 2 2 2 2 2 2 2 2 2 .+++@+#.<.>.[.5.@.} o..             ",
"              [ o.W.+.5.Y [.<.#+$+%+&+*+=+-+;+>+,+'+)+!+~+{+%.s $.#.[.Y K +.W.o.@               ",
"                [ } U.@.v.Y <.$.x ` M M M M M M M M M M M M ` x $.<.5.v.@.U.} .                 ",
"                  o.o.} U.5.<.L ^ ` M M M ` ` M M M M M M M b.^ $.<.v.U.} o.o.                  ",
"                    @ o.W.+.Y #.L ^ ^ ^ y x ^ ^ x ^ x ^ ^ y s S #.Y +.6.o.@                     ",
"                      [ # U.+.X K , , , , , , , { { { { { { , | X 6 U.# [                       ",
"                        o.+ # $ ; ; % ; % % ; % ; ; ; % ; ; ; ; 6.} + o.                        ",
"                          [ [ [ [ . . . [ . . . . . . . . . . [ [ [ [                           ",
"                                                                                                "};
