/* XPM */
static char * N6_xpm[] = {
"48 48 291 2",
"  	c #499B49",
". 	c #1C192B",
"+ 	c #201D31",
"@ 	c #181424",
"# 	c #222136",
"$ 	c #2A283F",
"% 	c #302F47",
"& 	c #3D3B4E",
"* 	c #383955",
"= 	c #333249",
"- 	c #323047",
"; 	c #2B2B43",
"> 	c #3A3C5A",
", 	c #464866",
"' 	c #525471",
") 	c #5D5F79",
"! 	c #67677F",
"~ 	c #925E74",
"{ 	c #BD5163",
"] 	c #D9404F",
"^ 	c #E92F3C",
"/ 	c #F61F27",
"( 	c #FA1319",
"_ 	c #FE0508",
": 	c #FB1218",
"< 	c #F71D25",
"[ 	c #F2252F",
"} 	c #ED2B37",
"| 	c #E8313E",
"1 	c #DD3B49",
"2 	c #C8394E",
"3 	c #B03952",
"4 	c #91344E",
"5 	c #65283F",
"6 	c #21192B",
"7 	c #4A4F74",
"8 	c #60658B",
"9 	c #757A9C",
"0 	c #8D85A2",
"a 	c #CD6E82",
"b 	c #F23F4A",
"c 	c #FF0000",
"d 	c #931729",
"e 	c #1A1628",
"f 	c #23223A",
"g 	c #444665",
"h 	c #5B628B",
"i 	c #777CA1",
"j 	c #C76E89",
"k 	c #FA2933",
"l 	c #96283C",
"m 	c #474969",
"n 	c #8B7495",
"o 	c #EA475A",
"p 	c #9B3E5A",
"q 	c #333553",
"r 	c #9A6F8F",
"s 	c #F62E3C",
"t 	c #A35677",
"u 	c #4D5072",
"v 	c #606487",
"w 	c #967396",
"x 	c #F82A37",
"y 	c #AC6A8B",
"z 	c #837798",
"A 	c #F33645",
"B 	c #B57A98",
"C 	c #E15468",
"D 	c #F04F5C",
"E 	c #D67C90",
"F 	c #BD95AD",
"G 	c #B09EB8",
"H 	c #A7A5BF",
"I 	c #A7A4BF",
"J 	c #AEA0BA",
"K 	c #B998B1",
"L 	c #CA899F",
"M 	c #DB7589",
"N 	c #F0505E",
"O 	c #FE0E13",
"P 	c #BD87A1",
"Q 	c #878CAF",
"R 	c #757CA2",
"S 	c #B87895",
"T 	c #F63D48",
"U 	c #C48FA6",
"V 	c #A3A7C2",
"W 	c #A5A9C3",
"X 	c #ABA2BC",
"Y 	c #CD869C",
"Z 	c #EB5C6B",
"` 	c #C191A9",
" .	c #969BBA",
"..	c #898EB1",
"+.	c #5D6182",
"@.	c #8B8DB0",
"#.	c #F43E4C",
"$.	c #EF5361",
"%.	c #ADA1BB",
"&.	c #9FA3C0",
"*.	c #5C5F80",
"=.	c #C4819A",
"-.	c #F73A45",
";.	c #8F93AD",
">.	c #898EAF",
",.	c #989DBB",
"'.	c #ED5564",
").	c #C390A7",
"!.	c #7A81A8",
"~.	c #8C91B3",
"{.	c #AF99B4",
"].	c #FF0507",
"^.	c #EF5260",
"/.	c #A8ACC7",
"(.	c #5D6691",
"_.	c #D07E95",
":.	c #656C96",
"<.	c #E65A6C",
"[.	c #3C4164",
"}.	c #535A83",
"|.	c #6A719B",
"1.	c #F82A36",
"2.	c #F44652",
"3.	c #A5A6C1",
"4.	c #C48EA5",
"5.	c #DC7387",
"6.	c #FC2128",
"7.	c #FC1F26",
"8.	c #F73B46",
"9.	c #F14E5B",
"0.	c #E3697B",
"a.	c #CC879D",
"b.	c #9DA2BE",
"c.	c #4C547D",
"d.	c #826C94",
"e.	c #E86272",
"f.	c #A6A5C0",
"g.	c #D57D92",
"h.	c #FE0A0E",
"i.	c #E66576",
"j.	c #B899B1",
"k.	c #9598B1",
"l.	c #7980A4",
"m.	c #35395B",
"n.	c #3B436A",
"o.	c #4D5680",
"p.	c #9B567A",
"q.	c #EC5868",
"r.	c #F34753",
"s.	c #DC7386",
"t.	c #A7A8C2",
"u.	c #686F99",
"v.	c #323759",
"w.	c #2F3352",
"x.	c #464E79",
"y.	c #AA476A",
"z.	c #ED5766",
"A.	c #A79DB8",
"B.	c #676E98",
"C.	c #4F5882",
"D.	c #B83A5C",
"E.	c #EB5061",
"F.	c #8D8CAD",
"G.	c #697097",
"H.	c #3F4872",
"I.	c #BE3858",
"J.	c #D74F69",
"K.	c #686F97",
"L.	c #414A74",
"M.	c #3E4771",
"N.	c #C23150",
"O.	c #94577D",
"P.	c #393F64",
"Q.	c #262741",
"R.	c #C33150",
"S.	c #E46A7B",
"T.	c #C195AC",
"U.	c #ADA4BD",
"V.	c #A8A7C1",
"W.	c #B39FB8",
"X.	c #CF869B",
"Y.	c #F63F4B",
"Z.	c #E22B43",
"`.	c #C03758",
" +	c #CD889E",
".+	c #AAA3BD",
"++	c #EF515F",
"@+	c #77456C",
"#+	c #BA395B",
"$+	c #E46274",
"%+	c #B097B1",
"&+	c #FE141A",
"*+	c #B23657",
"=+	c #AB395B",
"-+	c #B0809F",
";+	c #E45367",
">+	c #D92842",
",+	c #9A3D61",
"'+	c #FC141E",
")+	c #7B7DA3",
"!+	c #787EA4",
"~+	c #C3627E",
"{+	c #E71F35",
"]+	c #79426A",
"^+	c #ED2F43",
"/+	c #A66186",
"(+	c #F21627",
"_+	c #464871",
":+	c #FD060E",
"<+	c #E6354C",
"[+	c #9A6389",
"}+	c #F90C19",
"|+	c #1F1D32",
"1+	c #E72036",
"2+	c #9B6288",
"3+	c #F51222",
"4+	c #363D61",
"5+	c #C7304E",
"6+	c #ED2E42",
"7+	c #EB1C31",
"8+	c #2E314F",
"9+	c #943E63",
"0+	c #FC101B",
"a+	c #6D709A",
"b+	c #BE5677",
"c+	c #424369",
"d+	c #F61120",
"e+	c #9D6288",
"f+	c #DF3F59",
"g+	c #C53251",
"h+	c #DB415C",
"i+	c #8C678E",
"j+	c #FD0A12",
"k+	c #82476F",
"l+	c #2B2D4A",
"m+	c #6B3B5F",
"n+	c #FC050D",
"o+	c #B5587A",
"p+	c #776C95",
"q+	c #E93349",
"r+	c #E91E33",
"s+	c #272842",
"t+	c #C5253E",
"u+	c #FF0204",
"v+	c #D84460",
"w+	c #9F6187",
"x+	c #796C95",
"y+	c #6F6E97",
"z+	c #876890",
"A+	c #B7587A",
"B+	c #F22739",
"C+	c #A23352",
"D+	c #4F3250",
"E+	c #F01526",
"F+	c #E22239",
"G+	c #87304F",
"H+	c #FC040B",
"I+	c #F60E1C",
"J+	c #6D3D5E",
"K+	c #9F2943",
"L+	c #FE0205",
"M+	c #F90914",
"N+	c #863657",
"O+	c #9A253E",
"P+	c #FB0610",
"Q+	c #ED1B2F",
"R+	c #7C3759",
"S+	c #763252",
"T+	c #E61D31",
"U+	c #FF0103",
"V+	c #D22F4C",
"W+	c #524268",
"X+	c #353759",
"Y+	c #A22E4A",
"Z+	c #E71B2D",
"`+	c #FC060D",
" @	c #D12C40",
".@	c #7C405D",
"+@	c #76273D",
"@@	c #B42235",
"#@	c #D61625",
"$@	c #EA101C",
"%@	c #F7070E",
"&@	c #FC0204",
"*@	c #FC0205",
"=@	c #F50710",
"-@	c #EC0D18",
";@	c #E11220",
">@	c #C31F30",
",@	c #962438",
"'@	c #4D2A41",
"                                                                                                ",
"                          . . . . . . . . . . . . . + + . . . @ . . .                           ",
"                        # $ % % & & & & & & & * & & & & & & & = - ; $ #                         ",
"                      . ; > , ' ) ! ! ~ { ] ^ / ( _ : < [ } | 1 2 3 4 5 6                       ",
"                    @ # & 7 8 9 0 a b c c c c c c c c c c c c c c c c c d e                     ",
"                  + f - g h i j k c c c c c c c c c c c c c c c c c c c l f +                   ",
"                + ; * m ) n o c c c c c c c c c c c c c c c c c c c c c p * ; +                 ",
"              @ + q 7 8 r s c c c c c c c c c c c c c c c c c c c c c c t u * + @               ",
"            + # % m v w x c c c c c c c c c c c c c c c c c c c c c c c y 8 g % # +             ",
"          + ; q , ) z A c c c c c c c c c c c c c c c c c c c c c c c c B 9 ) , q ; +           ",
"        @ f * u v 9 C c c c c c c c c c c c D E F G H I J K L M N O c c P Q 9 8 ' q f @         ",
"      . # - m 8 R S c c c c c c c c c c T U V V W V V V V V V V V X Y Z `  ...R 8 m - # .       ",
"    # % & g +.9 @.#.c c c c c c c c c $.%.V V V V V V V V V V V V V W W W &. ...9 *.m q ; f     ",
"  . $ > u v 9 ..=.c c c c c c c c c -.%.V V V V V V V W V W V V V V V W V V &. .;.9 v ' > $ .   ",
"  . ; g h R >.,.'.c c c c c c c c c ).V W V V V V V V V V V V V V V V V V V V V  .Q 9 h g ; .   ",
"  . ; m 8 !.~.{.].c c c c c c c c ^.V V V V V V V V V V V V V V V V V V V W /.W &. .!.8 , ; .   ",
"  . ; , (.!.~._.c c c c c c c c c Y W V V V V V V W V V V V V V V V V V V W W W &.~.!.:.m ; .   ",
"  . ; , h R ~.<.c c c c c c c c ].J V V V V V V V V V W V V W V V V V V V V V V ,...R h g ; .   ",
"  . $ [.}.|.!.1.c c c c c c c c 2.V V 3.4.5.^.-.6.7.8.9.0.a.G V V V W V W V b. .~.!.|.}.[.; e   ",
"  e f > c.h d.c c c c c c c c c e.f.g.-.c c c c c c c c c c h.i.j.V W W W b.k.Q l.|.h u m.f e   ",
"  . f q n.o.p.c c c c c c c c c q.r.c c c c c c c c c c c c c c ].s.t.V V  .>.R u.h o.n.v.# e   ",
"  @ # w.n.x.y.c c c c c c c c c c c c c c c c c c c c c c c c c c c z.A. .~.l.B.h C.x.n.w.f e   ",
"  e # w.n.x.D.c c c c c c c c c c c c c c c c c c c c c c c c c c c c E.F.R G.h C.c.H.n.w.f e   ",
"  e # w.n.H.I.c c c c c c c c c c c c c c c c c c c c c c c c c c c c c J.K.h c.x.L.H.M.w.# e   ",
"  e f w.n.H.N.c c c c c c c c c c c c c c c c c c c c c c c c c c c c c c O.c.x.H.L.L.P.w.Q.e   ",
"  e f w.n.H.R.c c c c c c c c c c c c ].S.T.U.V.W.X.Y.c c c c c c c c c c Z.x.L.H.H.L.n.w.+ e   ",
"  e # w.M.H.`.c c c c c c c c c c c c  +W W V W W V .+++c c c c c c c c c c @+L.L.x.L.n.w.+ e   ",
"  e f w.n.H.#+c c c c c c c c c c c $+b.b.b.b.b.b.b.b.%+&+c c c c c c c c c *+L.H.H.H.M.w.Q.e   ",
"  e f w.n.H.=+c c c c c c c c c c c -+~.~.~.~...~.~.~.~.;+c c c c c c c c c >+H.H.H.H.P.w.f e   ",
"  e f w.n.H.,+c c c c c c c c c c '+)+l.!+!+!+!+R !+!+!+~+c c c c c c c c c {+H.H.o.H.M.w.f e   ",
"  e f w.M.H.]+c c c c c c c c c c ^+|.|.|.|.|.|.|.|.|.|./+c c c c c c c c c (+H.H.H.H.M.w.f e   ",
"  e f w.M.x._+:+c c c c c c c c c <+B.|.B.:.B.B.B.B.B.B.[+c c c c c c c c c }+x.H.H.H.M.w.f e   ",
"  e |+v.n.L.L.1+c c c c c c c c c <+B.B.B.B.B.B.B.B.B.u.2+c c c c c c c c c 3+H.H.x.H.P.4+f e   ",
"  e f w.n.M.L.5+c c c c c c c c c 6+B.|.B.|.B.|.u.u.u.u./+c c c c c c c c c 7+x.H.H.M.P.w.|+e   ",
"  e |+8+v.P.n.9+c c c c c c c c c 0+a+u.B.|.B.B.u.u.u.u.b+c c c c c c c c c >+H.H.P.P.4+w.+ e   ",
"    |+f Q.8+4+c+d+c c c c c c c c c e+|.|.B.|.B.u.u.u.u.f+c c c c c c c c c #+x.M.4+8+Q.Q.|+    ",
"      e |+f w.P.g+c c c c c c c c c h+|.u.u.u.u.u.u.u.i+j+c c c c c c c c c k+H.P.w.f |+e       ",
"        e |+l+m.m+n+c c c c c c c c c o+u.u.u.u.u.u.p+q+c c c c c c c c c r+P.P.v.l+|+@         ",
"          . f s+w.t+c c c c c c c c c u+v+w+x+y+z+A+B+c c c c c c c c c c C+4+w.s+f |+          ",
"            . |+f D+E+c c c c c c c c c c c c c c c c c c c c c c c c c F+P.w.f |+.             ",
"              e |+s+G+H+c c c c c c c c c c c c c c c c c c c c c c c I+J+v.s+|+@               ",
"                e f l+K+L+c c c c c c c c c c c c c c c c c c c c c M+N+w.l+f .                 ",
"                  |+|+f O+P+c c c c c c c c c c c c c c c c c c c Q+R+l+f |+|+                  ",
"                    @ |+s+S+T+c c c c c c c c c c c c c c c c U+V+W+v.Q.|+@                     ",
"                      e # l+X+Y+Z+c c c c c c c c c c c c `+ @.@m.q l+# e                       ",
"                        |++ # $ ; +@@@#@$@%@&@*@=@-@;@>@,@'@; ; Q.f + |+                        ",
"                          e e e e . . . e . . . . . . . . . . e e e e                           ",
"                                                                                                "};
