/* XPM */
static char * N7_xpm[] = {
"48 48 176 2",
"  	c #499B49",
". 	c #1C192B",
"+ 	c #201D31",
"@ 	c #181424",
"# 	c #222136",
"$ 	c #2A283F",
"% 	c #302F47",
"& 	c #3D3B4E",
"* 	c #383955",
"= 	c #333249",
"- 	c #323047",
"; 	c #2B2B43",
"> 	c #3A3C5A",
", 	c #464866",
"' 	c #525471",
") 	c #5D5F79",
"! 	c #67677F",
"~ 	c #696A81",
"{ 	c #474969",
"] 	c #4A4F74",
"^ 	c #60658B",
"/ 	c #757A9C",
"( 	c #8388A6",
"_ 	c #8F93AD",
": 	c #9598B1",
"< 	c #9396B0",
"[ 	c #1A1628",
"} 	c #8C182A",
"| 	c #FF0000",
"1 	c #C46F32",
"2 	c #8E253A",
"3 	c #8F2D48",
"4 	c #BF0B17",
"5 	c #943F5B",
"6 	c #C01524",
"7 	c #333553",
"8 	c #9C536A",
"9 	c #C1233A",
"0 	c #23223A",
"a 	c #4D5072",
"b 	c #606487",
"c 	c #A76B89",
"d 	c #C43B50",
"e 	c #757CA2",
"f 	c #B17C9A",
"g 	c #A05778",
"h 	c #444665",
"i 	c #5D6182",
"j 	c #898EB1",
"k 	c #B98AA4",
"l 	c #EE4051",
"m 	c #5C5F80",
"n 	c #989DBB",
"o 	c #9FA3C0",
"p 	c #A3A7C2",
"q 	c #A5A9C3",
"r 	c #F24B57",
"s 	c #C47F98",
"t 	c #5B628B",
"u 	c #898EAF",
"v 	c #C390A8",
"w 	c #F73B46",
"x 	c #A5A6C1",
"y 	c #969BBA",
"z 	c #878CAF",
"A 	c #7A81A8",
"B 	c #8C91B3",
"C 	c #EB5A69",
"D 	c #D58398",
"E 	c #5D6691",
"F 	c #B998B0",
"G 	c #FB2A32",
"H 	c #ACA5BE",
"I 	c #656C96",
"J 	c #E56879",
"K 	c #DB7588",
"L 	c #3C4164",
"M 	c #535A83",
"N 	c #6A719B",
"O 	c #9DA2BE",
"P 	c #B29DB7",
"Q 	c #FE1217",
"R 	c #FE161B",
"S 	c #B09FB9",
"T 	c #4C547D",
"U 	c #7980A4",
"V 	c #DD7285",
"W 	c #E36B7C",
"X 	c #35395B",
"Y 	c #3B436A",
"Z 	c #4D5680",
"` 	c #686F99",
" .	c #ABA2BC",
"..	c #FC252C",
"+.	c #B899B1",
"@.	c #323759",
"#.	c #2F3352",
"$.	c #464E79",
"%.	c #4F5882",
"&.	c #676E98",
"*.	c #D57C91",
"=.	c #E95969",
"-.	c #697097",
";.	c #A6A5C0",
">.	c #F83640",
",.	c #BA87A2",
"'.	c #3F4872",
").	c #CD859B",
"!.	c #F04655",
"~.	c #686F97",
"{.	c #414A74",
"].	c #3E4771",
"^.	c #787EA4",
"/.	c #F34753",
"(.	c #BF7391",
"_.	c #393F64",
":.	c #262741",
"<.	c #C690A6",
"[.	c #F6303E",
"}.	c #7E7FA3",
"|.	c #ED5765",
"1.	c #C35D7B",
"2.	c #B891AB",
"3.	c #FA1C27",
"4.	c #776B94",
"5.	c #E2566C",
"6.	c #CD4C6A",
"7.	c #957699",
"8.	c #FE050A",
"9.	c #FD0A12",
"0.	c #78557C",
"a.	c #D24A67",
"b.	c #D63C56",
"c.	c #7D6A92",
"d.	c #FB121D",
"e.	c #8D597F",
"f.	c #1F1D32",
"g.	c #C64F6F",
"h.	c #E23A53",
"i.	c #363D61",
"j.	c #736F99",
"k.	c #F71E2D",
"l.	c #A45F84",
"m.	c #2E314F",
"n.	c #BA5678",
"o.	c #EC2F44",
"p.	c #6A6F98",
"q.	c #F12B3E",
"r.	c #B3597B",
"s.	c #AC5B7F",
"t.	c #F42435",
"u.	c #6E6E98",
"v.	c #2B2D4A",
"w.	c #E8364D",
"x.	c #C15374",
"y.	c #272842",
"z.	c #9D6186",
"A.	c #FA1724",
"B.	c #796E97",
"C.	c #DF3E57",
"D.	c #885E86",
"E.	c #FF0204",
"F.	c #FD0B13",
"G.	c #866B93",
"H.	c #D2415E",
"I.	c #D94561",
"J.	c #72567D",
"K.	c #FC0D16",
"L.	c #95678D",
"M.	c #C33656",
"N.	c #E2354B",
"O.	c #4D3657",
"P.	c #F70A15",
"Q.	c #993E5A",
"R.	c #B11728",
"S.	c #EA0E1A",
"                                                                                                ",
"                          . . . . . . . . . . . . . + + . . . @ . . .                           ",
"                        # $ % % & & & & & & & * & & & & & & & = - ; $ #                         ",
"                      . ; > , ' ) ! ! ! ~ ~ ! ~ ! ! ! ~ ! ! ! ! ' { > ; .                       ",
"                    @ # & ] ^ / ( _ : : : : < < < < < < : : _ ( / ^ ] = + [                     ",
"                  } | | | | | | | | | | | | | | | | | | | | | | | | | | | | | | 1               ",
"                + 2 | | | | | | | | | | | | | | | | | | | | | | | | | | | | | | 1               ",
"              @ + 3 | | | | | | | | | | | | | | | | | | | | | | | | | | | | | | 4               ",
"            + # % 5 | | | | | | | | | | | | | | | | | | | | | | | | | | | | | | 6 +             ",
"          + ; 7 , 8 | | | | | | | | | | | | | | | | | | | | | | | | | | | | | | 9 ; +           ",
"        @ 0 * a b c | | | | | | | | | | | | | | | | | | | | | | | | | | | | | | d 7 0 @         ",
"      . # - { ^ e f | | | | | | | | | | | | | | | | | | | | | | | | | | | | | | g { - # .       ",
"    # % & h i / j k | | | | | | | | | | | | | | | | | | | | | | | | | | | | | l / m { 7 ; 0     ",
"  . $ > a b / j n o p p q p p p p p p p p p p p p p p q p r | | | | | | | | | s _ / b ' > $ .   ",
"  . ; h t e u n p q p p p p p p p p p p q p p p p p p p v | | | | | | | | | w x y z / t h ; .   ",
"  . ; { ^ A B o q q q p p p p p p p p p p p p p p p p p C | | | | | | | | | D q o y A ^ , ; .   ",
"  . ; , E A B o q q q p p p p p p p q p p p p p p q p F | | | | | | | | | G H q o B A I { ; .   ",
"  . ; , t e B n p q p p p p p p p p p p p p p p p p p J | | | | | | | | | K p p n j e t h ; .   ",
"  . $ L M N A B y O p p q q p q p p p p p p p p p p P Q | | | | | | | | R S O y B A N M L ; [   ",
"  [ 0 > T t N U z y O p q q p p q p p p q p p p p p V | | | | | | | | | W O : z U N t a X 0 [   ",
"  . 0 7 Y Z t ` e u y p q q p p p p q p p p p p p  ...| | | | | | | | | +.y u e ` t Z Y @.# [   ",
"  @ # #.Y $.%.t &.U _ y O O p q q p p p p p p p p *.| | | | | | | | | =.y B U &.t %.$.Y #.0 [   ",
"  [ # #.Y $.$.Z t -.e z y O q q q p p p p p p p ;.>.| | | | | | | | | ,.u e -.t %.T '.Y #.0 [   ",
"  [ # #.Y '.$.$.T t ` e z y p q p p p p p p p q ).| | | | | | | | | !.u e ~.t T $.{.'.].#.# [   ",
"  [ 0 #.Y '.'.{.$.T t &.^.B y o O p q q p p p p /.| | | | | | | | | (.e ~.t T $.'.{.{._.#.:.[   ",
"  [ 0 #.Y '.'.'.{.$.Z t -.e u y O q q q q q q <.| | | | | | | | | [.}.N t Z $.{.'.'.{.Y #.+ [   ",
"  [ # #.].'.$.'.{.{.$.T t -.e z y p q q q q p |.| | | | | | | | | 1.` M T $.{.{.{.$.{.Y #.+ [   ",
"  [ 0 #.Y '.$.'.{.'.'.$.T t ~.^._ y O O O O 2.| | | | | | | | | 3.4.E %.$.{.].{.'.'.'.].#.:.[   ",
"  [ 0 #.Y '.'.'.'.].'.{.$.Z t ~.U z B B B B 5.| | | | | | | | | 6.E Z $.$.'.'.'.'.'.'._.#.0 [   ",
"  [ 0 #.Y '.'.$.{.].'.{.{.$.T t ~.e ^.U ^.7.8.| | | | | | | | 9.0.Z $.{.'.'.'.'.'.Z '.].#.0 [   ",
"  [ 0 #.].'.'.'.].{.{.'.'.{.$.Z t &.N N N a.| | | | | | | | | b.%.$.'.'.'.'.'.'.'.'.'.].#.0 [   ",
"  [ 0 #.].$.'.$.{.{.'.{.].].{.Z t I &.N c.d.| | | | | | | | | e.Z $.'.'.'.'.'.$.'.'.'.].#.0 [   ",
"  [ f.@.Y {.{.{.'.{.{.'.'.'.{.Z t I &.&.g.| | | | | | | | | h.t Z {.].'.'.'.'.'.'.$.'._.i.0 [   ",
"  [ 0 #.Y ].{.'.{.'.'.{.'.'.$.Z t I &.j.k.| | | | | | | | | l.M Z $.'.'.'.$.'.$.'.'.]._.#.f.[   ",
"  [ f.m.@._.Y '.{.'.'.{.'.'.{.Z t I N n.| | | | | | | | | o.I t Z {.'.'.'.'.'.'.'._._.i.#.+ [   ",
"    f.0 :.m.i.Y {.$.{.'.'.'.{.Z t I p.q.| | | | | | | | | r.I t Z $.'.'.'.'.$.$.].i.m.:.:.f.    ",
"      [ f.0 #._.{.{.'.{.'.'.$.Z t I s.| | | | | | | | | t.u.I t Z {.'.'.{.{.$.'._.#.0 f.[       ",
"        [ f.v.X _.Y '.'.'.'.{.Z t I w.| | | | | | | | | x.N &.t Z {.'.'.'.'._._.@.v.f.@         ",
"          . 0 y.#.X Y {.{.'.$.Z t z.| | | | | | | | | A.B.` &.t Z {.'.{.$._.i.#.y.0 f.          ",
"            . f.0 #.Y '.'.'.{.Z t C.| | | | | | | | | 6.` N &.t Z $.{.'.]._.#.0 f..             ",
"              [ f.y.@._.Y ].{.Z D.E.| | | | | | | | F.G.N N &.t %.$.].Y L @.y.f.@               ",
"                [ 0 v.#.i.Y {.%.H.| | | | | | | | | I.N N N ` E %.{._.i.#.v.0 .                 ",
"                  f.f.0 v._.{.J.K.| | | | | | | | | L.N N N ~.^ %.{.i.v.0 f.f.                  ",
"                    @ f.y.@.Y M.| | | | | | | | | N.E ^ ^ I t T $.Y @.:.f.@                     ",
"                      [ # v.O.P.| | | | | | | | | Q.{ { { { , h X 7 v.# [                       ",
"                        f.+ R.| | | | | | | | | S.; ; % ; ; ; ; :.0 + f.                        ",
"                          [ [ [ [ . . . [ . . . . . . . . . . [ [ [ [                           ",
"                                                                                                "};
