/* XPM */
static char * N8_xpm[] = {
"48 48 295 2",
"  	c #499B49",
". 	c #1C192B",
"+ 	c #201D31",
"@ 	c #181424",
"# 	c #222136",
"$ 	c #2A283F",
"% 	c #302F47",
"& 	c #3D3B4E",
"* 	c #383955",
"= 	c #333249",
"- 	c #323047",
"; 	c #2B2B43",
"> 	c #3A3C5A",
", 	c #464866",
"' 	c #525471",
") 	c #5D5F79",
"! 	c #965D73",
"~ 	c #BC4F62",
"{ 	c #D24353",
"] 	c #E63542",
"^ 	c #F12731",
"/ 	c #F61E27",
"( 	c #FA141A",
"_ 	c #FE0508",
": 	c #FA1319",
"< 	c #E53341",
"[ 	c #955D73",
"} 	c #474969",
"| 	c #4A4F74",
"1 	c #7D6085",
"2 	c #D0546C",
"3 	c #F4303D",
"4 	c #FF0000",
"5 	c #F32B3A",
"6 	c #CB4560",
"7 	c #6E4B6F",
"8 	c #1A1628",
"9 	c #23223A",
"0 	c #4E4564",
"a 	c #C74463",
"b 	c #FB1620",
"c 	c #FB111A",
"d 	c #C13148",
"e 	c #3D3046",
"f 	c #604766",
"g 	c #E3303F",
"h 	c #DF2538",
"i 	c #543753",
"j 	c #333553",
"k 	c #4E4F74",
"l 	c #E53247",
"m 	c #E0293D",
"n 	c #BD4B66",
"o 	c #B1364E",
"p 	c #615E78",
"q 	c #F7232F",
"r 	c #F21F2A",
"s 	c #484866",
"t 	c #4D5072",
"u 	c #606487",
"v 	c #AA6987",
"w 	c #FF0507",
"x 	c #E3697B",
"y 	c #C092AA",
"z 	c #ACA2BC",
"A 	c #A5A6C1",
"B 	c #C191A9",
"C 	c #E56678",
"D 	c #99597B",
"E 	c #60658B",
"F 	c #757CA2",
"G 	c #CF6780",
"H 	c #C98AA0",
"I 	c #A3A7C2",
"J 	c #A5A9C3",
"K 	c #CF849A",
"L 	c #C25E7C",
"M 	c #444665",
"N 	c #5D6182",
"O 	c #757A9C",
"P 	c #898EB1",
"Q 	c #DD687C",
"R 	c #E86373",
"S 	c #ED5665",
"T 	c #D4637C",
"U 	c #5C5F80",
"V 	c #989DBB",
"W 	c #E46477",
"X 	c #CD869C",
"Y 	c #D57F93",
"Z 	c #DD657B",
"` 	c #8F93AD",
" .	c #5B628B",
"..	c #898EAF",
"+.	c #E07082",
"@.	c #C58EA5",
"#.	c #DA7689",
"$.	c #969BBA",
"%.	c #878CAF",
"&.	c #7A81A8",
"*.	c #8C91B3",
"=.	c #9FA3C0",
"-.	c #D18398",
";.	c #D57D92",
">.	c #CC899F",
",.	c #5D6691",
"'.	c #B69DB5",
").	c #E86172",
"!.	c #EE5463",
"~.	c #FE0F13",
"{.	c #B1A1B9",
"].	c #656C96",
"^.	c #EA5C6C",
"/.	c #C98AA1",
"(.	c #D08298",
"_.	c #3C4164",
":.	c #535A83",
"<.	c #6A719B",
"[.	c #9DA2BE",
"}.	c #B49CB5",
"|.	c #FC2128",
"1.	c #E26A7C",
"2.	c #ABA2BC",
"3.	c #A4A6C1",
"4.	c #C192AA",
"5.	c #E56677",
"6.	c #FA2E37",
"7.	c #AB9AB5",
"8.	c #4C547D",
"9.	c #7980A4",
"0.	c #C390A7",
"a.	c #FD1B21",
"b.	c #FB272E",
"c.	c #B990AA",
"d.	c #9598B1",
"e.	c #35395B",
"f.	c #3B436A",
"g.	c #4D5680",
"h.	c #686F99",
"i.	c #BC98B0",
"j.	c #F44652",
"k.	c #F14E5B",
"l.	c #B69AB3",
"m.	c #323759",
"n.	c #2F3352",
"o.	c #464E79",
"p.	c #4F5882",
"q.	c #676E98",
"r.	c #A0A0BC",
"s.	c #CF8399",
"t.	c #F44551",
"u.	c #F14B59",
"v.	c #CB889E",
"w.	c #9EA1BD",
"x.	c #697097",
"y.	c #BD97AF",
"z.	c #EE5664",
"A.	c #E96070",
"B.	c #B899B1",
"C.	c #3F4872",
"D.	c #BB86A1",
"E.	c #F04F5D",
"F.	c #EA5162",
"G.	c #AE7E9C",
"H.	c #686F97",
"I.	c #414A74",
"J.	c #3E4771",
"K.	c #716C96",
"L.	c #D7516B",
"M.	c #FF0305",
"N.	c #CC4D6A",
"O.	c #61618A",
"P.	c #393F64",
"Q.	c #262741",
"R.	c #5A557E",
"S.	c #E33149",
"T.	c #D9314C",
"U.	c #4C4E78",
"V.	c #D32F4B",
"W.	c #FE1217",
"X.	c #E26C7E",
"Y.	c #AEA3BC",
"Z.	c #A7A7C1",
"`.	c #ADA1BB",
" +	c #C291A8",
".+	c #C63250",
"++	c #963E62",
"@+	c #FB252D",
"#+	c #BC8EA7",
"$+	c #BF8CA4",
"%+	c #FD1C22",
"&+	c #FE0206",
"*+	c #844369",
"=+	c #E0233C",
"-+	c #C27591",
";+	c #C8708B",
">+	c #D42A46",
",+	c #68476F",
"'+	c #FF0102",
")+	c #F32D3D",
"!+	c #7B80A3",
"~+	c #787EA4",
"{+	c #7F7EA2",
"]+	c #F8222F",
"^+	c #FC0710",
"/+	c #504770",
"(+	c #A03A5E",
"_+	c #D34966",
":+	c #DC415A",
"<+	c #8E3F65",
"[+	c #BC3555",
"}+	c #BE5374",
"|+	c #C94C6B",
"1+	c #AE385A",
"2+	c #1F1D32",
"3+	c #C6304F",
"4+	c #B75779",
"5+	c #C25171",
"6+	c #B93555",
"7+	c #363D61",
"8+	c #C9304E",
"9+	c #C94D6C",
"0+	c #BA3455",
"a+	c #2E314F",
"b+	c #C33352",
"c+	c #D24A67",
"d+	c #DC3F59",
"e+	c #AC385B",
"f+	c #B0395B",
"g+	c #F2283A",
"h+	c #6B719B",
"i+	c #6F6D96",
"j+	c #F71D2C",
"k+	c #9B3C60",
"l+	c #8D4167",
"m+	c #B35C7F",
"n+	c #BD5576",
"o+	c #703B5E",
"p+	c #2B2D4A",
"q+	c #473E63",
"r+	c #FA0914",
"s+	c #FA1724",
"t+	c #9E6287",
"u+	c #A55F84",
"v+	c #FC101A",
"w+	c #ED1627",
"x+	c #272842",
"y+	c #D12138",
"z+	c #FD0A12",
"A+	c #D54763",
"B+	c #A26085",
"C+	c #7B6B94",
"D+	c #6D6E98",
"E+	c #7C6B94",
"F+	c #A36085",
"G+	c #D74561",
"H+	c #FE060D",
"I+	c #C32138",
"J+	c #7A2E4B",
"K+	c #FE0104",
"L+	c #F9060F",
"M+	c #5A2037",
"N+	c #C8233B",
"O+	c #B71C30",
"P+	c #402C49",
"Q+	c #E31627",
"R+	c #D4182B",
"S+	c #2B223A",
"T+	c #472139",
"U+	c #DC1527",
"V+	c #D51120",
"W+	c #301D32",
"X+	c #A92B47",
"Y+	c #F70D1B",
"Z+	c #F50B18",
"`+	c #A21E34",
" @	c #593556",
".@	c #B42A45",
"+@	c #EA192B",
"@@	c #E81628",
"#@	c #B2273F",
"$@	c #522B48",
"%@	c #75273D",
"&@	c #A82438",
"*@	c #C71A2B",
"=@	c #E11522",
"-@	c #ED0E19",
";@	c #F40811",
">@	c #FA040A",
",@	c #FE0101",
"'@	c #FA0409",
")@	c #E11220",
"!@	c #C61B2C",
"~@	c #A72135",
"{@	c #72273E",
"                                                                                                ",
"                          . . . . . . . . . . . . . + + . . . @ . . .                           ",
"                        # $ % % & & & & & & & * & & & & & & & = - ; $ #                         ",
"                      . ; > , ' ) ! ~ { ] ^ / ( _ : / ^ < { ~ [ ' } > ; .                       ",
"                    @ # & | 1 2 3 4 4 4 4 4 4 4 4 4 4 4 4 4 4 4 5 6 7 = + 8                     ",
"                  + 9 - 0 a b 4 4 4 4 4 4 4 4 4 4 4 4 4 4 4 4 4 4 4 c d e 9 +                   ",
"                + ; * f g 4 4 4 4 4 4 4 4 4 4 4 4 4 4 4 4 4 4 4 4 4 4 4 h i ; +                 ",
"              @ + j k l 4 4 4 4 4 4 4 4 4 4 4 4 4 4 4 4 4 4 4 4 4 4 4 4 4 m * + @               ",
"            + # % } n 4 4 4 4 4 4 4 4 4 4 4 4 4 4 4 4 4 4 4 4 4 4 4 4 4 4 4 o % # +             ",
"          + ; j , p q 4 4 4 4 4 4 4 4 4 4 4 4 4 4 4 4 4 4 4 4 4 4 4 4 4 4 4 r s j ; +           ",
"        @ 9 * t u v 4 4 4 4 4 4 4 4 4 4 w x y z A z B C 4 4 4 4 4 4 4 4 4 4 4 D ' j 9 @         ",
"      . # - } E F G 4 4 4 4 4 4 4 4 4 4 H I I I J I I I K 4 4 4 4 4 4 4 4 4 4 L E } - # .       ",
"    # % & M N O P Q 4 4 4 4 4 4 4 4 4 R I I I I I I I I I S 4 4 4 4 4 4 4 4 4 T O U } j ; 9     ",
"  . $ > t u O P V W 4 4 4 4 4 4 4 4 4 X I I I I I I I J I Y 4 4 4 4 4 4 4 4 4 Z ` O u ' > $ .   ",
"  . ; M  .F ..V I +.4 4 4 4 4 4 4 4 4 @.J I I I I I I I I X 4 4 4 4 4 4 4 4 4 #.$.%.O  .M ; .   ",
"  . ; } E &.*.=.J -.4 4 4 4 4 4 4 4 4 X I I I I I I I I I ;.4 4 4 4 4 4 4 4 4 >.=.$.&.E , ; .   ",
"  . ; , ,.&.*.=.J '.4 4 4 4 4 4 4 4 4 ).I I I I I J I I I !.4 4 4 4 4 4 4 4 ~.{.=.*.&.].} ; .   ",
"  . ; ,  .F *.V I J ^.4 4 4 4 4 4 4 4 4 /.I I I I I I J (.4 4 4 4 4 4 4 4 4 C I V P F  .M ; .   ",
"  . $ _.:.<.&.*.$.[.}.|.4 4 4 4 4 4 4 4 w 1.y 2.3.2.4.5.4 4 4 4 4 4 4 4 4 6.7.$.*.&.<.:._.; 8   ",
"  8 9 > 8. .<.9.%.$.[.0.a.4 4 4 4 4 4 4 4 4 4 4 4 4 4 4 4 4 4 4 4 4 4 4 b.c.d.%.9.<. .t e.9 8   ",
"  . 9 j f.g. .h.F ..$.I i.j.4 4 4 4 4 4 4 4 4 4 4 4 4 4 4 4 4 4 4 4 4 k.l.$...F h. .g.f.m.# 8   ",
"  @ # n.f.o.p. .q.9.` $.[.r.s.t.4 4 4 4 4 4 4 4 4 4 4 4 4 4 4 4 4 u.v.w.$.*.9.q. .p.o.f.n.9 8   ",
"  8 # n.f.o.o.g. .x.F %.$.[.J y.z.4 4 4 4 4 4 4 4 4 4 4 4 4 4 4 A.B.[.$...F x. .p.8.C.f.n.9 8   ",
"  8 # n.f.C.o.o.8. .h.F %.D.E.4 4 4 4 4 4 4 4 4 4 4 4 4 4 4 4 4 4 4 F.G.F H. .8.o.I.C.J.n.# 8   ",
"  8 9 n.f.C.C.I.o.8. .K.L.4 4 4 4 4 4 4 4 4 4 4 4 4 4 4 4 4 4 4 4 4 4 M.N.O.8.o.C.I.I.P.n.Q.8   ",
"  8 9 n.f.C.C.C.I.o.R.S.4 4 4 4 4 4 4 4 4 4 4 4 4 4 4 4 4 4 4 4 4 4 4 4 4 T.U.I.C.C.I.f.n.+ 8   ",
"  8 # n.J.C.o.C.I.I.V.4 4 4 4 4 4 4 4 4 W.X.B Y.Z.`. +x ~.4 4 4 4 4 4 4 4 4 .+I.I.o.I.f.n.+ 8   ",
"  8 9 n.f.C.o.C.I.++4 4 4 4 4 4 4 4 4 @+#+[.[.[.[.[.[.[.$+%+4 4 4 4 4 4 4 4 &+*+C.C.C.J.n.Q.8   ",
"  8 9 n.f.C.C.C.C.=+4 4 4 4 4 4 4 4 4 -+*.*.*.P *.*.*.*.*.;+4 4 4 4 4 4 4 4 4 >+C.C.C.P.n.9 8   ",
"  8 9 n.f.C.C.o.,+'+4 4 4 4 4 4 4 4 )+!+~+~+~+~+F ~+~+~+9.{+]+4 4 4 4 4 4 4 4 ^+/+g.C.J.n.9 8   ",
"  8 9 n.J.C.C.C.(+4 4 4 4 4 4 4 4 4 _+<.<.<.<.<.<.<.<.<.<.<.:+4 4 4 4 4 4 4 4 4 <+C.C.J.n.9 8   ",
"  8 9 n.J.o.C.o.[+4 4 4 4 4 4 4 4 4 }+<.q.].q.q.q.q.q.q.h.q.|+4 4 4 4 4 4 4 4 4 1+C.C.J.n.9 8   ",
"  8 2+m.f.I.I.I.3+4 4 4 4 4 4 4 4 4 4+q.q.q.q.q.q.q.q.h.q.q.5+4 4 4 4 4 4 4 4 4 6+o.C.P.7+9 8   ",
"  8 9 n.f.J.I.C.8+4 4 4 4 4 4 4 4 4 }+<.q.<.q.<.h.h.h.h.<.<.9+4 4 4 4 4 4 4 4 4 0+C.J.P.n.2+8   ",
"  8 2+a+m.P.f.C.b+4 4 4 4 4 4 4 4 4 c+h.q.<.q.q.h.h.h.h.<.q.d+4 4 4 4 4 4 4 4 4 e+P.P.7+n.+ 8   ",
"    2+9 Q.a+7+f.f+4 4 4 4 4 4 4 4 4 g+h+<.q.<.q.h.h.h.h.<.i+j+4 4 4 4 4 4 4 4 4 k+7+a+Q.Q.2+    ",
"      8 2+9 n.P.l+4 4 4 4 4 4 4 4 4 4 m+h.h.h.h.h.h.h.h.h.n+4 4 4 4 4 4 4 4 4 4 o+n.9 2+8       ",
"        8 2+p+e.q+r+4 4 4 4 4 4 4 4 4 s+t+h.h.h.h.h.h.h.u+v+4 4 4 4 4 4 4 4 4 w+m.p+2+@         ",
"          . 9 x+n.y+4 4 4 4 4 4 4 4 4 4 z+A+B+C+D+E+F+G+H+4 4 4 4 4 4 4 4 4 4 I+x+9 2+          ",
"            . 2+9 J+K+4 4 4 4 4 4 4 4 4 4 4 4 4 4 4 4 4 4 4 4 4 4 4 4 4 4 4 L+M+2+.             ",
"              8 2+x+N+4 4 4 4 4 4 4 4 4 4 4 4 4 4 4 4 4 4 4 4 4 4 4 4 4 4 4 O+2+@               ",
"                8 9 P+Q+4 4 4 4 4 4 4 4 4 4 4 4 4 4 4 4 4 4 4 4 4 4 4 4 4 R+S+.                 ",
"                  2+2+T+U+4 4 4 4 4 4 4 4 4 4 4 4 4 4 4 4 4 4 4 4 4 4 4 V+W+2+                  ",
"                    @ 2+x+X+Y+4 4 4 4 4 4 4 4 4 4 4 4 4 4 4 4 4 4 4 Z+`+2+@                     ",
"                      8 # p+ @.@+@4 4 4 4 4 4 4 4 4 4 4 4 4 4 4 @@#@$@# 8                       ",
"                        2++ # $ ; %@&@*@=@-@;@>@,@'@;@-@)@!@~@{@Q.9 + 2+                        ",
"                          8 8 8 8 . . . 8 . . . . . . . . . . 8 8 8 8                           ",
"                                                                                                "};
