/* XPM */
static char * N9_xpm[] = {
"48 48 286 2",
"  	c #499B49",
". 	c #1C192B",
"+ 	c #201D31",
"@ 	c #181424",
"# 	c #222136",
"$ 	c #2A283F",
"% 	c #302F47",
"& 	c #3D3B4E",
"* 	c #62394B",
"= 	c #A03040",
"- 	c #C92633",
"; 	c #E41A24",
"> 	c #ED1320",
", 	c #F60C13",
"' 	c #FD0204",
") 	c #FB0509",
"! 	c #F50D14",
"~ 	c #E71822",
"{ 	c #D2222F",
"] 	c #AC2E3D",
"^ 	c #662F45",
"/ 	c #323047",
"( 	c #2B2B43",
"_ 	c #3A3C5A",
": 	c #464866",
"< 	c #525471",
"[ 	c #5D5F79",
"} 	c #995C72",
"| 	c #DC3B4A",
"1 	c #FE0405",
"2 	c #FF0000",
"3 	c #FE0508",
"4 	c #DF2C3D",
"5 	c #90405D",
"6 	c #4A4F74",
"7 	c #60658B",
"8 	c #897596",
"9 	c #E44C5D",
"0 	c #D82D45",
"a 	c #5B3046",
"b 	c #1A1628",
"c 	c #23223A",
"d 	c #444665",
"e 	c #5B628B",
"f 	c #A66D8E",
"g 	c #F72D3B",
"h 	c #F31320",
"i 	c #7C2B40",
"j 	c #383955",
"k 	c #474969",
"l 	c #B06683",
"m 	c #FE0E14",
"n 	c #F90D17",
"o 	c #80334D",
"p 	c #333553",
"q 	c #9F6E8D",
"r 	c #FD151D",
"s 	c #F51623",
"t 	c #683651",
"u 	c #606487",
"v 	c #7D7AA0",
"w 	c #F33645",
"x 	c #E02335",
"y 	c #332F47",
"z 	c #757A9C",
"A 	c #CC6984",
"B 	c #F24B58",
"C 	c #CA89A0",
"D 	c #B09FB9",
"E 	c #A6A5C0",
"F 	c #ADA1BB",
"G 	c #C48FA6",
"H 	c #EA5C6B",
"I 	c #AA3952",
"J 	c #4D5072",
"K 	c #8E8CAD",
"L 	c #F92E39",
"M 	c #E86070",
"N 	c #A5A6C0",
"O 	c #A3A7C2",
"P 	c #DA768A",
"Q 	c #F4202F",
"R 	c #5C5370",
"S 	c #757CA2",
"T 	c #898EAF",
"U 	c #C0849E",
"V 	c #FA2F38",
"W 	c #ACA2BC",
"X 	c #A5A9C3",
"Y 	c #A4A6C1",
"Z 	c #F04F5C",
"` 	c #B05171",
" .	c #5D6182",
"..	c #898EB1",
"+.	c #989DBB",
"@.	c #E06D7F",
"#.	c #DD7286",
"$.	c #CC879D",
"%.	c #E83C4E",
"&.	c #5C5F80",
"*.	c #9FA3C0",
"=.	c #B09EB8",
"-.	c #FF0405",
";.	c #8D7494",
">.	c #FC2128",
",.	c #B59EB7",
"'.	c #FC252C",
").	c #C26F8C",
"!.	c #7A81A8",
"~.	c #8C91B3",
"{.	c #ABA5BF",
"].	c #F73A45",
"^.	c #E06176",
"/.	c #5D6691",
"(.	c #AEA3BC",
"_.	c #F73944",
":.	c #F13C4C",
"<.	c #656C96",
"[.	c #A8A7C1",
"}.	c #B39DB6",
"|.	c #FD1017",
"1.	c #797BA1",
"2.	c #3C4164",
"3.	c #535A83",
"4.	c #6A719B",
"5.	c #969BBA",
"6.	c #9DA2BE",
"7.	c #FB2A32",
"8.	c #8C6991",
"9.	c #4C547D",
"0.	c #7980A4",
"a.	c #878CAF",
"b.	c #F24653",
"c.	c #DD7587",
"d.	c #CB879E",
"e.	c #97577B",
"f.	c #35395B",
"g.	c #3B436A",
"h.	c #4D5680",
"i.	c #686F99",
"j.	c #DB687E",
"k.	c #F9323B",
"l.	c #ABA2BC",
"m.	c #F0505E",
"n.	c #A2486C",
"o.	c #323759",
"p.	c #2F3352",
"q.	c #464E79",
"r.	c #4F5882",
"s.	c #676E98",
"t.	c #B97D94",
"u.	c #E76272",
"v.	c #A5A6C1",
"w.	c #D9788B",
"x.	c #A73F63",
"y.	c #697097",
"z.	c #7B7BA0",
"A.	c #F43241",
"B.	c #F14C5A",
"C.	c #C98AA0",
"D.	c #AF9FB9",
"E.	c #C38FA7",
"F.	c #EA5D6D",
"G.	c #AB395B",
"H.	c #3F4872",
"I.	c #B96383",
"J.	c #AA395B",
"K.	c #3E4771",
"L.	c #414A74",
"M.	c #6B6D97",
"N.	c #E93E53",
"O.	c #A43C60",
"P.	c #393F64",
"Q.	c #262741",
"R.	c #7F6C91",
"S.	c #F32D3D",
"T.	c #9C3E62",
"U.	c #8F688C",
"V.	c #F13041",
"W.	c #884268",
"X.	c #776C93",
"Y.	c #E04960",
"Z.	c #EA4B59",
"`.	c #EB3A4E",
" +	c #6B446C",
".+	c #686F97",
"++	c #AB6F8E",
"@+	c #E8495C",
"#+	c #C1728D",
"$+	c #7A80A4",
"%+	c #ED2F44",
"&+	c #F90C18",
"*+	c #414872",
"=+	c #987498",
"-+	c #C1637F",
";+	c #DF4961",
">+	c #EF3548",
",+	c #F62736",
"'+	c #FD0F17",
")+	c #FB1721",
"!+	c #F42B3A",
"~+	c #E83F54",
"{+	c #CE5874",
"]+	c #A9708F",
"^+	c #6B7096",
"/+	c #FB0D18",
"(+	c #E5283F",
"_+	c #96577C",
":+	c #C7304E",
"<+	c #C74563",
"[+	c #983D62",
"}+	c #1F1D32",
"|+	c #6F6D96",
"1+	c #F41D2D",
"2+	c #F90C19",
"3+	c #554D77",
"4+	c #363D61",
"5+	c #BC5576",
"6+	c #CF2C49",
"7+	c #2E314F",
"8+	c #8F658C",
"9+	c #FA1420",
"0+	c #844167",
"a+	c #8D6991",
"b+	c #F1293B",
"c+	c #DE2943",
"d+	c #A8395C",
"e+	c #DA2741",
"f+	c #A34065",
"g+	c #5C557E",
"h+	c #6C6E98",
"i+	c #B3597C",
"j+	c #F81A28",
"k+	c #FD050C",
"l+	c #7D4269",
"m+	c #2B2D4A",
"n+	c #AE385A",
"o+	c #FC0812",
"p+	c #E33149",
"q+	c #C54E6D",
"r+	c #AD5E82",
"s+	c #7D6B93",
"t+	c #6F6E97",
"u+	c #736D96",
"v+	c #856991",
"w+	c #A16186",
"x+	c #C94F6E",
"y+	c #F02B3E",
"z+	c #C02B47",
"A+	c #272842",
"B+	c #AE3A5C",
"C+	c #E11E33",
"D+	c #3E3D60",
"E+	c #EB1B30",
"F+	c #5E3D60",
"G+	c #AD3454",
"H+	c #EA1A2E",
"I+	c #643E60",
"J+	c #AC2F4C",
"K+	c #D6233B",
"L+	c #4D3C5F",
"M+	c #AB223A",
"N+	c #F21C2D",
"O+	c #A13D61",
"P+	c #AA1E33",
"Q+	c #E82D43",
"R+	c #B04263",
"S+	c #504D78",
"T+	c #2B2136",
"U+	c #6C2A45",
"V+	c #952E4C",
"W+	c #B22A45",
"X+	c #CA2A42",
"Y+	c #DE2537",
"Z+	c #E71F2F",
"`+	c #ED1B29",
" @	c #F21622",
".@	c #F70F19",
"+@	c #FC060C",
"@@	c #FE0203",
"#@	c #FA0A13",
"$@	c #F41421",
"%@	c #E52133",
"&@	c #D12C42",
"*@	c #AF3953",
"=@	c #774462",
"                                                                                                ",
"                          . . . . . . . . . . . . . + + . . . @ . . .                           ",
"                        # $ % % & & & * = - ; > , ' ) ! ~ { ] ^ / ( $ #                         ",
"                      . ( _ : < [ } | 1 2 2 2 2 2 2 2 2 2 2 2 3 4 5 _ ( .                       ",
"                    @ # & 6 7 8 9 2 2 2 2 2 2 2 2 2 2 2 2 2 2 2 2 2 0 a + b                     ",
"                  + c / d e f g 2 2 2 2 2 2 2 2 2 2 2 2 2 2 2 2 2 2 2 h i c +                   ",
"                + ( j k [ l m 2 2 2 2 2 2 2 2 2 2 2 2 2 2 2 2 2 2 2 2 2 n o ( +                 ",
"              @ + p 6 7 q r 2 2 2 2 2 2 2 2 2 2 2 2 2 2 2 2 2 2 2 2 2 2 2 s t + @               ",
"            + # % k u v w 2 2 2 2 2 2 2 2 2 2 2 2 2 2 2 2 2 2 2 2 2 2 2 2 2 x y # +             ",
"          + ( p : [ z A 2 2 2 2 2 2 2 2 2 2 B C D E F G H 2 2 2 2 2 2 2 2 2 2 I p ( +           ",
"        @ c j J u z K L 2 2 2 2 2 2 2 2 2 M N O O O O O O P 2 2 2 2 2 2 2 2 2 Q R p c @         ",
"      . # / k 7 S T U 2 2 2 2 2 2 2 2 2 V W O O X O O O O Y Z 2 2 2 2 2 2 2 2 2 ` k / # .       ",
"    # % & d  .z ..+.@.2 2 2 2 2 2 2 2 2 #.O O O O O O O O O $.2 2 2 2 2 2 2 2 2 %.&.k p ( c     ",
"  . $ _ J u z ..+.*.B 2 2 2 2 2 2 2 2 2 G O O O O O O X O X =.2 2 2 2 2 2 2 2 2 -.;.u < _ $ .   ",
"  . ( d e S T +.O X >.2 2 2 2 2 2 2 2 2 ,.O O O O O O O O O O '.2 2 2 2 2 2 2 2 2 ).z e d ( .   ",
"  . ( k 7 !.~.*.X {.2 2 2 2 2 2 2 2 2 2 W O O O O O O O O O O ].2 2 2 2 2 2 2 2 2 ^.!.7 : ( .   ",
"  . ( : /.!.~.*.X (.2 2 2 2 2 2 2 2 2 2 W O O O O X O O O O O _.2 2 2 2 2 2 2 2 2 :.!.<.k ( .   ",
"  . ( : e S ~.+.O [.2 2 2 2 2 2 2 2 2 2 }.O O O O O O X O O X '.2 2 2 2 2 2 2 2 2 |.1.e d ( .   ",
"  . $ 2.3.4.!.~.5.6.7.2 2 2 2 2 2 2 2 2 G O O O O O O O O O D 2 2 2 2 2 2 2 2 2 2 2 8.3.2.( b   ",
"  b c _ 9.e 4.0.a.5.b.2 2 2 2 2 2 2 2 2 c.O O O O O O O O O d.2 2 2 2 2 2 2 2 2 2 2 e.J f.c b   ",
"  . c p g.h.e i.S T j.2 2 2 2 2 2 2 2 2 k.l.O O O O O O O X m.2 2 2 2 2 2 2 2 2 2 2 n.g.o.# b   ",
"  @ # p.g.q.r.e s.0.t.2 2 2 2 2 2 2 2 2 2 u.v.O O O O O O w.2 2 2 2 2 2 2 2 2 2 2 2 x.g.p.c b   ",
"  b # p.g.q.q.h.e y.z.A.2 2 2 2 2 2 2 2 2 2 B.C.D.N (.E.F.2 2 2 2 2 2 2 2 2 2 2 2 2 G.g.p.c b   ",
"  b # p.g.H.q.q.9.e i.I.2 2 2 2 2 2 2 2 2 2 2 2 2 2 2 2 2 2 2 2 2 2 2 2 2 2 2 2 2 2 J.K.p.# b   ",
"  b c p.g.H.H.L.q.9.e M.N.2 2 2 2 2 2 2 2 2 2 2 2 2 2 2 2 2 2 2 2 2 2 2 2 2 2 2 2 2 O.P.p.Q.b   ",
"  b c p.g.H.H.H.L.q.h.e R.S.2 2 2 2 2 2 2 2 2 2 2 2 2 2 2 2 2 2 2 2 2 2 2 2 2 2 2 2 T.g.p.+ b   ",
"  b # p.K.H.q.H.L.L.q.9.e U.V.2 2 2 2 2 2 2 2 2 2 2 2 2 2 2 2 2 2 2 2 2 2 2 2 2 2 2 W.g.p.+ b   ",
"  b c p.g.H.q.H.L.H.H.q.9.e X.Y.2 2 2 2 2 2 2 2 2 2 2 2 2 2 2 Z.`.2 2 2 2 2 2 2 2 2  +K.p.Q.b   ",
"  b c p.g.H.H.H.H.K.H.L.q.h.e .+++@+2 2 2 2 2 2 2 2 2 2 2 :.#+$+%+2 2 2 2 2 2 2 2 &+*+P.p.c b   ",
"  b c p.g.H.H.q.L.K.H.L.L.q.9.e .+S =+-+;+>+,+'+)+!+~+{+]+0.S ^+/+2 2 2 2 2 2 2 2 (+H.K.p.c b   ",
"  b c p.K.H.H.H.K.L.L.H.H.L.q.h.e s.4.4.4.4.4.4.4.4.4.4.4.4..+_+2 2 2 2 2 2 2 2 2 :+H.K.p.c b   ",
"  b c p.K.q.H.q.L.L.H.L.K.K.L.h.e <.s.4.s.<.s.s.s.s.s.s.i.s.<.<+2 2 2 2 2 2 2 2 2 [+H.K.p.c b   ",
"  b }+o.g.L.L.L.H.L.L.H.H.H.L.h.e <.s.s.s.s.s.s.s.s.s.i.s.s.|+1+2 2 2 2 2 2 2 2 2+3+H.P.4+c b   ",
"  b c p.g.K.L.H.L.H.H.L.H.H.q.h.e <.s.4.s.4.s.4.i.i.i.i.4.4.5+2 2 2 2 2 2 2 2 2 6+H.K.P.p.}+b   ",
"  b }+7+o.P.g.H.L.H.H.L.H.H.L.h.e <.4.i.s.4.s.s.i.i.i.i.4.8+9+2 2 2 2 2 2 2 2 2 0+P.P.4+p.+ b   ",
"    }+c Q.7+4+g.L.q.L.H.H.H.L.h.e <.i.4.4.s.4.s.i.i.i.i.a+b+2 2 2 2 2 2 2 2 2 c+K.4+7+Q.Q.}+    ",
"      b }+c p.P.L.L.H.L.d+e+f+g+e <.s.4.i.i.i.i.i.i.h+i+j+2 2 2 2 2 2 2 2 2 k+l+P.p.c }+b       ",
"        b }+m+f.P.g.H.H.n+2 2 o+p+q+r+8+s+t+u+v+w+x+y+2 2 2 2 2 2 2 2 2 2 2 z+P.o.m+}+@         ",
"          . c A+p.f.g.L.B+2 2 2 2 2 2 2 2 2 2 2 2 2 2 2 2 2 2 2 2 2 2 2 2 C+D+p.A+c }+          ",
"            . }+c p.g.H.n+2 2 2 2 2 2 2 2 2 2 2 2 2 2 2 2 2 2 2 2 2 2 2 E+F+p.c }+.             ",
"              b }+A+o.P.G+2 2 2 2 2 2 2 2 2 2 2 2 2 2 2 2 2 2 2 2 2 2 H+I+o.A+}+@               ",
"                b c m+p.J+2 2 2 2 2 2 2 2 2 2 2 2 2 2 2 2 2 2 2 2 2 K+L+p.m+c .                 ",
"                  }+}+c M+2 2 2 2 2 2 2 2 2 2 2 2 2 2 2 2 2 2 2 N+O+4+m+c }+}+                  ",
"                    @ }+P+2 2 2 2 2 2 2 2 2 2 2 2 2 2 2 2 2 Q+R+S+g.o.Q.}+@                     ",
"                      b T+U+V+W+X+Y+Z+`+ @.@+@@@#@$@%@&@*@=@: d f.p m+# b                       ",
"                        }++ # $ ( ( % ( % % ( % ( ( ( % ( ( ( ( Q.c + }+                        ",
"                          b b b b . . . b . . . . . . . . . . b b b b                           ",
"                                                                                                "};
