/* XPM */
static char * PLCS3_xpm[] = {
"48 48 15 1",
" 	c #499B49",
".	c #14182E",
"+	c #21110D",
"@	c #3A3F5E",
"#	c #755338",
"$	c #FFC2A1",
"%	c #503625",
"&	c #2B2B45",
"*	c #342319",
"=	c #BD6A62",
"-	c #677598",
";	c #52333F",
">	c #DFE0E8",
",	c #8F4D57",
"'	c #4FA4B8",
"                                                ",
"                                                ",
"                                                ",
"                                                ",
"                                                ",
"                                                ",
"               ..................               ",
"               ..................               ",
"               ..................               ",
"         +++...@@@@@@@@@@@@@@@@@@...+++         ",
"         +++...@@@@@@@@@@@@@@@@@@...+++         ",
"         +++...@@@@@@@@@@@@@@@@@@...+++         ",
"      +++...@@@@@@@@@@@@@@@@@@@@@@@@...+++      ",
"      +++...@@@@@@@@@@@@@@@@@@@@@@@@...+++      ",
"      +++...@@@@@@@@@@@@@@@@@@@@@@@@...+++      ",
"   +++###...@@@@@@@@@@@@@@@@@@@@@@@@...###+++   ",
"   +++###...@@@@@@@@@@@@@@@@@@@@@@@@...###+++   ",
"   +++###...@@@@@@@@@@@@@@@@@@@@@@@@...###+++   ",
"   +++###...@@@@@@$$$@@@@@@@@@@@@@@@...###+++   ",
"   +++###...@@@@@@$$$@@@@@@@@@@@@@@@...###+++   ",
"   +++###...@@@@@@$$$@@@@@@@@@@@@@@@...###+++   ",
"   +++###...$$$$$$$$$@@@@@@@@@@@@@@@...###+++   ",
"   +++###...$$$$$$$$$@@@@@@@@@@@@@@@...###+++   ",
"   +++###...$$$$$$$$$@@@@@@@@@@@@@@@...###+++   ",
"   +++%%%...$$$&&&&&&@@@@@@@@@@@@@@@...%%%+++   ",
"   +++%%%...$$$&&&&&&@@@@@@@@@@@@@@@...%%%+++   ",
"   +++%%%...$$$&&&&&&@@@@@@@@@@@@@@@...%%%+++   ",
"   +++***...$$$...$$$@@@$$$$$$@@@@@@...***+++   ",
"   +++***...$$$...$$$@@@$$$$$$@@@@@@...***+++   ",
"   +++***...$$$...$$$@@@$$$$$$@@@@@@...***+++   ",
"   +++***...===...$$$@@@===$$$@@@...---***+++   ",
"   +++***...===...$$$@@@===$$$@@@...---***+++   ",
"   +++***...===...$$$@@@===$$$@@@...---***+++   ",
"   +++***---...$$$$$$$$$$$$@@@...------***+++   ",
"   +++***---...$$$$$$$$$$$$@@@...------***+++   ",
"   +++***---...$$$$$$$$$$$$@@@...------***+++   ",
"   +++***---.........===;;;>>>...------***+++   ",
"   +++***---.........===;;;>>>...------***+++   ",
"   +++***---.........===;;;>>>...------***+++   ",
"      +++---...>>>,,,...===$$$...------+++      ",
"      +++---...>>>,,,...===$$$...------+++      ",
"      +++---...>>>,,,...===$$$...------+++      ",
"            ...''''''...$$$$$$...               ",
"            ...''''''...$$$$$$...               ",
"            ...''''''...$$$$$$...               ",
"               ...======......                  ",
"               ...======......                  ",
"               ...======......                  "};
