/* XPM */
static char * PLCS5_xpm[] = {
"48 48 16 1",
" 	c #499B49",
".	c #14182E",
"+	c #3A3F5E",
"@	c #21110D",
"#	c #FFC2A1",
"$	c #755338",
"%	c #2B2B45",
"&	c #503625",
"*	c #BD6A62",
"=	c #B6BEC8",
"-	c #342319",
";	c #677598",
">	c #52333F",
",	c #DFE0E8",
"'	c #8F4D57",
")	c #4FA4B8",
"               ..................               ",
"               ..................               ",
"               ..................               ",
"            ...++++++++++++++++++...            ",
"            ...++++++++++++++++++...            ",
"            ...++++++++++++++++++...            ",
"         ...++++++++++++++++++++++++...         ",
"         ...++++++++++++++++++++++++...         ",
"         ...++++++++++++++++++++++++...         ",
"         ...++++++++++++++++++++++++...         ",
"         ...++++++++++++++++++++++++...         ",
"         ...++++++++++++++++++++++++...         ",
"      @@@...++++++###+++++++++++++++...@@@      ",
"      @@@...++++++###+++++++++++++++...@@@      ",
"      @@@...++++++###+++++++++++++++...@@@      ",
"   @@@$$$...#########+++++++++++++++...$$$@@@   ",
"   @@@$$$...#########+++++++++++++++...$$$@@@   ",
"   @@@$$$...#########+++++++++++++++...$$$@@@   ",
"   @@@$$$...###%%%%%%+++++++++++++++...$$$@@@   ",
"   @@@$$$...###%%%%%%+++++++++++++++...$$$@@@   ",
"   @@@$$$...###%%%%%%+++++++++++++++...$$$@@@   ",
"   @@@$$$...###...###+++######++++++...$$$@@@   ",
"   @@@$$$...###...###+++######++++++...$$$@@@   ",
"   @@@$$$...###...###+++######++++++...$$$@@@   ",
"   @@@&&&...***...###+++***###+++...===&&&@@@   ",
"   @@@&&&...***...###+++***###+++...===&&&@@@   ",
"   @@@&&&...***...###+++***###+++...===&&&@@@   ",
"   @@@---;;;...############+++...;;;;;;---@@@   ",
"   @@@---;;;...############+++...;;;;;;---@@@   ",
"   @@@---;;;...############+++...;;;;;;---@@@   ",
"   @@@---;;;;;;......***>>>......;;;;;;---@@@   ",
"   @@@---;;;;;;......***>>>......;;;;;;---@@@   ",
"   @@@---;;;;;;......***>>>......;;;;;;---@@@   ",
"   @@@---;;;...,,,'''>>>...,,,...;;;;;;---@@@   ",
"   @@@---;;;...,,,'''>>>...,,,...;;;;;;---@@@   ",
"   @@@---;;;...,,,'''>>>...,,,...;;;;;;---@@@   ",
"   @@@---;;;...,,,'''...***###...;;;;;;---@@@   ",
"   @@@---;;;...,,,'''...***###...;;;;;;---@@@   ",
"   @@@---;;;...,,,'''...***###...;;;;;;---@@@   ",
"      @@@;;;...))))))...######...;;;;;;@@@      ",
"      @@@;;;...))))))...######...;;;;;;@@@      ",
"      @@@;;;...))))))...######...;;;;;;@@@      ",
"               ...******......                  ",
"               ...******......                  ",
"               ...******......                  ",
"                  ......                        ",
"                  ......                        ",
"                  ......                        "};
