/* XPM */
static char * PUCS2_xpm[] = {
"48 48 13 1",
" 	c #499B49",
".	c #14182E",
"+	c #21110D",
"@	c #3A3F5E",
"#	c #755338",
"$	c #FFC2A1",
"%	c #342319",
"&	c #BD6A62",
"*	c #DFE0E8",
"=	c #52333F",
"-	c #8F4D57",
";	c #4C6885",
">	c #4FA4B8",
"                                                ",
"                                                ",
"                                                ",
"                                                ",
"                                                ",
"                                                ",
"               ..................               ",
"               ..................               ",
"               ..................               ",
"         +++...@@@@@@@@@@@@@@@@@@...+++         ",
"         +++...@@@@@@@@@@@@@@@@@@...+++         ",
"         +++...@@@@@@@@@@@@@@@@@@...+++         ",
"      +++...@@@@@@@@@@@@@@@@@@@@@@@@...+++      ",
"      +++...@@@@@@@@@@@@@@@@@@@@@@@@...+++      ",
"      +++...@@@@@@@@@@@@@@@@@@@@@@@@...+++      ",
"   +++###...@@@@@@@@@@@@@@@@@@@@@@@@...###+++   ",
"   +++###...@@@@@@@@@@@@@@@@@@@@@@@@...###+++   ",
"   +++###...@@@@@@@@@@@@@@@@@@@@@@@@...###+++   ",
"   +++###...@@@@@@@@@@@@@@@@@@@@@@@@...###+++   ",
"   +++###...@@@@@@@@@@@@@@@@@@@@@@@@...###+++   ",
"   +++###...@@@@@@@@@@@@@@@@@@@@@@@@...###+++   ",
"   +++###...@@@@@@@@@@@@@@@@@@@@@@@@...###+++   ",
"   +++###...@@@@@@@@@@@@@@@@@@@@@@@@...###+++   ",
"   +++###...@@@@@@@@@@@@@@@@@@@@@@@@...###+++   ",
"   +++...$$$@@@@@@@@@@@@@@@@@@@@@@@@$$$...+++   ",
"   +++...$$$@@@@@@@@@@@@@@@@@@@@@@@@$$$...+++   ",
"   +++...$$$@@@@@@@@@@@@@@@@@@@@@@@@$$$...+++   ",
"   +++...$$$@@@@@@@@@@@@@@@@@@@@@@@@$$$...+++   ",
"   +++...$$$@@@@@@@@@@@@@@@@@@@@@@@@$$$...+++   ",
"   +++...$$$@@@@@@@@@@@@@@@@@@@@@@@@$$$...+++   ",
"   +++%%%...&&&@@@@@@@@@@@@@@@@@@&&&...%%%+++   ",
"   +++%%%...&&&@@@@@@@@@@@@@@@@@@&&&...%%%+++   ",
"   +++%%%...&&&@@@@@@@@@@@@@@@@@@&&&...%%%+++   ",
"   +++%%%...***===............===***...%%%+++   ",
"   +++%%%...***===............===***...%%%+++   ",
"   +++%%%...***===............===***...%%%+++   ",
"   +++...$$$...===---======---===...$$$...+++   ",
"   +++...$$$...===---======---===...$$$...+++   ",
"   +++...$$$...===---======---===...$$$...+++   ",
"   ...$$$&&&...======------======...&&&$$$...   ",
"   ...$$$&&&...======------======...&&&$$$...   ",
"   ...$$$&&&...======------======...&&&$$$...   ",
"   ...$$$$$$......;;;>>>>>>;;;......$$$$$$...   ",
"   ...$$$$$$......;;;>>>>>>;;;......$$$$$$...   ",
"   ...$$$$$$......;;;>>>>>>;;;......$$$$$$...   ",
"      .........&&&&&&......&&&&&&.........      ",
"      .........&&&&&&......&&&&&&.........      ",
"      .........&&&&&&......&&&&&&.........      "};
