/* XPM */
static char * PUS3_xpm[] = {
"48 48 10 1",
" 	c #499B49",
".	c #14182E",
"+	c #3A3F5E",
"@	c #FFC2A1",
"#	c #BD6A62",
"$	c #DFE0E8",
"%	c #52333F",
"&	c #8F4D57",
"*	c #4C6885",
"=	c #4FA4B8",
"                                                ",
"                                                ",
"                                                ",
"                                                ",
"                                                ",
"                                                ",
"               ..................               ",
"               ..................               ",
"               ..................               ",
"            ...++++++++++++++++++...            ",
"            ...++++++++++++++++++...            ",
"            ...++++++++++++++++++...            ",
"         ...++++++++++++++++++++++++...         ",
"         ...++++++++++++++++++++++++...         ",
"         ...++++++++++++++++++++++++...         ",
"         ...++++++++++++++++++++++++...         ",
"         ...++++++++++++++++++++++++...         ",
"         ...++++++++++++++++++++++++...         ",
"         ...++++++++++++++++++++++++...         ",
"         ...++++++++++++++++++++++++...         ",
"         ...++++++++++++++++++++++++...         ",
"         ...++++++++++++++++++++++++...         ",
"         ...++++++++++++++++++++++++...         ",
"         ...++++++++++++++++++++++++...         ",
"      ...@@@++++++++++++++++++++++++@@@...      ",
"      ...@@@++++++++++++++++++++++++@@@...      ",
"      ...@@@++++++++++++++++++++++++@@@...      ",
"      ...@@@++++++++++++++++++++++++@@@...      ",
"      ...@@@++++++++++++++++++++++++@@@...      ",
"      ...@@@++++++++++++++++++++++++@@@...      ",
"         ...###++++++++++++++++++###...         ",
"         ...###++++++++++++++++++###...         ",
"         ...###++++++++++++++++++###...         ",
"         ...$$$%%%............%%%$$$...         ",
"         ...$$$%%%............%%%$$$...         ",
"         ...$$$%%%............%%%$$$...         ",
"      ...@@@...%%%&&&%%%%%%&&&%%%...@@@...      ",
"      ...@@@...%%%&&&%%%%%%&&&%%%...@@@...      ",
"      ...@@@...%%%&&&%%%%%%&&&%%%...@@@...      ",
"   ...@@@###...%%%%%%&&&&&&%%%%%%...###@@@...   ",
"   ...@@@###...%%%%%%&&&&&&%%%%%%...###@@@...   ",
"   ...@@@###...%%%%%%&&&&&&%%%%%%...###@@@...   ",
"   ...@@@@@@......***======***......@@@@@@...   ",
"   ...@@@@@@......***======***......@@@@@@...   ",
"   ...@@@@@@......***======***......@@@@@@...   ",
"      .........######......######.........      ",
"      .........######......######.........      ",
"      .........######......######.........      "};
